GeoramaCondensed-BoldItalic.ufo
<glyph name="exclam" format="2">
  <advance width="187.26000000000002"/>
  <unicode hex="0021"/>
  <outline>
    <contour>
      <point x="33.68000000000001" y="260.5" type="line"/>
      <point x="144.64" y="260.5" type="line"/>
      <point x="233.70999999999998" y="740.0" type="line"/>
      <point x="103.15" y="740.0" type="line"/>
    </contour>
    <contour>
      <point x="-10.54" y="50.739999999999995" type="curve" smooth="yes"/>
      <point x="-10.839999999999996" y="12.049999999999999"/>
      <point x="6.700000000000001" y="-7.0"/>
      <point x="48.19" y="-7.0" type="curve" smooth="yes"/>
      <point x="113.66999999999999" y="-7.0"/>
      <point x="134.28" y="55.669999999999995"/>
      <point x="135.18" y="109.53999999999999" type="curve" smooth="yes"/>
      <point x="135.48" y="148.5"/>
      <point x="117.39999999999999" y="167.28"/>
      <point x="76.25000000000001" y="167.28" type="curve" smooth="yes"/>
      <point x="12.22" y="167.28"/>
      <point x="-9.639999999999997" y="105.52"/>
    </contour>
  </outline>
</glyph>
<glyph name="numbersign" format="2">
  <advance width="436.62"/>
  <unicode hex="0023"/>
  <outline>
    <contour>
      <point x="81.96000000000001" y="419.56000000000006" type="line"/>
      <point x="128.54000000000002" y="419.56000000000006" type="line"/>
      <point x="90.83999999999999" y="273.57" type="line"/>
      <point x="43.86999999999999" y="273.57" type="line"/>
      <point x="25.09" y="156.68999999999997" type="line"/>
      <point x="65.06000000000002" y="156.68999999999997" type="line"/>
      <point x="27.240000000000002" y="0.0" type="line"/>
      <point x="124.37" y="0.0" type="line"/>
      <point x="161.89000000000001" y="156.68999999999997" type="line"/>
      <point x="210.26" y="156.68999999999997" type="line"/>
      <point x="172.73999999999998" y="0.0" type="line"/>
      <point x="268.97" y="0.0" type="line"/>
      <point x="306.48999999999995" y="156.68999999999997" type="line"/>
      <point x="359.84" y="156.68999999999997" type="line"/>
      <point x="378.28" y="273.57" type="line"/>
      <point x="332.43999999999994" y="273.57" type="line"/>
      <point x="369.96999999999997" y="419.56000000000006" type="line"/>
      <point x="416.37" y="419.56000000000006" type="line"/>
      <point x="435.54" y="537.56" type="line"/>
      <point x="395.78" y="537.56" type="line"/>
      <point x="435.29" y="700.0" type="line"/>
      <point x="338.43" y="700.0" type="line"/>
      <point x="298.92" y="537.56" type="line"/>
      <point x="250.55" y="537.56" type="line"/>
      <point x="290.06" y="700.0" type="line"/>
      <point x="193.82999999999998" y="700.0" type="line"/>
      <point x="154.32" y="537.56" type="line"/>
      <point x="101.06" y="537.56" type="line"/>
    </contour>
    <contour>
      <point x="224.76999999999998" y="419.56000000000006" type="line"/>
      <point x="273.14" y="419.56000000000006" type="line"/>
      <point x="236.07" y="273.57" type="line"/>
      <point x="187.7" y="273.57" type="line"/>
    </contour>
  </outline>
</glyph>
<glyph name="dollar" format="2">
  <advance width="436.62"/>
  <unicode hex="0024"/>
  <outline>
    <contour>
      <point x="433.36" y="679.0600000000001" type="line"/>
      <point x="412.75" y="690.3200000000002"/>
      <point x="378.36" y="702.18"/>
      <point x="338.0" y="707.01" type="curve"/>
      <point x="353.09999999999997" y="803.74" type="line"/>
      <point x="243.1" y="803.74" type="line"/>
      <point x="225.87" y="698.8100000000001" type="line"/>
      <point x="128.97000000000003" y="675.47"/>
      <point x="74.44000000000001" y="592.52"/>
      <point x="74.44000000000001" y="500.2200000000001" type="curve" smooth="yes"/>
      <point x="74.44000000000001" y="322.56000000000006"/>
      <point x="252.79999999999998" y="281.3399999999999"/>
      <point x="252.79999999999998" y="194.11" type="curve" smooth="yes"/>
      <point x="252.79999999999998" y="146.57999999999998"/>
      <point x="221.01999999999998" y="113.58999999999999"/>
      <point x="167.97" y="113.58999999999999" type="curve" smooth="yes"/>
      <point x="125.13" y="113.58999999999999"/>
      <point x="81.92999999999999" y="123.91"/>
      <point x="38.88" y="143.1" type="curve"/>
      <point x="-3.779999999999999" y="26.95" type="line"/>
      <point x="26.33" y="10.419999999999998"/>
      <point x="67.06" y="-1.9900000000000013"/>
      <point x="106.67" y="-6.1499999999999995" type="curve"/>
      <point x="91.67" y="-105.0" type="line"/>
      <point x="201.6" y="-105.0" type="line"/>
      <point x="216.6" y="-3.6400000000000006" type="line"/>
      <point x="324.0" y="18.09"/>
      <point x="382.16" y="106.66"/>
      <point x="382.16" y="200.35999999999999" type="curve" smooth="yes"/>
      <point x="382.16" y="377.51"/>
      <point x="208.85999999999996" y="412.07"/>
      <point x="208.85999999999996" y="501.85999999999996" type="curve" smooth="yes"/>
      <point x="208.85999999999996" y="545.2400000000001"/>
      <point x="240.12" y="581.23"/>
      <point x="292.95" y="581.23" type="curve" smooth="yes"/>
      <point x="321.3" y="581.23"/>
      <point x="354.81000000000006" y="576.0600000000001"/>
      <point x="390.82" y="560.34" type="curve"/>
    </contour>
  </outline>
</glyph>
<glyph name="ampersand" format="2">
  <advance width="511.4"/>
  <unicode hex="0026"/>
  <outline>
    <contour>
      <point x="209.79" y="-10.0" type="curve" smooth="yes"/>
      <point x="368.37999999999994" y="-10.0"/>
      <point x="474.90999999999997" y="147.79999999999998"/>
      <point x="434.35" y="296.30999999999995" type="curve"/>
      <point x="332.35" y="286.96" type="line"/>
      <point x="378.09000000000003" y="199.64"/>
      <point x="303.33" y="107.96999999999998"/>
      <point x="229.5" y="107.96999999999998" type="curve" smooth="yes"/>
      <point x="164.24999999999997" y="107.96999999999998"/>
      <point x="132.04" y="147.26"/>
      <point x="132.04" y="207.84" type="curve" smooth="yes"/>
      <point x="132.04" y="294.29"/>
      <point x="186.47" y="367.92"/>
      <point x="263.84" y="367.92" type="curve" smooth="yes"/>
      <point x="282.26000000000005" y="367.92" type="line"/>
      <point x="303.58" y="456.81" type="line"/>
      <point x="287.37" y="459.57" type="line" smooth="yes"/>
      <point x="243.24999999999997" y="464.39"/>
      <point x="223.88000000000002" y="488.78999999999996"/>
      <point x="223.88000000000002" y="526.9200000000001" type="curve" smooth="yes"/>
      <point x="223.88000000000002" y="568.3499999999999"/>
      <point x="253.69" y="596.96"/>
      <point x="289.3" y="596.96" type="curve" smooth="yes"/>
      <point x="314.19000000000005" y="596.96"/>
      <point x="335.03" y="591.61"/>
      <point x="359.7" y="573.7099999999999" type="curve"/>
      <point x="418.29" y="672.6299999999999" type="line"/>
      <point x="374.65999999999997" y="697.1899999999999"/>
      <point x="332.45" y="710.0"/>
      <point x="277.1" y="710.0" type="curve" smooth="yes"/>
      <point x="169.76999999999998" y="710.0"/>
      <point x="102.72" y="631.03"/>
      <point x="102.72" y="543.42" type="curve" smooth="yes"/>
      <point x="102.72" y="489.53"/>
      <point x="125.29" y="450.58"/>
      <point x="172.31" y="420.24" type="curve"/>
      <point x="77.51000000000002" y="393.6"/>
      <point x="7.940000000000001" y="310.49"/>
      <point x="7.940000000000001" y="181.39" type="curve" smooth="yes"/>
      <point x="7.940000000000001" y="71.92"/>
      <point x="74.83" y="-10.0"/>
    </contour>
    <contour>
      <point x="296.44" y="221.65999999999997" type="line"/>
      <point x="298.79" y="250.82999999999998"/>
      <point x="309.55000000000007" y="268.92"/>
      <point x="334.45" y="268.92" type="curve" smooth="yes"/>
      <point x="367.47" y="268.92"/>
      <point x="398.44" y="263.66"/>
      <point x="428.91" y="263.66" type="curve" smooth="yes"/>
      <point x="492.39000000000004" y="263.66"/>
      <point x="533.76" y="328.66999999999996"/>
      <point x="521.7" y="396.18" type="curve"/>
      <point x="443.45000000000005" y="398.60999999999996" type="line"/>
      <point x="440.26" y="351.76"/>
      <point x="420.06000000000006" y="343.9700000000001"/>
      <point x="380.36" y="343.9700000000001" type="curve" smooth="yes"/>
      <point x="359.70000000000005" y="343.9700000000001"/>
      <point x="339.46" y="349.66999999999996"/>
      <point x="318.02" y="349.66999999999996" type="curve" smooth="yes"/>
      <point x="246.07999999999998" y="349.66999999999996"/>
      <point x="220.21" y="292.77"/>
      <point x="216.78" y="236.48999999999998" type="curve"/>
    </contour>
  </outline>
</glyph>
<glyph name="quotesingle" format="2">
  <advance width="173.51"/>
  <unicode hex="0027"/>
  <outline>
    <contour>
      <point x="55.64000000000001" y="427.0" type="line"/>
      <point x="162.58" y="427.0" type="line"/>
      <point x="213.78" y="700.0" type="line"/>
      <point x="93.73" y="700.0" type="line"/>
    </contour>
  </outline>
</glyph>
<glyph name="parenleft" format="2">
  <advance width="243.11"/>
  <unicode hex="0028"/>
  <outline>
    <contour>
      <point x="15.86" y="34.9" type="curve" smooth="yes"/>
      <point x="15.86" y="-107.82"/>
      <point x="56.01" y="-200.86999999999998"/>
      <point x="148.07999999999998" y="-220.0" type="curve"/>
      <point x="170.51000000000002" y="-104.4" type="line"/>
      <point x="137.82" y="-85.43000000000002"/>
      <point x="119.00999999999999" y="-41.809999999999995"/>
      <point x="119.00999999999999" y="42.339999999999996" type="curve" smooth="yes"/>
      <point x="119.00999999999999" y="174.43000000000004"/>
      <point x="183.35" y="610.07"/>
      <point x="287.78000000000003" y="632.76" type="curve"/>
      <point x="303.55" y="749.73" type="line"/>
      <point x="91.18" y="726.3799999999999"/>
      <point x="15.86" y="271.33"/>
    </contour>
  </outline>
</glyph>
<glyph name="parenright" format="2">
  <advance width="243.11"/>
  <unicode hex="0029"/>
  <outline>
    <contour>
      <point x="224.45000000000002" y="495.04" type="curve" smooth="yes"/>
      <point x="224.45000000000002" y="638.29"/>
      <point x="184.51" y="730.8700000000001"/>
      <point x="92.41" y="750.0" type="curve"/>
      <point x="70.52" y="633.1800000000001" type="line"/>
      <point x="104.05" y="612.5300000000001"/>
      <point x="121.3" y="570.59"/>
      <point x="121.3" y="490.76" type="curve" smooth="yes"/>
      <point x="121.3" y="356.17999999999995"/>
      <point x="56.9" y="-80.64"/>
      <point x="-47.800000000000004" y="-103.24" type="curve"/>
      <point x="-63.3" y="-220.0" type="line"/>
      <point x="147.42" y="-194.68"/>
      <point x="224.45000000000002" y="258.38"/>
    </contour>
  </outline>
</glyph>
<glyph name="asterisk" format="2">
  <advance width="297.21999999999997"/>
  <unicode hex="002A"/>
  <outline>
    <contour>
      <point x="111.47999999999999" y="405.9" type="line"/>
      <point x="180.94" y="481.52" type="line"/>
      <point x="225.14" y="406.17" type="line"/>
      <point x="279.49" y="442.71000000000004" type="line"/>
      <point x="248.84" y="529.73" type="line"/>
      <point x="335.31000000000006" y="571.48" type="line"/>
      <point x="326.15999999999997" y="632.32" type="line"/>
      <point x="239.05" y="608.72" type="line"/>
      <point x="247.6" y="709.0300000000001" type="line"/>
      <point x="187.09" y="709.0300000000001" type="line"/>
      <point x="162.72" y="608.99" type="line"/>
      <point x="84.82000000000001" y="632.59" type="line"/>
      <point x="55.74" y="572.02" type="line"/>
      <point x="125.83000000000001" y="530.27" type="line"/>
      <point x="68.27" y="442.77" type="line"/>
    </contour>
  </outline>
</glyph>
<glyph name="plus" format="2">
  <advance width="402.90999999999997"/>
  <unicode hex="002B"/>
  <outline>
    <contour>
      <point x="122.51" y="130.38" type="line"/>
      <point x="235.07" y="130.38" type="line"/>
      <point x="255.16" y="256.98" type="line"/>
      <point x="356.84000000000003" y="256.98" type="line"/>
      <point x="375.87" y="377.8" type="line"/>
      <point x="274.19" y="377.8" type="line"/>
      <point x="294.38" y="504.6" type="line"/>
      <point x="181.96" y="504.6" type="line"/>
      <point x="161.63" y="377.8" type="line"/>
      <point x="59.89" y="377.8" type="line"/>
      <point x="40.86" y="256.98" type="line"/>
      <point x="142.73999999999998" y="256.98" type="line"/>
    </contour>
  </outline>
</glyph>
<glyph name="comma" format="2">
  <advance width="176.42"/>
  <unicode hex="002C"/>
  <outline>
    <contour>
      <point x="-2.1699999999999995" y="87.72000000000001" type="line"/>
      <point x="-2.48" y="59.75"/>
      <point x="-5.219999999999999" y="34.559999999999995"/>
      <point x="-7.389999999999999" y="20.419999999999998" type="curve" smooth="yes"/>
      <point x="-14.04" y="-36.01"/>
      <point x="-48.57" y="-115.57"/>
      <point x="-81.88" y="-157.47" type="curve"/>
      <point x="7.699999999999989" y="-186.32" type="line"/>
      <point x="74.59999999999998" y="-114.51"/>
      <point x="116.25" y="-25.770000000000003"/>
      <point x="116.25" y="56.71999999999999" type="curve" smooth="yes"/>
      <point x="116.25" y="68.52999999999999"/>
      <point x="115.45999999999998" y="79.41"/>
      <point x="114.55999999999999" y="90.57999999999998" type="curve"/>
    </contour>
  </outline>
</glyph>
<glyph name="hyphen" format="2">
  <advance width="281.28000000000003"/>
  <unicode hex="002D"/>
  <outline>
    <contour>
      <point x="25.15" y="238.35999999999999" type="line"/>
      <point x="243.76999999999998" y="238.35999999999999" type="line"/>
      <point x="265.59" y="368.23999999999995" type="line"/>
      <point x="46.970000000000006" y="368.23999999999995" type="line"/>
    </contour>
  </outline>
</glyph>
<glyph name="period" format="2">
  <advance width="177.33"/>
  <unicode hex="002E"/>
  <outline>
    <contour>
      <point x="-14.52" y="52.63" type="curve" smooth="yes"/>
      <point x="-14.82" y="13.309999999999999"/>
      <point x="2.09" y="-5.109999999999999"/>
      <point x="44.21" y="-5.109999999999999" type="curve" smooth="yes"/>
      <point x="109.69000000000001" y="-5.109999999999999"/>
      <point x="129.67" y="57.56"/>
      <point x="130.57" y="112.69" type="curve" smooth="yes"/>
      <point x="130.87" y="151.02"/>
      <point x="113.41999999999999" y="169.17"/>
      <point x="72.27" y="169.17" type="curve" smooth="yes"/>
      <point x="7.609999999999999" y="169.17"/>
      <point x="-13.619999999999997" y="107.41"/>
    </contour>
  </outline>
</glyph>
<glyph name="slash" format="2">
  <advance width="338.65"/>
  <unicode hex="002F"/>
  <outline>
    <contour>
      <point x="-79.33" y="-210.0" type="line"/>
      <point x="28.319999999999997" y="-210.0" type="line"/>
      <point x="414.97999999999996" y="740.0" type="line"/>
      <point x="306.0" y="740.0" type="line"/>
    </contour>
  </outline>
</glyph>
<glyph name="zero" format="2">
  <advance width="436.79999999999995"/>
  <unicode hex="0030"/>
  <outline>
    <contour>
      <point x="182.60000000000002" y="-10.3" type="curve" smooth="yes"/>
      <point x="368.1" y="-10.3"/>
      <point x="438.45000000000005" y="285.84999999999997"/>
      <point x="438.45000000000005" y="507.45" type="curve" smooth="yes"/>
      <point x="438.45000000000005" y="646.8000000000001"/>
      <point x="389.09999999999997" y="710.15"/>
      <point x="277.79999999999995" y="710.15" type="curve" smooth="yes"/>
      <point x="93.94999999999999" y="710.15"/>
      <point x="21.799999999999997" y="414.1499999999999"/>
      <point x="21.799999999999997" y="193.45000000000002" type="curve" smooth="yes"/>
      <point x="21.799999999999997" y="54.25"/>
      <point x="71.3" y="-10.3"/>
    </contour>
    <contour>
      <point x="195.0" y="116.44999999999999" type="curve" smooth="yes"/>
      <point x="163.1" y="116.44999999999999"/>
      <point x="150.14999999999998" y="137.99999999999997"/>
      <point x="150.6" y="189.25" type="curve" smooth="yes"/>
      <point x="151.05" y="304.6"/>
      <point x="197.15" y="583.5500000000001"/>
      <point x="266.8999999999999" y="583.5500000000001" type="curve" smooth="yes"/>
      <point x="298.2" y="583.5500000000001"/>
      <point x="310.7" y="562.2"/>
      <point x="310.25" y="511.85" type="curve" smooth="yes"/>
      <point x="309.79999999999995" y="399.2"/>
      <point x="262.6500000000001" y="116.44999999999999"/>
    </contour>
  </outline>
</glyph>
<glyph name="one" format="2">
  <advance width="436.62"/>
  <unicode hex="0031"/>
  <outline>
    <contour>
      <point x="26.34" y="0.0" type="line"/>
      <point x="348.03" y="0.0" type="line"/>
      <point x="367.62" y="120.77000000000001" type="line"/>
      <point x="275.41" y="120.77000000000001" type="line"/>
      <point x="368.42" y="700.3" type="line"/>
      <point x="304.71" y="700.3" type="line"/>
      <point x="106.42" y="618.9399999999999" type="line"/>
      <point x="112.04" y="483.86" type="line"/>
      <point x="213.45000000000002" y="531.83" type="line"/>
      <point x="147.17000000000002" y="120.77000000000001" type="line"/>
      <point x="45.3" y="120.77000000000001" type="line"/>
    </contour>
  </outline>
</glyph>
<glyph name="two" format="2">
  <advance width="436.79999999999995"/>
  <unicode hex="0032"/>
  <outline>
    <contour>
      <point x="26.8" y="98.1" type="curve"/>
      <point x="12.7" y="0.0" type="line"/>
      <point x="341.3" y="0.0" type="line"/>
      <point x="359.65" y="110.74999999999999" type="line"/>
      <point x="179.0" y="110.74999999999999" type="line"/>
      <point x="320.70000000000005" y="302.65"/>
      <point x="407.3" y="423.29999999999995"/>
      <point x="407.3" y="556.6499999999999" type="curve" smooth="yes"/>
      <point x="407.3" y="651.7499999999999"/>
      <point x="355.55" y="710.0"/>
      <point x="271.9000000000001" y="710.0" type="curve" smooth="yes"/>
      <point x="206.95" y="710.0"/>
      <point x="145.39999999999998" y="687.1999999999999"/>
      <point x="96.35000000000002" y="650.3" type="curve"/>
      <point x="121.75000000000001" y="525.1999999999999" type="line"/>
      <point x="154.3" y="547.55"/>
      <point x="185.15" y="562.4999999999999"/>
      <point x="218.04999999999998" y="562.4999999999999" type="curve" smooth="yes"/>
      <point x="252.1" y="562.4999999999999"/>
      <point x="268.80000000000007" y="537.9499999999998"/>
      <point x="268.80000000000007" y="505.9999999999999" type="curve" smooth="yes"/>
      <point x="268.8" y="415.25"/>
      <point x="166.95000000000002" y="277.44999999999993"/>
    </contour>
  </outline>
</glyph>
<glyph name="three" format="2">
  <advance width="436.79999999999995"/>
  <unicode hex="0033"/>
  <outline>
    <contour>
      <point x="-7.800000000000002" y="38.425" type="line"/>
      <point x="31.39999999999999" y="7.800000000000001"/>
      <point x="77.85" y="-10.0"/>
      <point x="145.275" y="-10.0" type="curve" smooth="yes"/>
      <point x="261.15" y="-10.0"/>
      <point x="375.875" y="74.65"/>
      <point x="375.875" y="232.42499999999998" type="curve" smooth="yes"/>
      <point x="375.875" y="314.675"/>
      <point x="341.875" y="351.975"/>
      <point x="306.2" y="370.3" type="curve"/>
      <point x="368.77500000000003" y="408.275"/>
      <point x="414.02500000000003" y="469.55"/>
      <point x="414.02500000000003" y="561.475" type="curve" smooth="yes"/>
      <point x="414.02500000000003" y="656.7"/>
      <point x="359.775" y="710.0"/>
      <point x="260.77500000000003" y="710.0" type="curve" smooth="yes"/>
      <point x="199.05" y="710.0"/>
      <point x="138.5" y="690.8750000000001"/>
      <point x="95.4" y="659.275" type="curve"/>
      <point x="116.87500000000001" y="553.575" type="line"/>
      <point x="141.425" y="567.725"/>
      <point x="172.85" y="577.325"/>
      <point x="209.275" y="577.325" type="curve" smooth="yes"/>
      <point x="252.125" y="577.325"/>
      <point x="280.05" y="551.25"/>
      <point x="280.05" y="506.875" type="curve" smooth="yes"/>
      <point x="280.05" y="454.95"/>
      <point x="245.65" y="408.7"/>
      <point x="193.87500000000003" y="408.7" type="curve" smooth="yes"/>
      <point x="141.5" y="408.7" type="line"/>
      <point x="124.525" y="306.2" type="line"/>
      <point x="187.14999999999998" y="306.2" type="line" smooth="yes"/>
      <point x="230.975" y="306.2"/>
      <point x="251.175" y="278.65000000000003"/>
      <point x="251.175" y="236.625" type="curve" smooth="yes"/>
      <point x="251.175" y="166.5"/>
      <point x="212.60000000000002" y="118.125"/>
      <point x="147.3" y="118.125" type="curve" smooth="yes"/>
      <point x="109.55" y="118.125"/>
      <point x="79.775" y="127.225"/>
      <point x="51.125" y="147.025" type="curve"/>
    </contour>
  </outline>
</glyph>
<glyph name="four" format="2">
  <advance width="436.79999999999995"/>
  <unicode hex="0034"/>
  <outline>
    <contour>
      <point x="3.850000000000001" y="115.12500000000001" type="line"/>
      <point x="189.025" y="115.12500000000001" type="line"/>
      <point x="170.85" y="-0.15000000000000008" type="line"/>
      <point x="304.375" y="-0.15000000000000008" type="line"/>
      <point x="322.55" y="115.12500000000001" type="line"/>
      <point x="382.90000000000003" y="115.12500000000001" type="line"/>
      <point x="400.25000000000006" y="226.45" type="line"/>
      <point x="340.675" y="226.45" type="line"/>
      <point x="416.65" y="699.6250000000001" type="line"/>
      <point x="277.225" y="701.2" type="line"/>
      <point x="19.2" y="222.675" type="line"/>
    </contour>
    <contour>
      <point x="107.575" y="226.45" type="line"/>
      <point x="259.52500000000003" y="515.7" type="line"/>
      <point x="212.14999999999998" y="226.45" type="line"/>
    </contour>
  </outline>
</glyph>
<glyph name="five" format="2">
  <advance width="436.8"/>
  <unicode hex="0035"/>
  <outline>
    <contour>
      <point x="-3.000000000000001" y="34.074999999999996" type="line"/>
      <point x="34.59999999999999" y="4.55"/>
      <point x="79.625" y="-10.0"/>
      <point x="145.82500000000002" y="-10.0" type="curve" smooth="yes"/>
      <point x="316.825" y="-10.0"/>
      <point x="386.375" y="137.12500000000003"/>
      <point x="386.375" y="269.775" type="curve" smooth="yes"/>
      <point x="386.375" y="370.3"/>
      <point x="341.12500000000006" y="415.34999999999997"/>
      <point x="261.725" y="418.7" type="curve" smooth="yes"/>
      <point x="211.57499999999996" y="419.84999999999997" type="line"/>
      <point x="246.14999999999995" y="571.2750000000001" type="line"/>
      <point x="414.55" y="571.2750000000001" type="line"/>
      <point x="434.17500000000007" y="700.0" type="line"/>
      <point x="167.3" y="700.0" type="line"/>
      <point x="73.85" y="315.675" type="line"/>
      <point x="80.15" y="303.725" type="line"/>
      <point x="181.25" y="303.725" type="line" smooth="yes"/>
      <point x="231.95" y="303.725"/>
      <point x="251.39999999999998" y="281.725"/>
      <point x="251.39999999999998" y="234.47499999999997" type="curve" smooth="yes"/>
      <point x="251.39999999999998" y="187.90000000000003"/>
      <point x="225.35" y="118.69999999999999"/>
      <point x="143.525" y="118.69999999999999" type="curve" smooth="yes"/>
      <point x="99.675" y="118.69999999999999"/>
      <point x="67.25" y="133.00000000000003"/>
      <point x="43.25" y="148.75" type="curve"/>
    </contour>
  </outline>
</glyph>
<glyph name="six" format="2">
  <advance width="436.8"/>
  <unicode hex="0036"/>
  <note>
14
</note>
  <outline>
    <contour>
      <point x="194.09999999999997" y="-10.0" type="curve" smooth="yes"/>
      <point x="323.4" y="-10.0"/>
      <point x="405.25" y="114.85"/>
      <point x="405.25" y="298.29999999999995" type="curve" smooth="yes"/>
      <point x="405.25" y="400.54999999999995"/>
      <point x="354.0" y="445.3"/>
      <point x="284.65000000000003" y="445.3" type="curve" smooth="yes"/>
      <point x="237.6" y="445.3"/>
      <point x="198.54999999999998" y="428.70000000000005"/>
      <point x="162.20000000000002" y="387.7" type="curve"/>
      <point x="151.5" y="272.35" type="line"/>
      <point x="172.6" y="311.4"/>
      <point x="200.2" y="335.5"/>
      <point x="229.6" y="335.5" type="curve" smooth="yes"/>
      <point x="264.90000000000003" y="335.5"/>
      <point x="278.8" y="312.90000000000003"/>
      <point x="278.8" y="265.59999999999997" type="curve" smooth="yes"/>
      <point x="278.8" y="188.75"/>
      <point x="245.10000000000002" y="107.69999999999999"/>
      <point x="203.14999999999998" y="107.69999999999999" type="curve" smooth="yes"/>
      <point x="170.2" y="107.69999999999999"/>
      <point x="153.1" y="130.75"/>
      <point x="153.1" y="177.25" type="curve" smooth="yes"/>
      <point x="153.1" y="262.45"/>
      <point x="171.15" y="352.90000000000003"/>
      <point x="202.75" y="457.04999999999995" type="curve" smooth="yes"/>
      <point x="228.04999999999998" y="539.4500000000002"/>
      <point x="267.29999999999995" y="585.6500000000001"/>
      <point x="334.95" y="585.6500000000001" type="curve" smooth="yes"/>
      <point x="363.7" y="585.6500000000001"/>
      <point x="387.65" y="575.35"/>
      <point x="409.95" y="562.0999999999999" type="curve"/>
      <point x="462.0" y="673.0000000000001" type="line"/>
      <point x="439.0" y="690.85"/>
      <point x="390.0" y="710.0"/>
      <point x="332.09999999999997" y="710.0" type="curve" smooth="yes"/>
      <point x="131.15" y="710.0"/>
      <point x="28.85" y="468.15"/>
      <point x="28.85" y="190.9" type="curve" smooth="yes"/>
      <point x="28.85" y="48.449999999999996"/>
      <point x="87.35" y="-10.0"/>
    </contour>
  </outline>
</glyph>
<glyph name="seven" format="2">
  <advance width="436.62"/>
  <unicode hex="0037"/>
  <note>
9
</note>
  <outline>
    <contour>
      <point x="66.91" y="0.0" type="curve"/>
      <point x="202.79" y="0.0" type="line"/>
      <point x="223.96999999999997" y="121.11"/>
      <point x="253.54" y="209.85"/>
      <point x="336.17" y="380.36999999999995" type="curve" smooth="yes"/>
      <point x="444.03" y="602.05" type="line"/>
      <point x="459.5199999999999" y="700.0" type="line"/>
      <point x="109.53000000000002" y="700.0" type="line"/>
      <point x="89.27" y="572.6500000000001" type="line"/>
      <point x="299.99" y="572.6500000000001" type="line"/>
      <point x="203.80000000000004" y="390.61" type="line" smooth="yes"/>
      <point x="126.96" y="245.39"/>
      <point x="88.95" y="136.35"/>
    </contour>
  </outline>
</glyph>
<glyph name="eight" format="2">
  <advance width="443.0"/>
  <unicode hex="0038"/>
  <outline>
    <contour>
      <point x="195.65" y="-10.0" type="curve" smooth="yes"/>
      <point x="321.15" y="-10.0"/>
      <point x="403.09999999999997" y="60.850000000000016"/>
      <point x="403.09999999999997" y="204.55" type="curve" smooth="yes"/>
      <point x="403.09999999999997" y="395.09999999999997"/>
      <point x="197.70000000000002" y="402.7"/>
      <point x="197.70000000000002" y="527.3" type="curve" smooth="yes"/>
      <point x="197.70000000000002" y="567.55"/>
      <point x="224.75" y="593.1"/>
      <point x="268.25" y="593.1" type="curve" smooth="yes"/>
      <point x="308.5" y="593.1"/>
      <point x="326.35" y="569.0"/>
      <point x="326.35" y="529.95" type="curve" smooth="yes"/>
      <point x="326.35" y="474.35"/>
      <point x="291.3" y="439.25"/>
      <point x="255.10000000000002" y="412.7" type="curve"/>
      <point x="313.84999999999997" y="355.25" type="line"/>
      <point x="384.05" y="399.2"/>
      <point x="441.65" y="465.8"/>
      <point x="441.65" y="561.0999999999999" type="curve" smooth="yes"/>
      <point x="441.65" y="642.3"/>
      <point x="395.25" y="710.0"/>
      <point x="273.70000000000005" y="710.0" type="curve" smooth="yes"/>
      <point x="144.25000000000003" y="710.0"/>
      <point x="76.5" y="630.8499999999999"/>
      <point x="76.5" y="516.3000000000001" type="curve" smooth="yes"/>
      <point x="76.5" y="316.40000000000003"/>
      <point x="279.8" y="321.3"/>
      <point x="279.8" y="188.15" type="curve" smooth="yes"/>
      <point x="279.8" y="130.5"/>
      <point x="248.75" y="102.0"/>
      <point x="202.34999999999997" y="102.0" type="curve" smooth="yes"/>
      <point x="156.14999999999998" y="102.0"/>
      <point x="132.54999999999998" y="128.25"/>
      <point x="132.54999999999998" y="170.39999999999998" type="curve" smooth="yes"/>
      <point x="132.54999999999998" y="239.9"/>
      <point x="169.6" y="282.3"/>
      <point x="214.65" y="303.95000000000005" type="curve"/>
      <point x="152.5" y="370.65" type="line"/>
      <point x="65.0" y="339.55"/>
      <point x="7.949999999999999" y="249.8"/>
      <point x="7.949999999999999" y="153.75" type="curve" smooth="yes"/>
      <point x="7.949999999999999" y="58.8"/>
      <point x="60.2" y="-10.0"/>
    </contour>
  </outline>
</glyph>
<glyph name="nine" format="2">
  <advance width="436.8"/>
  <unicode hex="0039"/>
  <outline>
    <contour>
      <point x="268.49999999999994" y="710.0" type="curve" smooth="yes"/>
      <point x="139.6" y="710.0"/>
      <point x="56.900000000000006" y="585.35"/>
      <point x="56.900000000000006" y="403.20000000000005" type="curve" smooth="yes"/>
      <point x="56.900000000000006" y="299.15000000000003"/>
      <point x="107.8" y="255.15"/>
      <point x="176.7" y="255.15" type="curve" smooth="yes"/>
      <point x="224.20000000000002" y="255.15"/>
      <point x="264.05000000000007" y="269.95"/>
      <point x="299.95" y="316.8" type="curve"/>
      <point x="310.65" y="428.1" type="line"/>
      <point x="290.0" y="389.05"/>
      <point x="261.95" y="364.95"/>
      <point x="232.54999999999998" y="364.95" type="curve" smooth="yes"/>
      <point x="197.7" y="364.95"/>
      <point x="183.79999999999998" y="387.09999999999997"/>
      <point x="183.79999999999998" y="434.40000000000003" type="curve" smooth="yes"/>
      <point x="183.79999999999998" y="511.7"/>
      <point x="217.5" y="592.3000000000001"/>
      <point x="258.7" y="592.3000000000001" type="curve" smooth="yes"/>
      <point x="290.6" y="592.3000000000001"/>
      <point x="308.75" y="568.9499999999999"/>
      <point x="308.75" y="523.8" type="curve" smooth="yes"/>
      <point x="308.75" y="447.74999999999994"/>
      <point x="292.3" y="346.90000000000003"/>
      <point x="260.25000000000006" y="242.3" type="curve" smooth="yes"/>
      <point x="235.49999999999997" y="159.79999999999998"/>
      <point x="198.39999999999998" y="113.39999999999999"/>
      <point x="130.65" y="113.39999999999999" type="curve" smooth="yes"/>
      <point x="102.35000000000001" y="113.39999999999999"/>
      <point x="74.94999999999999" y="124.65"/>
      <point x="52.19999999999999" y="140.6" type="curve"/>
      <point x="0.14999999999999936" y="29.250000000000004" type="line"/>
      <point x="24.35" y="9.15"/>
      <point x="76.35" y="-10.0"/>
      <point x="136.64999999999998" y="-10.0" type="curve" smooth="yes"/>
      <point x="331.9" y="-10.0"/>
      <point x="433.0" y="231.84999999999997"/>
      <point x="433.0" y="509.5500000000001" type="curve" smooth="yes"/>
      <point x="433.0" y="652.0"/>
      <point x="374.79999999999995" y="710.0"/>
    </contour>
  </outline>
</glyph>
<glyph name="less" format="2">
  <advance width="400.06"/>
  <unicode hex="003C"/>
  <outline>
    <contour>
      <point x="341.73" y="95.61" type="line"/>
      <point x="358.87" y="206.55" type="line"/>
      <point x="149.05" y="305.52000000000004" type="line"/>
      <point x="390.78000000000003" y="405.32" type="line"/>
      <point x="407.92" y="516.34" type="line"/>
      <point x="44.68" y="367.49000000000007" type="line"/>
      <point x="25.310000000000002" y="245.47" type="line"/>
    </contour>
  </outline>
</glyph>
<glyph name="equal" format="2">
  <advance width="376.79"/>
  <unicode hex="003D"/>
  <outline>
    <contour>
      <point x="329.35" y="256.78000000000003" type="line"/>
      <point x="42.349999999999994" y="256.78000000000003" type="line"/>
      <point x="24.580000000000002" y="135.69" type="line"/>
      <point x="311.58000000000004" y="135.69" type="line"/>
    </contour>
    <contour>
      <point x="361.34999999999997" y="476.95" type="line"/>
      <point x="74.91" y="476.95" type="line"/>
      <point x="56.58" y="355.86" type="line"/>
      <point x="343.58" y="355.86" type="line"/>
    </contour>
  </outline>
</glyph>
<glyph name="greater" format="2">
  <advance width="400.06"/>
  <unicode hex="003E"/>
  <outline>
    <contour>
      <point x="365.09999999999997" y="244.66000000000003" type="line"/>
      <point x="384.33" y="365.62999999999994" type="line"/>
      <point x="68.41" y="515.1" type="line"/>
      <point x="51.13" y="405.35" type="line"/>
      <point x="261.91999999999996" y="305.78999999999996" type="line"/>
      <point x="19.629999999999995" y="206.85" type="line"/>
      <point x="2.150000000000001" y="95.07000000000001" type="line"/>
    </contour>
  </outline>
</glyph>
<glyph name="question" format="2">
  <advance width="350.15"/>
  <unicode hex="003F"/>
  <outline>
    <contour>
      <point x="97.25000000000001" y="260.71" type="line"/>
      <point x="208.54" y="260.71" type="line"/>
      <point x="220.37" y="332.52" type="line"/>
      <point x="314.46000000000004" y="389.44000000000005"/>
      <point x="383.71000000000004" y="472.48999999999995"/>
      <point x="383.71000000000004" y="591.06" type="curve" smooth="yes"/>
      <point x="383.71000000000004" y="694.1500000000001"/>
      <point x="326.82" y="750.0"/>
      <point x="235.25000000000003" y="750.0" type="curve" smooth="yes"/>
      <point x="178.83" y="750.0"/>
      <point x="118.1" y="729.39"/>
      <point x="74.28" y="692.95" type="curve"/>
      <point x="101.0" y="572.46" type="line"/>
      <point x="132.63000000000002" y="596.5400000000001"/>
      <point x="159.57999999999998" y="609.9100000000001"/>
      <point x="187.58999999999997" y="609.9100000000001" type="curve" smooth="yes"/>
      <point x="219.27000000000004" y="609.9100000000001"/>
      <point x="240.45000000000002" y="593.6200000000001"/>
      <point x="240.45000000000002" y="553.22" type="curve" smooth="yes"/>
      <point x="240.45000000000002" y="482.87999999999994"/>
      <point x="193.03" y="437.76000000000005"/>
      <point x="116.22" y="394.11" type="curve"/>
    </contour>
    <contour>
      <point x="52.47" y="49.69" type="curve" smooth="yes"/>
      <point x="52.5" y="11.120000000000001"/>
      <point x="69.10999999999999" y="-7.0"/>
      <point x="109.94000000000001" y="-7.0" type="curve" smooth="yes"/>
      <point x="175.66" y="-7.0"/>
      <point x="197.31999999999996" y="53.15"/>
      <point x="197.23" y="108.67" type="curve" smooth="yes"/>
      <point x="197.2" y="148.5"/>
      <point x="180.38000000000002" y="166.98"/>
      <point x="140.19" y="166.98" type="curve" smooth="yes"/>
      <point x="74.33" y="166.98"/>
      <point x="52.38" y="105.82"/>
    </contour>
  </outline>
</glyph>
<glyph name="at" format="2">
  <advance width="706.05"/>
  <unicode hex="0040"/>
  <outline>
    <contour>
      <point x="299.34999999999997" y="-123.4" type="curve" smooth="yes"/>
      <point x="348.34999999999997" y="-123.4"/>
      <point x="420.9" y="-105.05"/>
      <point x="463.9" y="-75.8" type="curve"/>
      <point x="448.15" y="-25.200000000000003" type="line"/>
      <point x="401.45" y="-49.2"/>
      <point x="350.40000000000003" y="-62.600000000000016"/>
      <point x="300.90000000000003" y="-62.600000000000016" type="curve" smooth="yes"/>
      <point x="175.8" y="-62.600000000000016"/>
      <point x="83.95" y="7.1"/>
      <point x="83.95" y="182.6" type="curve" smooth="yes"/>
      <point x="83.95" y="402.4"/>
      <point x="208.10000000000002" y="652.7"/>
      <point x="418.95" y="652.7" type="curve" smooth="yes"/>
      <point x="560.7500000000001" y="652.7"/>
      <point x="634.4" y="579.1999999999999"/>
      <point x="634.4" y="421.65" type="curve" smooth="yes"/>
      <point x="634.4" y="315.3"/>
      <point x="603.25" y="135.25"/>
      <point x="523.4" y="135.25" type="curve" smooth="yes"/>
      <point x="478.95000000000005" y="135.25"/>
      <point x="477.65" y="179.3"/>
      <point x="489.8" y="228.7" type="curve" smooth="yes"/>
      <point x="562.2" y="521.85" type="line"/>
      <point x="516.65" y="544.25"/>
      <point x="469.8" y="557.4499999999999"/>
      <point x="412.59999999999997" y="557.4499999999999" type="curve" smooth="yes"/>
      <point x="248.55" y="557.4499999999999"/>
      <point x="165.5" y="324.0"/>
      <point x="165.5" y="170.25" type="curve" smooth="yes"/>
      <point x="165.5" y="90.94999999999999"/>
      <point x="201.70000000000002" y="51.650000000000006"/>
      <point x="260.59999999999997" y="51.650000000000006" type="curve" smooth="yes"/>
      <point x="310.40000000000003" y="51.650000000000006"/>
      <point x="352.55" y="86.1"/>
      <point x="387.0" y="132.89999999999998" type="curve"/>
      <point x="401.8" y="84.35"/>
      <point x="431.34999999999997" y="48.449999999999996"/>
      <point x="496.49999999999994" y="48.449999999999996" type="curve" smooth="yes"/>
      <point x="634.4" y="48.449999999999996"/>
      <point x="698.75" y="260.50000000000006"/>
      <point x="698.75" y="433.05" type="curve" smooth="yes"/>
      <point x="698.75" y="615.05"/>
      <point x="586.4499999999999" y="712.8"/>
      <point x="431.75" y="712.8" type="curve" smooth="yes"/>
      <point x="167.74999999999997" y="712.8"/>
      <point x="18.3" y="444.0"/>
      <point x="18.3" y="167.60000000000002" type="curve" smooth="yes"/>
      <point x="18.3" y="-17.100000000000005"/>
      <point x="121.3" y="-123.4"/>
    </contour>
    <contour>
      <point x="322.25" y="171.8" type="curve" smooth="yes"/>
      <point x="303.15" y="171.8"/>
      <point x="292.44999999999993" y="185.05"/>
      <point x="292.44999999999993" y="208.75" type="curve" smooth="yes"/>
      <point x="292.44999999999993" y="281.05"/>
      <point x="352.09999999999997" y="461.09999999999997"/>
      <point x="402.65" y="461.09999999999997" type="curve" smooth="yes"/>
      <point x="414.84999999999997" y="461.09999999999997"/>
      <point x="424.65" y="458.70000000000005"/>
      <point x="435.40000000000003" y="453.55" type="curve"/>
      <point x="379.04999999999995" y="225.1" type="line" smooth="yes"/>
      <point x="365.8" y="192.45000000000002"/>
      <point x="342.4" y="171.8"/>
    </contour>
  </outline>
</glyph>
<glyph name="A" format="2">
  <advance width="435.735"/>
  <unicode hex="0041"/>
  <anchor x="173.545" y="0.0" name="bottom"/>
  <anchor x="384.445" y="0.0" name="ogonek"/>
  <anchor x="279.54" y="700.0" name="top"/>
  <outline>
    <contour>
      <point x="-36.71" y="0.0" type="line"/>
      <point x="98.63499999999999" y="0.0" type="line"/>
      <point x="139.70000000000002" y="133.735" type="line"/>
      <point x="249.34500000000003" y="133.735" type="line"/>
      <point x="248.14999999999998" y="0.0" type="line"/>
      <point x="384.445" y="0.0" type="line"/>
      <point x="375.98" y="703.7" type="line"/>
      <point x="185.85000000000002" y="703.7" type="line"/>
    </contour>
    <contour>
      <point x="172.04000000000002" y="253.60999999999999" type="line"/>
      <point x="264.77000000000004" y="592.91" type="line"/>
      <point x="256.065" y="253.60999999999999" type="line"/>
    </contour>
  </outline>
</glyph>
<glyph name="B" format="2">
  <advance width="420.54999999999995"/>
  <unicode hex="0042"/>
  <outline>
    <contour>
      <point x="-7.629999999999997" y="2.0299999999999994" type="line"/>
      <point x="61.540000000000006" y="-6.7299999999999995"/>
      <point x="97.53" y="-10.0"/>
      <point x="160.72000000000003" y="-10.0" type="curve" smooth="yes"/>
      <point x="322.63" y="-10.0"/>
      <point x="399.29" y="113.85"/>
      <point x="399.29" y="250.66000000000003" type="curve" smooth="yes"/>
      <point x="399.29" y="314.25999999999993"/>
      <point x="375.66" y="360.45"/>
      <point x="335.69999999999993" y="379.03999999999996" type="curve"/>
      <point x="399.31" y="415.97999999999996"/>
      <point x="431.44" y="494.05"/>
      <point x="431.44" y="568.86" type="curve" smooth="yes"/>
      <point x="431.44" y="656.13"/>
      <point x="381.42" y="710.0"/>
      <point x="265.74999999999994" y="710.0" type="curve" smooth="yes"/>
      <point x="233.45000000000002" y="710.0"/>
      <point x="177.79" y="707.17"/>
      <point x="101.93" y="697.4300000000001" type="curve"/>
    </contour>
    <contour>
      <point x="184.77999999999997" y="407.12" type="line"/>
      <point x="213.23" y="589.39" type="line"/>
      <point x="229.45" y="591.8799999999999"/>
      <point x="240.59" y="593.75"/>
      <point x="255.76999999999998" y="593.75" type="curve" smooth="yes"/>
      <point x="291.39" y="593.75"/>
      <point x="307.61999999999995" y="577.9"/>
      <point x="307.61999999999995" y="533.42" type="curve" smooth="yes"/>
      <point x="307.61999999999995" y="463.27"/>
      <point x="273.44" y="407.12"/>
      <point x="230.65" y="407.12" type="curve" smooth="yes"/>
    </contour>
    <contour>
      <point x="167.25999999999996" y="296.78" type="line"/>
      <point x="219.47" y="296.78" type="line" smooth="yes"/>
      <point x="250.61999999999998" y="296.78"/>
      <point x="270.6" y="276.35"/>
      <point x="270.6" y="234.88000000000002" type="curve" smooth="yes"/>
      <point x="270.6" y="158.61"/>
      <point x="238.12" y="105.98"/>
      <point x="177.99000000000004" y="105.98" type="curve" smooth="yes"/>
      <point x="166.55" y="105.98"/>
      <point x="153.4" y="106.63"/>
      <point x="137.36" y="109.38" type="curve"/>
    </contour>
  </outline>
</glyph>
<glyph name="C" format="2">
  <advance width="375.35"/>
  <unicode hex="0043"/>
  <anchor x="192.475" y="0.0" name="bottom"/>
  <anchor x="302.975" y="700.0" name="top"/>
  <outline>
    <contour>
      <point x="222.24999999999997" y="-10.0" type="curve" smooth="yes"/>
      <point x="262.07499999999993" y="-10.0"/>
      <point x="295.325" y="-5.85"/>
      <point x="327.475" y="5.1499999999999995" type="curve"/>
      <point x="321.85" y="120.2" type="line"/>
      <point x="299.87499999999994" y="114.74999999999999"/>
      <point x="274.925" y="110.72499999999998"/>
      <point x="251.92499999999995" y="110.72499999999998" type="curve" smooth="yes"/>
      <point x="187.7" y="110.72499999999998"/>
      <point x="153.95" y="139.5"/>
      <point x="153.95" y="233.40000000000003" type="curve" smooth="yes"/>
      <point x="153.95" y="425.87499999999994"/>
      <point x="213.35" y="589.275"/>
      <point x="313.35" y="589.275" type="curve" smooth="yes"/>
      <point x="339.57500000000005" y="589.275"/>
      <point x="362.52500000000003" y="584.475"/>
      <point x="388.17499999999995" y="575.3749999999999" type="curve"/>
      <point x="427.05" y="684.8750000000001" type="line"/>
      <point x="393.42499999999995" y="702.2499999999999"/>
      <point x="349.9" y="710.0"/>
      <point x="305.74999999999994" y="710.0" type="curve" smooth="yes"/>
      <point x="131.85" y="710.0"/>
      <point x="22.200000000000006" y="509.1"/>
      <point x="22.200000000000006" y="211.12500000000003" type="curve" smooth="yes"/>
      <point x="22.200000000000006" y="59.62500000000001"/>
      <point x="92.45" y="-10.0"/>
    </contour>
  </outline>
</glyph>
<glyph name="D" format="2">
  <advance width="444.5249999999999"/>
  <unicode hex="0044"/>
  <anchor x="170.92500000000004" y="0.0" name="bottom"/>
  <anchor x="232.78647499999997" y="350.0" name="center"/>
  <anchor x="263.825" y="700.0" name="top"/>
  <outline>
    <contour>
      <point x="153.52500000000003" y="-10.0" type="curve" smooth="yes"/>
      <point x="343.45000000000005" y="-10.0"/>
      <point x="442.625" y="187.05"/>
      <point x="442.625" y="465.075" type="curve" smooth="yes"/>
      <point x="442.625" y="637.7249999999998"/>
      <point x="374.4" y="710.0"/>
      <point x="239.8" y="710.0" type="curve" smooth="yes"/>
      <point x="195.15" y="710.0"/>
      <point x="154.325" y="707.4499999999999"/>
      <point x="101.925" y="700.5749999999999" type="curve"/>
      <point x="-9.025" y="1.5749999999999993" type="line"/>
      <point x="40.5" y="-6.050000000000001"/>
      <point x="91.97500000000001" y="-10.0"/>
    </contour>
    <contour>
      <point x="171.52499999999998" y="102.85" type="curve" smooth="yes"/>
      <point x="156.875" y="102.85"/>
      <point x="147.875" y="104.09999999999998"/>
      <point x="135.92499999999998" y="105.475" type="curve"/>
      <point x="212.8" y="588.3249999999999" type="line"/>
      <point x="222.825" y="589.4749999999999"/>
      <point x="233.675" y="590.4"/>
      <point x="246.175" y="590.4" type="curve" smooth="yes"/>
      <point x="291.175" y="590.4"/>
      <point x="313.2" y="555.25"/>
      <point x="313.2" y="464.72499999999997" type="curve" smooth="yes"/>
      <point x="313.2" y="290.9750000000001"/>
      <point x="249.72500000000002" y="102.85"/>
    </contour>
  </outline>
</glyph>
<glyph name="E" format="2">
  <advance width="367.20500000000004"/>
  <unicode hex="0045"/>
  <anchor x="151.48000000000002" y="0.0" name="bottom"/>
  <anchor x="309.19" y="0.0" name="ogonek"/>
  <anchor x="257.93" y="700.0" name="top"/>
  <anchor x="87.49562500000002" y="700.0" name="topleft"/>
  <outline>
    <contour>
      <point x="-8.840000000000002" y="0.0" type="line"/>
      <point x="309.19" y="0.0" type="line"/>
      <point x="328.40000000000003" y="120.355" type="line"/>
      <point x="138.1" y="120.355" type="line"/>
      <point x="165.56500000000003" y="296.28" type="line"/>
      <point x="324.425" y="296.28" type="line"/>
      <point x="343.625" y="409.785" type="line"/>
      <point x="184.03" y="409.785" type="line"/>
      <point x="210.37" y="576.72" type="line"/>
      <point x="389.71000000000004" y="576.72" type="line"/>
      <point x="410.315" y="700.0" type="line"/>
      <point x="101.50999999999999" y="700.0" type="line"/>
    </contour>
  </outline>
</glyph>
<glyph name="F" format="2">
  <advance width="352.90999999999997"/>
  <unicode hex="0046"/>
  <outline>
    <contour>
      <point x="-9.35" y="0.0" type="line"/>
      <point x="119.11" y="0.0" type="line"/>
      <point x="159.73999999999998" y="252.98000000000002" type="line"/>
      <point x="307.56" y="252.98000000000002" type="line"/>
      <point x="327.28999999999996" y="376.69999999999993" type="line"/>
      <point x="178.9" y="376.69999999999993" type="line"/>
      <point x="210.46" y="575.88" type="line"/>
      <point x="387.85" y="575.88" type="line"/>
      <point x="408.40999999999997" y="700.0" type="line"/>
      <point x="101.66" y="700.0" type="line"/>
    </contour>
  </outline>
</glyph>
<glyph name="G" format="2">
  <advance width="415.80000000000007"/>
  <unicode hex="0047"/>
  <anchor x="210.45" y="0.0" name="bottom"/>
  <anchor x="306.72999999999996" y="700.0" name="top"/>
  <outline>
    <contour>
      <point x="214.78" y="-10.0" type="curve" smooth="yes"/>
      <point x="264.36" y="-10.0"/>
      <point x="317.32" y="0.42999999999999955"/>
      <point x="351.98" y="23.709999999999997" type="curve"/>
      <point x="410.56" y="392.21" type="line"/>
      <point x="234.47000000000003" y="392.21" type="line"/>
      <point x="217.61" y="284.8" type="line"/>
      <point x="279.57" y="284.8" type="line"/>
      <point x="251.61" y="109.69999999999999" type="line"/>
      <point x="244.20000000000002" y="106.17999999999998"/>
      <point x="229.51000000000002" y="103.99"/>
      <point x="215.78" y="103.99" type="curve" smooth="yes"/>
      <point x="171.0" y="103.99"/>
      <point x="147.04" y="131.39"/>
      <point x="147.04" y="218.82" type="curve" smooth="yes"/>
      <point x="147.04" y="408.67"/>
      <point x="206.51" y="589.15"/>
      <point x="310.65999999999997" y="589.15" type="curve" smooth="yes"/>
      <point x="347.15" y="589.15"/>
      <point x="376.57" y="579.48"/>
      <point x="402.37000000000006" y="571.1999999999999" type="curve"/>
      <point x="442.03" y="684.7200000000001" type="line"/>
      <point x="402.23" y="702.4"/>
      <point x="355.42999999999995" y="710.0"/>
      <point x="307.39" y="710.0" type="curve" smooth="yes"/>
      <point x="103.57" y="710.0"/>
      <point x="21.009999999999998" y="446.24"/>
      <point x="21.009999999999998" y="211.05" type="curve" smooth="yes"/>
      <point x="21.009999999999998" y="63.300000000000004"/>
      <point x="92.86" y="-10.0"/>
    </contour>
  </outline>
</glyph>
<glyph name="H" format="2">
  <advance width="444.23999999999995"/>
  <unicode hex="0048"/>
  <anchor x="178.59412" y="0.0" name="bottom"/>
  <anchor x="234.18167" y="350.0" name="center"/>
  <anchor x="289.49849" y="700.0" name="top"/>
  <anchor x="86.68849" y="700.0" name="topleft"/>
  <outline>
    <contour>
      <point x="-9.379999999999999" y="0.0" type="line"/>
      <point x="119.64999999999999" y="0.0" type="line"/>
      <point x="159.77" y="255.43999999999997" type="line"/>
      <point x="277.74" y="255.43999999999997" type="line"/>
      <point x="238.11" y="0.0" type="line"/>
      <point x="365.60999999999996" y="0.0" type="line"/>
      <point x="476.89" y="700.0" type="line"/>
      <point x="348.83000000000004" y="700.0" type="line"/>
      <point x="296.98" y="374.96000000000004" type="line"/>
      <point x="178.73999999999998" y="374.96000000000004" type="line"/>
      <point x="230.65999999999997" y="700.0" type="line"/>
      <point x="101.63" y="700.0" type="line"/>
    </contour>
  </outline>
</glyph>
<glyph name="I" format="2">
  <advance width="198.01"/>
  <unicode hex="0049"/>
  <anchor x="55.31304" y="0.0" name="bottom"/>
  <anchor x="121.28763999999998" y="6.3" name="ogonek"/>
  <anchor x="166.22657999999998" y="700.0" name="top"/>
  <anchor x="87.55719" y="700.0" name="topleft"/>
  <outline>
    <contour>
      <point x="-9.379999999999999" y="0.0" type="line"/>
      <point x="119.38" y="0.0" type="line"/>
      <point x="230.65999999999997" y="700.0" type="line"/>
      <point x="101.63" y="700.0" type="line"/>
    </contour>
  </outline>
</glyph>
<glyph name="J" format="2">
  <advance width="315.86"/>
  <unicode hex="004A"/>
  <anchor x="101.10972" y="0.0" name="bottom"/>
  <anchor x="228.64000000000001" y="700.0" name="top"/>
  <outline>
    <contour>
      <point x="-36.51" y="18.199999999999996" type="line"/>
      <point x="-4.0" y="2.3999999999999995"/>
      <point x="35.31" y="-10.0"/>
      <point x="87.53" y="-10.0" type="curve" smooth="yes"/>
      <point x="189.29000000000002" y="-10.0"/>
      <point x="249.09" y="57.74"/>
      <point x="269.26" y="181.68" type="curve" smooth="yes"/>
      <point x="351.74" y="700.0" type="line"/>
      <point x="103.44" y="700.0" type="line"/>
      <point x="84.69000000000001" y="583.49" type="line"/>
      <point x="204.23000000000002" y="583.49" type="line"/>
      <point x="147.69" y="229.17" type="line" smooth="yes"/>
      <point x="134.02" y="143.97"/>
      <point x="108.85" y="122.25999999999999"/>
      <point x="63.519999999999996" y="122.25999999999999" type="curve" smooth="yes"/>
      <point x="44.95" y="122.25999999999999"/>
      <point x="21.04" y="128.24"/>
      <point x="-0.5700000000000005" y="135.43" type="curve"/>
    </contour>
  </outline>
</glyph>
<glyph name="K" format="2">
  <advance width="436.89"/>
  <unicode hex="004B"/>
  <anchor x="193.24999999999997" y="0.0" name="bottom"/>
  <anchor x="284.99" y="700.0" name="top"/>
  <outline>
    <contour>
      <point x="-9.77" y="0.0" type="line"/>
      <point x="119.48000000000002" y="0.0" type="line"/>
      <point x="230.51" y="700.0" type="line"/>
      <point x="101.8" y="700.0" type="line"/>
    </contour>
    <contour>
      <point x="341.53999999999996" y="-9.9" type="curve" smooth="yes"/>
      <point x="356.92999999999995" y="-9.9"/>
      <point x="380.84000000000003" y="-3.9699999999999998"/>
      <point x="388.63" y="-0.18000000000000035" type="curve"/>
      <point x="402.95" y="152.45999999999998" type="line"/>
      <point x="398.88" y="152.57"/>
      <point x="394.52" y="151.93"/>
      <point x="390.09999999999997" y="151.93" type="curve" smooth="yes"/>
      <point x="367.41999999999996" y="151.93"/>
      <point x="341.53" y="164.23999999999998"/>
      <point x="312.49999999999994" y="217.94" type="curve" smooth="yes"/>
      <point x="173.32999999999998" y="475.40999999999997" type="line"/>
      <point x="143.03" y="282.81" type="line"/>
      <point x="247.26999999999998" y="71.52" type="line" smooth="yes"/>
      <point x="274.96000000000004" y="13.040000000000001"/>
      <point x="299.52" y="-9.9"/>
    </contour>
    <contour>
      <point x="249.07" y="278.14000000000004" type="line"/>
      <point x="349.33" y="377.32"/>
      <point x="441.10999999999996" y="509.6099999999999"/>
      <point x="485.06" y="664.66" type="curve"/>
      <point x="377.04" y="704.36" type="line"/>
      <point x="329.08000000000004" y="566.7700000000001"/>
      <point x="259.13999999999993" y="449.30999999999995"/>
      <point x="195.24" y="384.84" type="curve"/>
    </contour>
  </outline>
</glyph>
<glyph name="L" format="2">
  <advance width="342.08"/>
  <unicode hex="004C"/>
  <anchor x="147.08" y="0.0" name="bottom"/>
  <anchor x="179.86167" y="350.0" name="center"/>
  <anchor x="165.86" y="700.0" name="top"/>
  <anchor x="288.57" y="700.0" name="topright"/>
  <outline>
    <contour>
      <point x="-9.649999999999999" y="0.0" type="line"/>
      <point x="287.13" y="0.0" type="line"/>
      <point x="306.58" y="120.99" type="line"/>
      <point x="138.42" y="120.99" type="line"/>
      <point x="230.39" y="700.0" type="line"/>
      <point x="101.63" y="700.0" type="line"/>
    </contour>
  </outline>
</glyph>
<glyph name="M" format="2">
  <advance width="519.77"/>
  <unicode hex="004D"/>
  <outline>
    <contour>
      <point x="-9.53" y="0.0" type="line"/>
      <point x="107.92999999999999" y="0.0" type="line"/>
      <point x="179.7" y="462.13" type="line"/>
      <point x="210.88" y="171.68000000000004" type="line"/>
      <point x="271.8" y="171.68000000000004" type="line"/>
      <point x="396.94" y="459.64" type="line"/>
      <point x="323.44" y="0.0" type="line"/>
      <point x="441.14000000000004" y="0.0" type="line"/>
      <point x="552.4200000000001" y="700.0" type="line"/>
      <point x="410.06" y="700.0" type="line"/>
      <point x="271.85" y="379.79" type="line"/>
      <point x="234.17999999999998" y="700.0" type="line"/>
      <point x="101.63" y="700.0" type="line"/>
    </contour>
  </outline>
</glyph>
<glyph name="N" format="2">
  <advance width="449.0"/>
  <unicode hex="004E"/>
  <anchor x="186.75" y="0.0" name="bottom"/>
  <anchor x="292.05" y="700.0" name="top"/>
  <outline>
    <contour>
      <point x="-9.35" y="0.0" type="line"/>
      <point x="106.15" y="0.0" type="line"/>
      <point x="171.275" y="406.85" type="line"/>
      <point x="243.25" y="-0.30000000000000004" type="line"/>
      <point x="370.3" y="-0.30000000000000004" type="line"/>
      <point x="481.65" y="700.0" type="line"/>
      <point x="366.05" y="700.0" type="line"/>
      <point x="296.775" y="271.5" type="line"/>
      <point x="229.425" y="700.3" type="line"/>
      <point x="101.775" y="700.3" type="line"/>
    </contour>
  </outline>
</glyph>
<glyph name="O" format="2">
  <advance width="452.8999999999999"/>
  <unicode hex="004F"/>
  <note>
8
</note>
  <anchor x="183.39999999999998" y="0.0" name="bottom"/>
  <anchor x="238.54999999999998" y="350.0" name="center"/>
  <anchor x="251.04999999999998" y="2.05" name="ogonek"/>
  <anchor x="293.45" y="700.0" name="top"/>
  <anchor x="88.39999999999999" y="700.0" name="topleft"/>
  <anchor x="391.5" y="697.6999999999999" name="topright"/>
  <outline>
    <contour>
      <point x="194.35000000000002" y="-9.15" type="curve" smooth="yes"/>
      <point x="385.74999999999994" y="-9.15"/>
      <point x="454.3" y="286.65000000000003"/>
      <point x="455.40000000000003" y="497.90000000000003" type="curve" smooth="yes"/>
      <point x="456.2" y="643.4000000000001"/>
      <point x="401.04999999999995" y="709.15"/>
      <point x="282.55000000000007" y="709.15" type="curve" smooth="yes"/>
      <point x="91.15" y="709.15"/>
      <point x="22.6" y="413.34999999999997"/>
      <point x="21.500000000000004" y="202.1" type="curve" smooth="yes"/>
      <point x="20.700000000000003" y="56.59999999999999"/>
      <point x="75.85" y="-9.15"/>
    </contour>
    <contour>
      <point x="203.4" y="117.35" type="curve" smooth="yes"/>
      <point x="170.1" y="117.35"/>
      <point x="151.75" y="134.75"/>
      <point x="151.75" y="196.35" type="curve" smooth="yes"/>
      <point x="151.75" y="307.2"/>
      <point x="199.29999999999998" y="582.65"/>
      <point x="273.65000000000003" y="582.65" type="curve" smooth="yes"/>
      <point x="306.8" y="582.65"/>
      <point x="325.15" y="565.15"/>
      <point x="325.15" y="503.55" type="curve" smooth="yes"/>
      <point x="325.15" y="392.7"/>
      <point x="277.59999999999997" y="117.35"/>
    </contour>
  </outline>
</glyph>
<glyph name="P" format="2">
  <advance width="425.575"/>
  <unicode hex="0050"/>
  <outline>
    <contour>
      <point x="-8.825" y="0.0" type="line"/>
      <point x="119.725" y="0.0" type="line"/>
      <point x="151.45" y="197.75" type="line"/>
      <point x="178.55" y="194.57500000000002"/>
      <point x="187.67499999999998" y="194.5"/>
      <point x="216.575" y="194.5" type="curve" smooth="yes"/>
      <point x="356.75" y="194.5"/>
      <point x="445.525" y="332.125"/>
      <point x="445.59999999999997" y="530.4499999999999" type="curve" smooth="yes"/>
      <point x="445.59999999999997" y="653.2750000000001"/>
      <point x="393.25" y="710.0"/>
      <point x="270.7" y="710.0" type="curve" smooth="yes"/>
      <point x="231.875" y="710.0"/>
      <point x="168.325" y="707.3"/>
      <point x="102.525" y="702.275" type="curve"/>
    </contour>
    <contour>
      <point x="213.77499999999998" y="588.85" type="line"/>
      <point x="232.6" y="591.2249999999999"/>
      <point x="242.85" y="592.3"/>
      <point x="257.55" y="592.3" type="curve" smooth="yes"/>
      <point x="301.65000000000003" y="592.3"/>
      <point x="318.45" y="568.875"/>
      <point x="318.45" y="509.77500000000003" type="curve" smooth="yes"/>
      <point x="318.45" y="411.0"/>
      <point x="275.3" y="312.375"/>
      <point x="209.625" y="312.375" type="curve" smooth="yes"/>
      <point x="197.09999999999997" y="312.375"/>
      <point x="186.5" y="312.925"/>
      <point x="169.84999999999997" y="314.7" type="curve"/>
    </contour>
  </outline>
</glyph>
<glyph name="Q" format="2">
  <advance width="452.49"/>
  <unicode hex="0051"/>
  <note>
14
</note>
  <outline>
    <contour>
      <point x="314.94" y="-171.47" type="curve" smooth="yes"/>
      <point x="334.23" y="-171.47"/>
      <point x="354.3" y="-168.97"/>
      <point x="372.48" y="-163.0" type="curve"/>
      <point x="383.76000000000005" y="-50.17" type="line"/>
      <point x="372.4" y="-54.33"/>
      <point x="358.25" y="-56.629999999999995"/>
      <point x="343.59" y="-56.629999999999995" type="curve" smooth="yes"/>
      <point x="300.51" y="-56.629999999999995"/>
      <point x="268.47999999999996" y="-35.99000000000001"/>
      <point x="265.36" y="15.319999999999999" type="curve"/>
      <point x="159.94000000000003" y="11.870000000000001" type="line"/>
      <point x="161.54" y="-129.26"/>
      <point x="240.79000000000002" y="-171.47"/>
    </contour>
    <component base="O"/>
  </outline>
</glyph>
<glyph name="R" format="2">
  <advance width="436.8999999999999"/>
  <unicode hex="0052"/>
  <anchor x="191.75" y="0.0" name="bottom"/>
  <anchor x="258.45" y="700.0" name="top"/>
  <outline>
    <contour>
      <point x="-9.649999999999999" y="0.0" type="line"/>
      <point x="119.45" y="0.0" type="line"/>
      <point x="156.49999999999997" y="234.60000000000002" type="line"/>
      <point x="171.19999999999996" y="234.45000000000002"/>
      <point x="185.65000000000003" y="234.0"/>
      <point x="212.20000000000002" y="233.75" type="curve"/>
      <point x="218.75000000000003" y="243.00000000000003" type="line"/>
      <point x="350.9" y="243.15000000000003"/>
      <point x="446.79999999999995" y="354.25"/>
      <point x="446.79999999999995" y="524.6499999999999" type="curve" smooth="yes"/>
      <point x="446.79999999999995" y="644.4000000000001"/>
      <point x="384.84999999999997" y="710.0"/>
      <point x="262.15" y="710.0" type="curve" smooth="yes"/>
      <point x="208.25" y="710.0"/>
      <point x="159.8" y="706.3"/>
      <point x="102.15" y="700.65" type="curve"/>
    </contour>
    <contour>
      <point x="340.8" y="-10.0" type="curve" smooth="yes"/>
      <point x="351.75000000000006" y="-10.0"/>
      <point x="376.65" y="-5.95"/>
      <point x="385.54999999999995" y="-1.1000000000000003" type="curve"/>
      <point x="399.34999999999997" y="134.04999999999998" type="line"/>
      <point x="395.4" y="133.35"/>
      <point x="391.45" y="133.35"/>
      <point x="388.44999999999993" y="133.35" type="curve" smooth="yes"/>
      <point x="353.8" y="133.34999999999997"/>
      <point x="325.9" y="163.54999999999998"/>
      <point x="299.1" y="293.45" type="curve"/>
      <point x="187.20000000000002" y="262.69999999999993" type="line"/>
      <point x="240.85" y="15.249999999999998"/>
      <point x="279.09999999999997" y="-10.0"/>
    </contour>
    <contour>
      <point x="214.6" y="343.15000000000003" type="curve" smooth="yes"/>
      <point x="198.9" y="343.15000000000003"/>
      <point x="185.89999999999998" y="344.1500000000001"/>
      <point x="173.7" y="345.6500000000001" type="curve"/>
      <point x="213.55" y="591.0999999999999" type="line"/>
      <point x="233.1" y="593.6999999999999"/>
      <point x="243.29999999999998" y="594.6999999999999"/>
      <point x="258.7" y="594.6999999999999" type="curve" smooth="yes"/>
      <point x="301.24999999999994" y="594.6999999999999"/>
      <point x="316.6" y="567.2"/>
      <point x="316.6" y="521.3" type="curve" smooth="yes"/>
      <point x="316.6" y="418.1"/>
      <point x="271.65000000000003" y="343.15000000000003"/>
    </contour>
  </outline>
</glyph>
<glyph name="S" format="2">
  <advance width="391.87499999999994"/>
  <unicode hex="0053"/>
  <anchor x="157.97500000000002" y="0.0" name="bottom"/>
  <anchor x="271.425" y="700.0" name="top"/>
  <outline>
    <contour>
      <point x="415.40000000000003" y="678.7" type="line"/>
      <point x="379.975" y="697.6"/>
      <point x="331.27500000000003" y="710.0"/>
      <point x="274.45" y="710.0" type="curve" smooth="yes"/>
      <point x="137.775" y="710.0"/>
      <point x="52.875" y="627.6"/>
      <point x="52.875" y="495.55" type="curve" smooth="yes"/>
      <point x="52.875" y="328.02500000000003"/>
      <point x="232.97500000000002" y="286.15"/>
      <point x="232.975" y="191.825" type="curve" smooth="yes"/>
      <point x="232.975" y="144.7"/>
      <point x="201.25" y="109.5"/>
      <point x="142.22500000000002" y="109.5" type="curve" smooth="yes"/>
      <point x="100.32499999999999" y="109.5"/>
      <point x="63.05" y="118.875"/>
      <point x="15.075" y="138.525" type="curve"/>
      <point x="-25.975" y="27.299999999999997" type="line"/>
      <point x="16.725" y="2.9499999999999997"/>
      <point x="75.55" y="-10.0"/>
      <point x="142.52500000000003" y="-10.0" type="curve" smooth="yes"/>
      <point x="279.325" y="-10.0"/>
      <point x="364.22499999999997" y="76.275"/>
      <point x="364.22499999999997" y="199.45000000000002" type="curve" smooth="yes"/>
      <point x="364.37499999999994" y="367.59999999999997"/>
      <point x="187.475" y="413.0"/>
      <point x="187.475" y="505.1" type="curve" smooth="yes"/>
      <point x="187.475" y="560.9250000000001"/>
      <point x="222.35000000000002" y="590.6"/>
      <point x="278.225" y="590.6" type="curve" smooth="yes"/>
      <point x="311.975" y="590.6"/>
      <point x="345.62499999999994" y="584.7"/>
      <point x="376.55" y="570.75" type="curve"/>
    </contour>
  </outline>
</glyph>
<glyph name="T" format="2">
  <advance width="380.24"/>
  <unicode hex="0054"/>
  <anchor x="146.39971999999997" y="0.0" name="bottom"/>
  <anchor x="202.04014" y="350.0" name="center"/>
  <anchor x="257.32658" y="700.0" name="top"/>
  <outline>
    <contour>
      <point x="420.18000000000006" y="583.84" type="line"/>
      <point x="439.56" y="700.0" type="line"/>
      <point x="75.8" y="700.0" type="line"/>
      <point x="56.35" y="583.84" type="line"/>
      <point x="174.15000000000003" y="583.84" type="line"/>
      <point x="81.55000000000001" y="0.0" type="line"/>
      <point x="210.30999999999997" y="0.0" type="line"/>
      <point x="302.84" y="583.84" type="line"/>
    </contour>
  </outline>
</glyph>
<glyph name="U" format="2">
  <advance width="434.98"/>
  <unicode hex="0055"/>
  <anchor x="173.85079999999996" y="0.0" name="bottom"/>
  <anchor x="236.34000000000003" y="0.0" name="ogonek"/>
  <anchor x="284.09909999999996" y="700.0" name="top"/>
  <anchor x="451.82000000000005" y="700.0" name="topright"/>
  <outline>
    <contour>
      <point x="170.07" y="-10.0" type="curve" smooth="yes"/>
      <point x="299.11" y="-10.0"/>
      <point x="367.36999999999995" y="53.1"/>
      <point x="390.12" y="194.14" type="curve" smooth="yes"/>
      <point x="470.86" y="700.0" type="line"/>
      <point x="342.31999999999994" y="700.0" type="line"/>
      <point x="258.75" y="172.44" type="line" smooth="yes"/>
      <point x="252.27000000000004" y="128.2"/>
      <point x="230.58999999999997" y="107.28"/>
      <point x="191.18" y="107.28" type="curve" smooth="yes"/>
      <point x="153.48999999999998" y="107.28"/>
      <point x="136.1" y="128.9"/>
      <point x="142.70999999999998" y="167.13" type="curve" smooth="yes"/>
      <point x="227.26" y="700.0" type="line"/>
      <point x="98.99000000000001" y="700.0" type="line"/>
      <point x="17.740000000000002" y="187.69" type="line" smooth="yes"/>
      <point x="13.650000000000002" y="162.29000000000002"/>
      <point x="12.290000000000001" y="148.23999999999998"/>
      <point x="12.290000000000001" y="132.04" type="curve" smooth="yes"/>
      <point x="12.290000000000001" y="36.86000000000001"/>
      <point x="64.71000000000001" y="-10.0"/>
    </contour>
  </outline>
</glyph>
<glyph name="V" format="2">
  <advance width="431.80499999999995"/>
  <unicode hex="0056"/>
  <outline>
    <contour>
      <point x="250.45499999999998" y="0.0" type="line"/>
      <point x="413.625" y="365.005"/>
      <point x="464.675" y="502.65"/>
      <point x="484.09999999999997" y="672.5" type="curve" smooth="yes"/>
      <point x="484.8" y="682.105"/>
      <point x="485.2" y="690.2299999999999"/>
      <point x="484.505" y="700.0" type="curve"/>
      <point x="342.905" y="700.0" type="line"/>
      <point x="343.475" y="692.625"/>
      <point x="343.98" y="686.155"/>
      <point x="343.98" y="679.025" type="curve" smooth="yes"/>
      <point x="337.155" y="534.95"/>
      <point x="293.29" y="413.96500000000003"/>
      <point x="194.55999999999997" y="133.95" type="curve"/>
      <point x="215.84999999999997" y="700.3299999999999" type="line"/>
      <point x="68.35000000000001" y="700.075" type="line"/>
      <point x="81.98" y="0.0" type="line"/>
    </contour>
  </outline>
</glyph>
<glyph name="W" format="2">
  <advance width="646.1999999999999"/>
  <unicode hex="0057"/>
  <anchor x="275.75" y="0.0" name="bottom"/>
  <anchor x="390.90000000000003" y="700.0" name="top"/>
  <outline>
    <contour>
      <point x="489.95" y="-0.45000000000000007" type="line"/>
      <point x="653.25" y="454.65"/>
      <point x="692.1999999999999" y="577.2500000000001"/>
      <point x="697.5" y="677.75" type="curve" smooth="yes"/>
      <point x="697.5" y="685.4499999999999"/>
      <point x="697.5" y="692.45"/>
      <point x="696.55" y="700.0" type="curve"/>
      <point x="564.95" y="700.0" type="line"/>
      <point x="565.5500000000001" y="692.7499999999999"/>
      <point x="566.0" y="686.4"/>
      <point x="566.0" y="679.5500000000001" type="curve" smooth="yes"/>
      <point x="560.95" y="547.75"/>
      <point x="532.55" y="473.2"/>
      <point x="430.40000000000003" y="154.1" type="curve"/>
      <point x="450.34999999999997" y="647.85" type="line"/>
      <point x="319.34999999999997" y="647.85" type="line"/>
      <point x="280.84999999999997" y="488.1"/>
      <point x="226.95000000000002" y="291.79999999999995"/>
      <point x="179.4" y="155.99999999999997" type="curve"/>
      <point x="204.2" y="700.0" type="line"/>
      <point x="69.35" y="700.0" type="line"/>
      <point x="64.64999999999999" y="-0.45000000000000007" type="line"/>
      <point x="207.5" y="-0.45000000000000007" type="line"/>
      <point x="267.75" y="162.00000000000003"/>
      <point x="316.2" y="307.95"/>
      <point x="351.6" y="428.55000000000007" type="curve"/>
      <point x="339.40000000000003" y="-0.45000000000000007" type="line"/>
    </contour>
  </outline>
</glyph>
<glyph name="X" format="2">
  <advance width="445.4"/>
  <unicode hex="0058"/>
  <outline>
    <contour>
      <point x="269.45" y="-1.9" type="line"/>
      <point x="406.25" y="-0.10000000000000009" type="line"/>
      <point x="326.59999999999997" y="337.65" type="line"/>
      <point x="421.45" y="528.0999999999999"/>
      <point x="481.49999999999994" y="616.0999999999999"/>
      <point x="487.19999999999993" y="700.2" type="curve"/>
      <point x="353.75" y="700.8" type="line"/>
      <point x="350.2" y="619.65"/>
      <point x="305.05" y="539.75"/>
      <point x="251.05" y="438.59999999999997" type="curve"/>
      <point x="203.9" y="702.5" type="line"/>
      <point x="71.7" y="700.7" type="line"/>
      <point x="139.45" y="365.20000000000005" type="line"/>
      <point x="52.95000000000001" y="211.15"/>
      <point x="-18.200000000000003" y="104.35000000000001"/>
      <point x="-20.599999999999998" y="0.0" type="curve"/>
      <point x="116.44999999999999" y="0.0" type="line"/>
      <point x="118.85" y="89.25000000000001"/>
      <point x="155.25" y="154.5"/>
      <point x="216.2" y="265.45" type="curve"/>
    </contour>
  </outline>
</glyph>
<glyph name="Y" format="2">
  <advance width="416.60999999999996"/>
  <unicode hex="0059"/>
  <anchor x="165.11" y="0.0" name="bottom"/>
  <anchor x="276.92" y="700.0" name="top"/>
  <anchor x="90.72" y="700.0" name="topleft"/>
  <outline>
    <contour>
      <point x="97.99000000000001" y="0.0" type="line"/>
      <point x="224.54999999999998" y="0.0" type="line"/>
      <point x="263.96" y="240.91000000000003" type="line"/>
      <point x="363.45" y="390.15999999999997"/>
      <point x="424.53000000000003" y="514.0799999999999"/>
      <point x="473.17999999999995" y="665.49" type="curve" smooth="yes"/>
      <point x="476.15" y="676.81"/>
      <point x="479.88" y="689.05"/>
      <point x="482.83" y="700.62" type="curve"/>
      <point x="336.06" y="701.75" type="line"/>
      <point x="334.51" y="691.0699999999999"/>
      <point x="332.39" y="680.0099999999999"/>
      <point x="330.19" y="669.37" type="curve" smooth="yes"/>
      <point x="306.11" y="561.29"/>
      <point x="276.71999999999997" y="464.49999999999994"/>
      <point x="222.03" y="362.49" type="curve"/>
      <point x="216.03" y="701.2800000000001" type="line"/>
      <point x="67.35" y="700.1099999999999" type="line"/>
      <point x="136.81" y="240.91000000000003" type="line"/>
    </contour>
  </outline>
</glyph>
<glyph name="Z" format="2">
  <advance width="388.75"/>
  <unicode hex="005A"/>
  <anchor x="152.0" y="0.0" name="bottom"/>
  <anchor x="205.6" y="350.0" name="center"/>
  <anchor x="261.40000000000003" y="700.0" name="top"/>
  <outline>
    <contour>
      <point x="-29.9" y="0.0" type="line"/>
      <point x="330.8" y="0.0" type="line"/>
      <point x="350.65000000000003" y="117.75" type="line"/>
      <point x="127.84999999999998" y="117.75" type="line"/>
      <point x="417.65" y="579.3000000000001" type="line"/>
      <point x="436.8" y="700.0" type="line"/>
      <point x="94.89999999999999" y="700.0" type="line"/>
      <point x="75.5" y="582.2500000000001" type="line"/>
      <point x="280.25000000000006" y="582.2500000000001" type="line"/>
      <point x="-11.150000000000002" y="117.6" type="line"/>
    </contour>
  </outline>
</glyph>
<glyph name="bracketleft" format="2">
  <advance width="243.11"/>
  <unicode hex="005B"/>
  <outline>
    <contour>
      <point x="78.14" y="-100.3" type="line"/>
      <point x="196.12" y="630.33" type="line"/>
      <point x="288.47" y="630.33" type="line"/>
      <point x="306.87" y="740.0" type="line"/>
      <point x="110.27000000000001" y="740.0" type="line"/>
      <point x="-44.169999999999995" y="-210.0" type="line"/>
      <point x="151.46" y="-210.0" type="line"/>
      <point x="170.48999999999998" y="-100.3" type="line"/>
    </contour>
  </outline>
</glyph>
<glyph name="backslash" format="2">
  <advance width="329.62"/>
  <unicode hex="005C"/>
  <outline>
    <contour>
      <point x="177.51999999999998" y="740.0" type="line"/>
      <point x="72.73" y="740.0" type="line"/>
      <point x="189.01000000000002" y="-210.0" type="line"/>
      <point x="293.16999999999996" y="-210.0" type="line"/>
    </contour>
  </outline>
</glyph>
<glyph name="bracketright" format="2">
  <advance width="243.11"/>
  <unicode hex="005D"/>
  <outline>
    <contour>
      <point x="-48.06" y="-100.3" type="line"/>
      <point x="-66.39" y="-210.0" type="line"/>
      <point x="128.94" y="-210.0" type="line"/>
      <point x="284.35" y="740.0" type="line"/>
      <point x="88.02000000000001" y="740.0" type="line"/>
      <point x="68.99" y="630.3" type="line"/>
      <point x="161.34" y="630.3" type="line"/>
      <point x="42.73" y="-100.3" type="line"/>
    </contour>
  </outline>
</glyph>
<glyph name="asciicircum" format="2">
  <advance width="402.96"/>
  <unicode hex="005E"/>
  <outline>
    <contour>
      <point x="42.03" y="250.20999999999998" type="line"/>
      <point x="133.67999999999998" y="250.20999999999998" type="line"/>
      <point x="246.48" y="563.5200000000001" type="line"/>
      <point x="262.53" y="250.20999999999998" type="line"/>
      <point x="353.49" y="250.20999999999998" type="line"/>
      <point x="324.34000000000003" y="703.0" type="line"/>
      <point x="207.59000000000003" y="703.0" type="line"/>
    </contour>
  </outline>
</glyph>
<glyph name="underscore" format="2">
  <advance width="593.56"/>
  <unicode hex="005F"/>
  <outline>
    <contour>
      <point x="-71.31" y="-187.17" type="line"/>
      <point x="516.81" y="-187.17" type="line"/>
      <point x="537.87" y="-63.63" type="line"/>
      <point x="-50.25000000000001" y="-63.63" type="line"/>
    </contour>
  </outline>
</glyph>
<glyph name="a" format="2">
  <advance width="407.75"/>
  <unicode hex="0061"/>
  <note>
15
</note>
  <anchor x="167.02500000000003" y="0.0" name="bottom"/>
  <anchor x="368.9" y="9.1" name="ogonek"/>
  <anchor x="248.25" y="544.0" name="top"/>
  <outline>
    <contour>
      <point x="297.1500000000001" y="-10.0" type="curve" smooth="yes"/>
      <point x="323.55" y="-10.0"/>
      <point x="352.42500000000007" y="-2.0500000000000007"/>
      <point x="368.8" y="9.099999999999998" type="curve"/>
      <point x="381.275" y="117.3" type="line"/>
      <point x="375.40000000000003" y="115.09999999999998"/>
      <point x="369.47499999999997" y="114.27499999999998"/>
      <point x="364.575" y="114.27499999999998" type="curve" smooth="yes"/>
      <point x="352.67499999999995" y="114.27499999999998"/>
      <point x="348.92499999999995" y="120.175"/>
      <point x="348.92499999999995" y="133.125" type="curve" smooth="yes"/>
      <point x="348.92499999999995" y="139.55"/>
      <point x="353.79999999999995" y="168.17499999999995"/>
      <point x="410.4" y="522.6500000000001" type="curve"/>
      <point x="368.875" y="539.7249999999999"/>
      <point x="312.575" y="554.0"/>
      <point x="255.89999999999995" y="554.0" type="curve" smooth="yes"/>
      <point x="107.175" y="554.0"/>
      <point x="11.549999999999999" y="411.92499999999995"/>
      <point x="11.549999999999999" y="155.87500000000003" type="curve" smooth="yes"/>
      <point x="11.549999999999999" y="49.44999999999999"/>
      <point x="54.225" y="-10.0"/>
      <point x="123.55" y="-10.0" type="curve" smooth="yes"/>
      <point x="162.67499999999998" y="-10.0"/>
      <point x="193.74999999999997" y="4.6"/>
      <point x="220.84999999999997" y="32.025" type="curve"/>
      <point x="236.575" y="3.3000000000000003"/>
      <point x="260.7" y="-10.0"/>
    </contour>
    <contour>
      <point x="219.575" y="125.87499999999999" type="line"/>
      <point x="208.575" y="118.725"/>
      <point x="194.17499999999998" y="113.85"/>
      <point x="181.1" y="113.85" type="curve" smooth="yes"/>
      <point x="159.45" y="113.85"/>
      <point x="145.225" y="134.25"/>
      <point x="145.225" y="175.175" type="curve" smooth="yes"/>
      <point x="145.225" y="323.04999999999995"/>
      <point x="189.09999999999997" y="438.4"/>
      <point x="241.22500000000002" y="438.4" type="curve" smooth="yes"/>
      <point x="251.025" y="438.4"/>
      <point x="260.1" y="437.025"/>
      <point x="268.1" y="433.15000000000003" type="curve"/>
    </contour>
  </outline>
</glyph>
<glyph name="b" format="2">
  <advance width="401.27"/>
  <unicode hex="0062"/>
  <note>
12
</note>
  <outline>
    <contour>
      <point x="234.18499999999997" y="740.0" type="line"/>
      <point x="106.51" y="740.0" type="line"/>
      <point x="-8.029999999999998" y="15.36" type="line"/>
      <point x="23.955000000000002" y="2.9049999999999985"/>
      <point x="71.455" y="-10.0"/>
      <point x="136.255" y="-10.0" type="curve" smooth="yes"/>
      <point x="315.06499999999994" y="-10.0"/>
      <point x="391.75500000000005" y="179.12"/>
      <point x="390.53" y="380.68" type="curve" smooth="yes"/>
      <point x="390.005" y="499.21"/>
      <point x="353.125" y="554.0"/>
      <point x="283.305" y="554.0" type="curve" smooth="yes"/>
      <point x="254.84" y="554.0"/>
      <point x="228.02" y="544.51"/>
      <point x="200.075" y="524.92" type="curve"/>
    </contour>
    <contour>
      <point x="223.115" y="429.045" type="curve" smooth="yes"/>
      <point x="249.98000000000005" y="429.045"/>
      <point x="260.23" y="403.04499999999996"/>
      <point x="260.23" y="365.78000000000003" type="curve" smooth="yes"/>
      <point x="260.23" y="232.47"/>
      <point x="219.825" y="103.40499999999999"/>
      <point x="161.67499999999998" y="103.40499999999999" type="curve" smooth="yes"/>
      <point x="152.17000000000002" y="103.40499999999999"/>
      <point x="142.5" y="105.045"/>
      <point x="134.625" y="108.22" type="curve"/>
      <point x="183.07500000000002" y="415.98" type="line"/>
      <point x="195.01999999999998" y="423.84000000000003"/>
      <point x="210.88500000000002" y="429.045"/>
    </contour>
  </outline>
</glyph>
<glyph name="c" format="2">
  <advance width="332.6"/>
  <unicode hex="0063"/>
  <note>
10
</note>
  <anchor x="157.39999999999998" y="0.0" name="bottom"/>
  <anchor x="245.6" y="544.0" name="top"/>
  <outline>
    <contour>
      <point x="172.94999999999996" y="-10.0" type="curve" smooth="yes"/>
      <point x="210.99999999999997" y="-10.0"/>
      <point x="256.40000000000003" y="-2.25"/>
      <point x="287.05" y="9.649999999999999" type="curve"/>
      <point x="273.90000000000003" y="123.99999999999999" type="line"/>
      <point x="252.49999999999997" y="119.65"/>
      <point x="232.1" y="117.35000000000001"/>
      <point x="209.49999999999997" y="117.35000000000001" type="curve" smooth="yes"/>
      <point x="165.75" y="117.35000000000001"/>
      <point x="144.85" y="151.79999999999998"/>
      <point x="144.85" y="204.95" type="curve" smooth="yes"/>
      <point x="144.85" y="318.35"/>
      <point x="188.39999999999998" y="426.50000000000006"/>
      <point x="256.15" y="426.50000000000006" type="curve" smooth="yes"/>
      <point x="278.50000000000006" y="426.50000000000006"/>
      <point x="297.50000000000006" y="424.15"/>
      <point x="321.3" y="416.20000000000005" type="curve"/>
      <point x="363.29999999999995" y="538.2999999999998" type="line"/>
      <point x="334.65000000000003" y="548.55"/>
      <point x="297.7999999999999" y="554.0"/>
      <point x="258.54999999999995" y="554.0" type="curve" smooth="yes"/>
      <point x="93.75" y="554.0"/>
      <point x="12.149999999999999" y="393.15000000000003"/>
      <point x="12.149999999999999" y="172.0" type="curve" smooth="yes"/>
      <point x="12.149999999999999" y="57.400000000000006"/>
      <point x="68.6" y="-10.0"/>
    </contour>
  </outline>
</glyph>
<glyph name="d" format="2">
  <advance width="406.15"/>
  <unicode hex="0064"/>
  <note>
17
</note>
  <anchor x="178.02499999999998" y="0.0" name="bottom"/>
  <anchor x="205.02499999999998" y="300.575" name="center"/>
  <anchor x="262.6" y="740.0" name="top"/>
  <anchor x="476.975" y="740.0" name="topright"/>
  <outline>
    <contour>
      <point x="295.12499999999994" y="-10.0" type="curve" smooth="yes"/>
      <point x="319.37499999999994" y="-10.0"/>
      <point x="348.77500000000003" y="-2.9000000000000004"/>
      <point x="366.525" y="9.099999999999998" type="curve"/>
      <point x="378.84999999999997" y="117.3" type="line"/>
      <point x="373.04999999999995" y="115.325"/>
      <point x="367.20000000000005" y="114.27499999999998"/>
      <point x="362.17500000000007" y="114.27499999999998" type="curve" smooth="yes"/>
      <point x="350.87499999999994" y="114.27499999999998"/>
      <point x="347.27500000000003" y="119.8"/>
      <point x="347.27500000000003" y="130.125" type="curve" smooth="yes"/>
      <point x="347.27500000000003" y="145.27499999999998"/>
      <point x="414.675" y="564.575"/>
      <point x="442.35" y="740.0" type="curve"/>
      <point x="315.15000000000003" y="740.0" type="line"/>
      <point x="283.025" y="540.0500000000001" type="line"/>
      <point x="263.79999999999995" y="549.3000000000001"/>
      <point x="243.175" y="554.0"/>
      <point x="219.64999999999998" y="554.0" type="curve" smooth="yes"/>
      <point x="103.75" y="554.0"/>
      <point x="12.0" y="398.84999999999997"/>
      <point x="12.0" y="164.77499999999998" type="curve" smooth="yes"/>
      <point x="12.0" y="46.35"/>
      <point x="53.65" y="-10.0"/>
      <point x="124.125" y="-10.0" type="curve" smooth="yes"/>
      <point x="162.5" y="-10.0"/>
      <point x="195.84999999999997" y="9.575000000000001"/>
      <point x="218.57500000000002" y="32.775" type="curve"/>
      <point x="234.52499999999998" y="3.6999999999999997"/>
      <point x="258.04999999999995" y="-10.0"/>
    </contour>
    <contour>
      <point x="178.525" y="114.22499999999998" type="curve" smooth="yes"/>
      <point x="155.95000000000002" y="114.22499999999998"/>
      <point x="142.72499999999997" y="135.65"/>
      <point x="142.72499999999997" y="167.64999999999998" type="curve" smooth="yes"/>
      <point x="142.72499999999997" y="299.70000000000005"/>
      <point x="181.525" y="438.4"/>
      <point x="238.90000000000003" y="438.4" type="curve" smooth="yes"/>
      <point x="248.92499999999998" y="438.4"/>
      <point x="256.8" y="436.875"/>
      <point x="266.2" y="433.82500000000005" type="curve"/>
      <point x="217.525" y="126.39999999999999" type="line"/>
      <point x="206.52499999999998" y="118.95"/>
      <point x="192.17499999999998" y="114.22499999999998"/>
    </contour>
  </outline>
</glyph>
<glyph name="e" format="2">
  <advance width="373.00000000000006"/>
  <unicode hex="0065"/>
  <note>
14 points
</note>
  <anchor x="177.1" y="0.0" name="bottom"/>
  <anchor x="266.80000000000007" y="0.7000000000000002" name="ogonek"/>
  <anchor x="245.50000000000003" y="543.8999999999997" name="top"/>
  <outline>
    <contour>
      <point x="111.95" y="288.34999999999997" type="curve"/>
      <point x="92.6" y="200.54999999999995" type="line"/>
      <point x="130.29999999999998" y="199.6"/>
      <point x="169.20000000000002" y="205.85000000000002"/>
      <point x="206.89999999999998" y="217.35" type="curve" smooth="yes"/>
      <point x="312.1499999999999" y="250.15000000000006"/>
      <point x="382.94999999999993" y="331.1"/>
      <point x="382.94999999999993" y="433.55000000000007" type="curve" smooth="yes"/>
      <point x="382.94999999999993" y="504.40000000000003"/>
      <point x="338.85" y="553.3000000000001"/>
      <point x="252.94999999999996" y="553.3000000000001" type="curve" smooth="yes"/>
      <point x="94.40000000000002" y="553.3000000000001"/>
      <point x="13.2" y="387.35"/>
      <point x="13.2" y="189.9" type="curve" smooth="yes"/>
      <point x="13.2" y="61.9"/>
      <point x="72.89999999999999" y="-10.0"/>
      <point x="182.75" y="-10.0" type="curve" smooth="yes"/>
      <point x="228.35" y="-10.0"/>
      <point x="280.70000000000005" y="-0.15000000000000002"/>
      <point x="323.4" y="21.95" type="curve"/>
      <point x="303.40000000000003" y="139.0" type="line"/>
      <point x="264.65" y="122.24999999999999"/>
      <point x="230.0" y="115.55000000000001"/>
      <point x="202.29999999999998" y="115.55000000000001" type="curve" smooth="yes"/>
      <point x="158.55" y="115.55000000000001"/>
      <point x="135.8" y="136.85"/>
      <point x="136.6" y="214.10000000000002" type="curve" smooth="yes"/>
      <point x="138.0" y="352.54999999999995"/>
      <point x="182.50000000000003" y="440.85"/>
      <point x="234.45000000000002" y="440.55" type="curve" smooth="yes"/>
      <point x="253.25" y="440.55"/>
      <point x="262.95" y="431.55000000000007"/>
      <point x="262.95" y="407.3500000000001" type="curve" smooth="yes"/>
      <point x="262.54999999999995" y="362.6499999999999"/>
      <point x="231.05" y="321.79999999999995"/>
      <point x="179.75000000000003" y="300.74999999999994" type="curve" smooth="yes"/>
      <point x="159.85" y="292.7"/>
      <point x="132.45" y="287.6"/>
    </contour>
  </outline>
</glyph>
<glyph name="f" format="2">
  <advance width="261.11"/>
  <unicode hex="0066"/>
  <outline>
    <contour>
      <point x="-33.63" y="-220.0" type="curve" smooth="yes"/>
      <point x="66.47" y="-220.0"/>
      <point x="116.53999999999999" y="-154.38000000000002"/>
      <point x="138.12" y="-18.360000000000003" type="curve" smooth="yes"/>
      <point x="204.26999999999998" y="399.62" type="line"/>
      <point x="275.18" y="399.62" type="line"/>
      <point x="293.23" y="512.35" type="line"/>
      <point x="222.25" y="512.35" type="line"/>
      <point x="235.45999999999998" y="597.7599999999999"/>
      <point x="255.73" y="624.6"/>
      <point x="293.37999999999994" y="624.6" type="curve" smooth="yes"/>
      <point x="308.65000000000003" y="624.6"/>
      <point x="326.0" y="620.8499999999999"/>
      <point x="341.58" y="615.6" type="curve"/>
      <point x="378.22999999999996" y="726.35" type="line"/>
      <point x="349.20000000000005" y="740.03"/>
      <point x="318.74000000000007" y="750.0"/>
      <point x="276.67999999999995" y="750.0" type="curve" smooth="yes"/>
      <point x="182.71999999999997" y="750.0"/>
      <point x="118.41" y="674.4399999999999"/>
      <point x="94.65" y="512.35" type="curve"/>
      <point x="43.75" y="504.77000000000004" type="line"/>
      <point x="26.209999999999997" y="399.62" type="line"/>
      <point x="76.60000000000001" y="399.62" type="line"/>
      <point x="11.71" y="-13.310000000000006" type="line" smooth="yes"/>
      <point x="2.66" y="-69.18"/>
      <point x="-14.850000000000001" y="-94.71000000000001"/>
      <point x="-46.58" y="-94.71000000000001" type="curve" smooth="yes"/>
      <point x="-56.06" y="-94.71000000000001"/>
      <point x="-66.76" y="-93.94000000000001"/>
      <point x="-81.17000000000002" y="-89.02000000000001" type="curve"/>
      <point x="-115.12" y="-204.58" type="line"/>
      <point x="-87.89" y="-215.03"/>
      <point x="-61.67000000000001" y="-220.0"/>
    </contour>
  </outline>
</glyph>
<glyph name="g" format="2">
  <advance width="403.54999999999995"/>
  <unicode hex="0067"/>
  <note>
16
</note>
  <anchor x="119.7" y="-216.6" name="bottom"/>
  <anchor x="247.20000000000002" y="544.0" name="top"/>
  <outline>
    <contour>
      <point x="-21.3" y="-187.55" type="line"/>
      <point x="26.100000000000005" y="-208.95000000000002"/>
      <point x="78.6" y="-220.0"/>
      <point x="120.9" y="-220.0" type="curve" smooth="yes"/>
      <point x="235.89999999999998" y="-220.0"/>
      <point x="301.25" y="-154.05000000000004"/>
      <point x="324.6" y="-6.7500000000000036" type="curve" smooth="yes"/>
      <point x="411.3" y="530.2" type="line"/>
      <point x="381.45" y="542.7"/>
      <point x="319.35" y="554.0"/>
      <point x="269.0" y="554.0" type="curve" smooth="yes"/>
      <point x="91.00000000000001" y="554.0"/>
      <point x="11.5" y="390.45"/>
      <point x="11.5" y="160.24999999999997" type="curve" smooth="yes"/>
      <point x="11.5" y="68.64999999999998"/>
      <point x="46.0" y="7.549999999999997"/>
      <point x="118.24999999999999" y="7.549999999999997" type="curve" smooth="yes"/>
      <point x="141.45" y="7.549999999999997"/>
      <point x="175.84999999999997" y="15.499999999999995"/>
      <point x="204.04999999999998" y="32.35" type="curve"/>
      <point x="198.8" y="-10.050000000000006" type="line" smooth="yes"/>
      <point x="189.89999999999998" y="-77.24999999999999"/>
      <point x="161.35000000000002" y="-97.95"/>
      <point x="121.19999999999999" y="-97.95" type="curve" smooth="yes"/>
      <point x="92.6" y="-97.95"/>
      <point x="47.1" y="-87.49999999999999"/>
      <point x="16.2" y="-75.60000000000001" type="curve"/>
    </contour>
    <contour>
      <point x="268.3" y="438.0" type="curve"/>
      <point x="219.64999999999998" y="131.99999999999997" type="line"/>
      <point x="209.4" y="124.99999999999997"/>
      <point x="193.65" y="119.79999999999998"/>
      <point x="182.7" y="119.79999999999998" type="curve" smooth="yes"/>
      <point x="158.45000000000002" y="119.79999999999998"/>
      <point x="144.5" y="139.25"/>
      <point x="144.5" y="176.15" type="curve" smooth="yes"/>
      <point x="144.5" y="302.45000000000005"/>
      <point x="184.0" y="443.2"/>
      <point x="241.6" y="443.2" type="curve" smooth="yes"/>
      <point x="251.75000000000003" y="443.2"/>
      <point x="260.05" y="440.95000000000005"/>
    </contour>
  </outline>
</glyph>
<glyph name="h" format="2">
  <advance width="403.1"/>
  <unicode hex="0068"/>
  <note>
16
</note>
  <anchor x="159.63000000000002" y="0.0" name="bottom"/>
  <anchor x="216.92524" y="371.75" name="center"/>
  <anchor x="273.76" y="740.0" name="top"/>
  <outline>
    <contour>
      <point x="343.86499999999995" y="131.015" type="curve" smooth="yes"/>
      <point x="343.86499999999995" y="148.50000000000003"/>
      <point x="394.735" y="431.9699999999999"/>
      <point x="394.735" y="461.88" type="curve" smooth="yes"/>
      <point x="394.735" y="518.6600000000001"/>
      <point x="366.2200000000001" y="554.0"/>
      <point x="306.02" y="554.0" type="curve" smooth="yes"/>
      <point x="268.465" y="554.0"/>
      <point x="237.545" y="542.41"/>
      <point x="197.95000000000002" y="515.225" type="curve"/>
      <point x="234.25499999999997" y="740.0" type="line"/>
      <point x="106.45" y="740.0" type="line"/>
      <point x="-11.364999999999997" y="0.0" type="line"/>
      <point x="116.48" y="0.0" type="line"/>
      <point x="182.75500000000002" y="413.85" type="line"/>
      <point x="198.545" y="424.04999999999995"/>
      <point x="216.60999999999999" y="430.535"/>
      <point x="230.78" y="430.535" type="curve" smooth="yes"/>
      <point x="252.07000000000002" y="430.535"/>
      <point x="258.93000000000006" y="418.475"/>
      <point x="258.93000000000006" y="402.0649999999999" type="curve" smooth="yes"/>
      <point x="258.93000000000006" y="381.41"/>
      <point x="209.135" y="107.13"/>
      <point x="209.135" y="69.68499999999999" type="curve" smooth="yes"/>
      <point x="209.135" y="24.53"/>
      <point x="242.32500000000002" y="-10.0"/>
      <point x="294.495" y="-10.0" type="curve" smooth="yes"/>
      <point x="318.645" y="-10.0"/>
      <point x="343.7950000000001" y="-3.0149999999999997"/>
      <point x="363.62999999999994" y="8.924999999999999" type="curve"/>
      <point x="376.35" y="117.82999999999998" type="line"/>
      <point x="370.305" y="115.63"/>
      <point x="364.79" y="115.065"/>
      <point x="360.98" y="115.065" type="curve" smooth="yes"/>
      <point x="349.54" y="115.065"/>
      <point x="343.86499999999995" y="119.97"/>
    </contour>
  </outline>
</glyph>
<glyph name="i" format="2">
  <advance width="193.82999999999998"/>
  <unicode hex="0069"/>
  <note>
Ajuster pts sur points
8
</note>
  <anchor x="53.11108" y="0.0" name="bottom"/>
  <anchor x="117.11999999999999" y="0.0" name="ogonek"/>
  <anchor x="139.24892" y="544.0" name="top"/>
  <outline>
    <contour>
      <point x="-10.319999999999997" y="0.0" type="line"/>
      <point x="117.11999999999999" y="0.0" type="line"/>
      <point x="203.14999999999998" y="544.0" type="line"/>
      <point x="75.58" y="544.0" type="line"/>
    </contour>
    <contour>
      <point x="175.87" y="766.0" type="curve" smooth="yes"/>
      <point x="112.41" y="766.0"/>
      <point x="88.39" y="716.6"/>
      <point x="87.55" y="659.8499999999999" type="curve" smooth="yes"/>
      <point x="87.28" y="620.03"/>
      <point x="108.34" y="601.1700000000001"/>
      <point x="148.47" y="601.1700000000001" type="curve" smooth="yes"/>
      <point x="210.75" y="601.1700000000001"/>
      <point x="235.91" y="650.85"/>
      <point x="236.78" y="708.0500000000001" type="curve" smooth="yes"/>
      <point x="237.04999999999998" y="747.77"/>
      <point x="215.45000000000002" y="766.0"/>
    </contour>
  </outline>
</glyph>
<glyph name="j" format="2">
  <advance width="199.10999999999999"/>
  <unicode hex="006A"/>
  <note>
idem /i
12
</note>
  <outline>
    <contour>
      <point x="181.22" y="766.0" type="curve" smooth="yes"/>
      <point x="117.68999999999998" y="766.0"/>
      <point x="93.8" y="716.6"/>
      <point x="92.96" y="659.8499999999999" type="curve" smooth="yes"/>
      <point x="92.69" y="620.03"/>
      <point x="114.39" y="601.1700000000001"/>
      <point x="154.51999999999998" y="601.1700000000001" type="curve" smooth="yes"/>
      <point x="216.08" y="601.1700000000001"/>
      <point x="241.19999999999996" y="650.85"/>
      <point x="242.07" y="708.0500000000001" type="curve" smooth="yes"/>
      <point x="242.34" y="747.77"/>
      <point x="220.79999999999998" y="766.0"/>
    </contour>
    <contour>
      <point x="209.2" y="544.0" type="line"/>
      <point x="80.93" y="544.0" type="line"/>
      <point x="-7.609999999999998" y="-11.540000000000003" type="line" smooth="yes"/>
      <point x="-16.37" y="-65.64999999999999"/>
      <point x="-32.769999999999996" y="-94.71000000000001"/>
      <point x="-64.75" y="-94.71000000000001" type="curve" smooth="yes"/>
      <point x="-74.85000000000001" y="-94.71000000000001"/>
      <point x="-85.75999999999999" y="-94.04"/>
      <point x="-99.61" y="-89.07000000000001" type="curve"/>
      <point x="-130.86999999999998" y="-206.87" type="line"/>
      <point x="-103.63" y="-216.57"/>
      <point x="-72.16" y="-220.0"/>
      <point x="-50.25" y="-220.0" type="curve" smooth="yes"/>
      <point x="53.87" y="-220.0"/>
      <point x="97.65999999999998" y="-154.01000000000002"/>
      <point x="120.00999999999999" y="-12.690000000000005" type="curve" smooth="yes"/>
    </contour>
  </outline>
</glyph>
<glyph name="k" format="2">
  <advance width="385.54999999999995"/>
  <unicode hex="006B"/>
  <anchor x="167.70000000000002" y="0.0" name="bottom"/>
  <anchor x="170.89999999999998" y="740.0" name="top"/>
  <outline>
    <contour>
      <point x="-10.55" y="0.0" type="line"/>
      <point x="117.39999999999999" y="0.0" type="line"/>
      <point x="234.65" y="740.0" type="line"/>
      <point x="106.44999999999999" y="740.0" type="line"/>
    </contour>
    <contour>
      <point x="301.7" y="-10.0" type="curve" smooth="yes"/>
      <point x="314.84999999999997" y="-10.0"/>
      <point x="327.9" y="-8.45"/>
      <point x="342.20000000000005" y="-3.0" type="curve"/>
      <point x="361.05" y="133.54999999999998" type="line"/>
      <point x="353.95" y="132.95"/>
      <point x="348.15" y="133.25"/>
      <point x="342.7" y="134.1" type="curve" smooth="yes"/>
      <point x="316.15" y="138.04999999999998"/>
      <point x="292.65" y="157.15"/>
      <point x="243.20000000000002" y="245.9" type="curve" smooth="yes"/>
      <point x="165.35" y="384.49999999999994" type="line"/>
      <point x="135.10000000000002" y="215.5" type="line"/>
      <point x="191.79999999999998" y="99.5" type="line" smooth="yes"/>
      <point x="227.70000000000002" y="25.400000000000002"/>
      <point x="257.5" y="-10.0"/>
    </contour>
    <contour>
      <point x="232.29999999999998" y="236.60000000000002" type="line"/>
      <point x="315.04999999999995" y="315.8"/>
      <point x="387.84999999999997" y="434.2"/>
      <point x="418.85" y="541.6" type="curve"/>
      <point x="293.75" y="554.0" type="line"/>
      <point x="265.59999999999997" y="446.99999999999994"/>
      <point x="223.0" y="382.84999999999997"/>
      <point x="166.64999999999998" y="322.95" type="curve"/>
    </contour>
  </outline>
</glyph>
<glyph name="l" format="2">
  <advance width="207.21"/>
  <unicode hex="006C"/>
  <anchor x="83.88000000000001" y="0.0" name="bottom"/>
  <anchor x="119.32042" y="371.75" name="center"/>
  <anchor x="170.14000000000001" y="740.0" name="top"/>
  <anchor x="268.7" y="740.0" name="topright"/>
  <outline>
    <contour>
      <point x="106.44000000000001" y="740.0" type="line"/>
      <point x="6.980000000000002" y="111.55" type="line" smooth="yes"/>
      <point x="5.040000000000001" y="99.06"/>
      <point x="3.7400000000000007" y="85.16999999999999"/>
      <point x="3.7400000000000007" y="74.36999999999999" type="curve" smooth="yes"/>
      <point x="3.7400000000000007" y="21.669999999999998"/>
      <point x="30.71" y="-10.0"/>
      <point x="87.66" y="-10.0" type="curve" smooth="yes"/>
      <point x="115.53" y="-10.0"/>
      <point x="148.5" y="-1.7300000000000004"/>
      <point x="169.40999999999997" y="10.749999999999998" type="curve"/>
      <point x="182.03999999999996" y="120.22999999999999" type="line"/>
      <point x="172.28000000000003" y="117.41"/>
      <point x="164.3" y="116.33999999999999"/>
      <point x="158.14" y="116.33999999999999" type="curve" smooth="yes"/>
      <point x="144.4" y="116.33999999999999"/>
      <point x="139.39999999999998" y="123.34"/>
      <point x="139.39999999999998" y="136.21" type="curve" smooth="yes"/>
      <point x="139.39999999999998" y="143.51999999999998"/>
      <point x="140.96" y="152.85"/>
      <point x="142.86999999999998" y="165.27999999999997" type="curve" smooth="yes"/>
      <point x="234.11" y="740.0" type="line"/>
    </contour>
  </outline>
</glyph>
<glyph name="m" format="2">
  <advance width="597.52"/>
  <unicode hex="006D"/>
  <note>
24&gt;23 points
un point de trop dans la jointure avec 2e jambage
</note>
  <outline>
    <contour>
      <point x="487.13" y="-10.0" type="curve" smooth="yes"/>
      <point x="511.22" y="-10.0"/>
      <point x="540.03" y="-3.09"/>
      <point x="558.08" y="8.879999999999999" type="curve"/>
      <point x="570.74" y="117.55999999999999" type="line"/>
      <point x="564.8" y="115.36"/>
      <point x="559.15" y="114.92999999999999"/>
      <point x="555.37" y="114.92999999999999" type="curve" smooth="yes"/>
      <point x="543.96" y="114.92999999999999"/>
      <point x="537.91" y="121.71"/>
      <point x="537.91" y="134.66" type="curve" smooth="yes"/>
      <point x="537.91" y="163.52999999999997"/>
      <point x="588.99" y="436.29"/>
      <point x="588.99" y="465.57" type="curve" smooth="yes"/>
      <point x="588.99" y="517.2800000000001"/>
      <point x="560.89" y="554.0"/>
      <point x="500.15" y="554.0" type="curve" smooth="yes"/>
      <point x="464.03000000000003" y="554.0"/>
      <point x="424.95000000000005" y="542.5799999999999"/>
      <point x="379.03000000000003" y="506.20000000000005" type="curve"/>
      <point x="368.02" y="536.17"/>
      <point x="342.27" y="554.0"/>
      <point x="301.91" y="554.0" type="curve" smooth="yes"/>
      <point x="266.55" y="554.0"/>
      <point x="228.46999999999997" y="542.3"/>
      <point x="185.71999999999997" y="510.24" type="curve"/>
      <point x="191.4" y="544.0" type="line"/>
      <point x="75.24000000000001" y="544.0" type="line"/>
      <point x="-10.829999999999998" y="0.0" type="line"/>
      <point x="116.80999999999999" y="0.0" type="line"/>
      <point x="182.62" y="414.93" type="line"/>
      <point x="196.51" y="424.28"/>
      <point x="212.48" y="430.55"/>
      <point x="226.71" y="430.55" type="curve" smooth="yes"/>
      <point x="245.88" y="430.55"/>
      <point x="253.45" y="418.9"/>
      <point x="253.45" y="402.23" type="curve" smooth="yes"/>
      <point x="253.45" y="386.78999999999996"/>
      <point x="209.18" y="120.42999999999999"/>
      <point x="189.37" y="0.0" type="curve"/>
      <point x="316.37" y="0.0" type="line"/>
      <point x="331.56000000000006" y="93.17999999999999"/>
      <point x="364.42" y="298.69"/>
      <point x="378.14" y="390.97" type="curve" smooth="yes"/>
      <point x="378.84" y="397.47"/>
      <point x="380.08000000000004" y="408.09999999999997"/>
      <point x="380.45" y="413.56" type="curve"/>
      <point x="394.85" y="423.81"/>
      <point x="410.45000000000005" y="430.34"/>
      <point x="425.71999999999997" y="430.34" type="curve" smooth="yes"/>
      <point x="445.53" y="430.34"/>
      <point x="452.62000000000006" y="418.33"/>
      <point x="452.62000000000006" y="401.61" type="curve" smooth="yes"/>
      <point x="452.62000000000006" y="380.32"/>
      <point x="402.90999999999997" y="112.85"/>
      <point x="402.90999999999997" y="71.55999999999999" type="curve" smooth="yes"/>
      <point x="402.90999999999997" y="20.719999999999995"/>
      <point x="435.02000000000004" y="-10.0"/>
    </contour>
  </outline>
</glyph>
<glyph name="n" format="2">
  <advance width="402.56"/>
  <unicode hex="006E"/>
  <note>
16
</note>
  <anchor x="168.66" y="0.0" name="bottom"/>
  <anchor x="240.41000000000003" y="544.0" name="top"/>
  <outline>
    <contour>
      <point x="75.24000000000001" y="544.0" type="line"/>
      <point x="-10.829999999999998" y="0.0" type="line"/>
      <point x="116.73999999999998" y="0.0" type="line"/>
      <point x="183.22" y="414.0" type="line"/>
      <point x="198.37" y="423.98999999999995"/>
      <point x="215.98999999999998" y="430.82"/>
      <point x="230.98" y="430.82" type="curve" smooth="yes"/>
      <point x="252.11" y="430.82"/>
      <point x="259.5" y="418.82"/>
      <point x="259.5" y="401.96" type="curve" smooth="yes"/>
      <point x="259.5" y="374.20000000000005"/>
      <point x="209.72000000000003" y="113.55"/>
      <point x="209.72000000000003" y="66.52" type="curve" smooth="yes"/>
      <point x="209.72000000000003" y="25.13"/>
      <point x="241.32" y="-10.0"/>
      <point x="293.43" y="-10.0" type="curve" smooth="yes"/>
      <point x="317.52" y="-10.0"/>
      <point x="345.07" y="-3.09"/>
      <point x="363.12" y="8.879999999999999" type="curve"/>
      <point x="375.78000000000003" y="117.55999999999999" type="line"/>
      <point x="369.84" y="115.36"/>
      <point x="364.19" y="114.92999999999999"/>
      <point x="360.41" y="114.92999999999999" type="curve" smooth="yes"/>
      <point x="349.0" y="114.92999999999999"/>
      <point x="343.46" y="119.85"/>
      <point x="343.46" y="130.91" type="curve" smooth="yes"/>
      <point x="343.46" y="148.44000000000003"/>
      <point x="395.17" y="431.87999999999994"/>
      <point x="395.17" y="461.79" type="curve" smooth="yes"/>
      <point x="395.17" y="519.5200000000001"/>
      <point x="364.67" y="554.0"/>
      <point x="305.82" y="554.0" type="curve" smooth="yes"/>
      <point x="267.65" y="554.0"/>
      <point x="226.79999999999998" y="541.85"/>
      <point x="185.45" y="509.87999999999994" type="curve"/>
      <point x="190.55999999999997" y="544.0" type="line"/>
    </contour>
  </outline>
</glyph>
<glyph name="o" format="2">
  <advance width="395.3"/>
  <unicode hex="006F"/>
  <note>
8
</note>
  <anchor x="155.58320000000003" y="0.0" name="bottom"/>
  <anchor x="198.10000000000002" y="272.3" name="center"/>
  <anchor x="223.6" y="0.0" name="ogonek"/>
  <anchor x="232.95000000000002" y="544.0" name="top"/>
  <anchor x="322.45000000000005" y="534.3000000000001" name="topright"/>
  <outline>
    <contour>
      <point x="168.1" y="-9.7" type="curve" smooth="yes"/>
      <point x="323.6" y="-9.7"/>
      <point x="382.3" y="204.55"/>
      <point x="382.3" y="391.09999999999997" type="curve" smooth="yes"/>
      <point x="382.3" y="503.0"/>
      <point x="334.44999999999993" y="554.25"/>
      <point x="227.25" y="554.25" type="curve" smooth="yes"/>
      <point x="70.05" y="554.25"/>
      <point x="11.649999999999999" y="338.0"/>
      <point x="11.649999999999999" y="153.0" type="curve" smooth="yes"/>
      <point x="11.649999999999999" y="42.0"/>
      <point x="59.349999999999994" y="-9.7"/>
    </contour>
    <contour>
      <point x="172.2" y="106.85" type="curve" smooth="yes"/>
      <point x="150.85000000000002" y="106.75"/>
      <point x="137.0" y="116.74999999999999"/>
      <point x="136.8" y="153.95" type="curve" smooth="yes"/>
      <point x="136.4" y="216.10000000000002"/>
      <point x="167.9" y="437.5"/>
      <point x="222.2" y="437.70000000000005" type="curve" smooth="yes"/>
      <point x="242.70000000000002" y="437.8"/>
      <point x="257.09999999999997" y="428.25000000000006"/>
      <point x="257.29999999999995" y="392.1" type="curve" smooth="yes"/>
      <point x="257.69999999999993" y="326.95"/>
      <point x="226.20000000000002" y="107.05"/>
    </contour>
  </outline>
</glyph>
<glyph name="p" format="2">
  <advance width="401.825"/>
  <unicode hex="0070"/>
  <note>
14 point
</note>
  <outline>
    <contour>
      <point x="-43.48999999999999" y="-210.0" type="line"/>
      <point x="83.21499999999999" y="-210.0" type="line"/>
      <point x="116.30499999999999" y="-2.0799999999999996" type="line"/>
      <point x="130.805" y="-5.54"/>
      <point x="149.335" y="-8.775"/>
      <point x="174.895" y="-8.775" type="curve" smooth="yes"/>
      <point x="317.95" y="-8.775"/>
      <point x="390.53" y="178.7"/>
      <point x="390.53" y="377.615" type="curve" smooth="yes"/>
      <point x="390.53" y="496.03000000000003"/>
      <point x="356.685" y="554.0"/>
      <point x="285.64" y="554.0" type="curve" smooth="yes"/>
      <point x="243.815" y="554.0"/>
      <point x="215.85999999999999" y="534.3899999999999"/>
      <point x="193.77499999999998" y="516.375" type="curve"/>
      <point x="191.5" y="546.7" type="line"/>
      <point x="75.85" y="546.7" type="line"/>
    </contour>
    <contour>
      <point x="161.43499999999997" y="103.40499999999999" type="curve" smooth="yes"/>
      <point x="151.92999999999998" y="103.40499999999999"/>
      <point x="142.5" y="104.80499999999999"/>
      <point x="134.35499999999996" y="107.97999999999999" type="curve"/>
      <point x="183.04500000000002" y="416.475" type="line"/>
      <point x="194.225" y="423.41999999999996"/>
      <point x="210.095" y="429.045"/>
      <point x="223.465" y="429.045" type="curve" smooth="yes"/>
      <point x="247.45000000000002" y="429.045"/>
      <point x="260.23" y="411.025"/>
      <point x="260.23" y="360.40999999999997" type="curve" smooth="yes"/>
      <point x="260.23" y="239.625"/>
      <point x="220.95" y="103.40499999999999"/>
    </contour>
  </outline>
</glyph>
<glyph name="q" format="2">
  <advance width="402.64"/>
  <unicode hex="0071"/>
  <note>
12
</note>
  <outline>
    <contour>
      <point x="410.13500000000005" y="528.6399999999999" type="line"/>
      <point x="375.71500000000003" y="540.5550000000001"/>
      <point x="318.27500000000003" y="554.0"/>
      <point x="258.375" y="554.0" type="curve" smooth="yes"/>
      <point x="91.86500000000001" y="554.0"/>
      <point x="10.57" y="371.745"/>
      <point x="10.57" y="152.94" type="curve" smooth="yes"/>
      <point x="10.57" y="44.794999999999995"/>
      <point x="51.11" y="-10.0"/>
      <point x="123.84" y="-10.0" type="curve" smooth="yes"/>
      <point x="152.355" y="-10.0"/>
      <point x="178.875" y="1.7450000000000003"/>
      <point x="201.03" y="19.035" type="curve"/>
      <point x="164.485" y="-210.0" type="line"/>
      <point x="291.3" y="-210.0" type="line"/>
    </contour>
    <contour>
      <point x="266.985" y="434.01500000000004" type="curve"/>
      <point x="218.20499999999998" y="127.29499999999999" type="line"/>
      <point x="206.09000000000003" y="118.57"/>
      <point x="191.635" y="113.90499999999999"/>
      <point x="179.48499999999999" y="113.90499999999999" type="curve" smooth="yes"/>
      <point x="155.74" y="113.90499999999999"/>
      <point x="142.81" y="136.94"/>
      <point x="142.81" y="169.84499999999997" type="curve" smooth="yes"/>
      <point x="142.81" y="281.41999999999996"/>
      <point x="175.175" y="438.765"/>
      <point x="239.48" y="438.765" type="curve" smooth="yes"/>
      <point x="249.225" y="438.765"/>
      <point x="258.35" y="436.91999999999996"/>
    </contour>
  </outline>
</glyph>
<glyph name="r" format="2">
  <advance width="278.25"/>
  <unicode hex="0072"/>
  <anchor x="51.71999999999999" y="0.0" name="bottom"/>
  <anchor x="213.0" y="544.0" name="top"/>
  <outline>
    <contour>
      <point x="189.96999999999997" y="544.0" type="line"/>
      <point x="75.38000000000001" y="544.0" type="line"/>
      <point x="-10.899999999999999" y="0.0" type="line"/>
      <point x="114.89" y="0.0" type="line"/>
      <point x="176.70999999999998" y="384.03999999999996" type="line"/>
      <point x="202.29" y="404.33000000000004"/>
      <point x="222.4" y="411.22999999999996"/>
      <point x="243.77" y="411.22999999999996" type="curve" smooth="yes"/>
      <point x="254.41" y="411.22999999999996"/>
      <point x="270.97" y="409.42999999999995"/>
      <point x="284.93" y="404.9" type="curve"/>
      <point x="326.2" y="544.99" type="line"/>
      <point x="310.49" y="552.21"/>
      <point x="296.3" y="554.0"/>
      <point x="280.03999999999996" y="554.0" type="curve" smooth="yes"/>
      <point x="250.03" y="554.0"/>
      <point x="220.08" y="537.16"/>
      <point x="182.46" y="497.13000000000005" type="curve"/>
    </contour>
  </outline>
</glyph>
<glyph name="s" format="2">
  <advance width="343.04999999999995"/>
  <unicode hex="0073"/>
  <anchor x="130.3" y="0.0" name="bottom"/>
  <anchor x="224.55" y="544.0" name="top"/>
  <outline>
    <contour>
      <point x="-24.55" y="21.299999999999997" type="line"/>
      <point x="14.5" y="2.1499999999999995"/>
      <point x="59.4" y="-10.0"/>
      <point x="125.54999999999998" y="-10.0" type="curve" smooth="yes"/>
      <point x="241.79999999999998" y="-10.0"/>
      <point x="316.3" y="50.25"/>
      <point x="316.3" y="177.20000000000002" type="curve" smooth="yes"/>
      <point x="316.3" y="335.5"/>
      <point x="151.2" y="319.34999999999997"/>
      <point x="151.2" y="389.6" type="curve" smooth="yes"/>
      <point x="151.2" y="418.25"/>
      <point x="172.0" y="435.15"/>
      <point x="217.49999999999997" y="435.15" type="curve" smooth="yes"/>
      <point x="249.6" y="435.15"/>
      <point x="287.75" y="426.30000000000007"/>
      <point x="319.1" y="413.9" type="curve"/>
      <point x="352.4" y="528.9" type="line"/>
      <point x="324.1" y="543.1999999999999"/>
      <point x="276.4" y="554.0"/>
      <point x="225.15" y="554.0" type="curve" smooth="yes"/>
      <point x="91.85000000000001" y="554.0"/>
      <point x="32.25000000000001" y="472.7"/>
      <point x="32.25000000000001" y="373.8" type="curve" smooth="yes"/>
      <point x="32.25000000000001" y="213.29999999999998"/>
      <point x="197.75" y="226.8"/>
      <point x="197.75" y="155.05" type="curve" smooth="yes"/>
      <point x="197.75" y="126.89999999999999"/>
      <point x="176.24999999999997" y="105.94999999999999"/>
      <point x="128.49999999999997" y="105.94999999999999" type="curve" smooth="yes"/>
      <point x="89.94999999999999" y="105.94999999999999"/>
      <point x="43.199999999999996" y="117.34999999999998"/>
      <point x="12.35" y="132.0" type="curve"/>
    </contour>
  </outline>
</glyph>
<glyph name="t" format="2">
  <advance width="260.96"/>
  <unicode hex="0074"/>
  <anchor x="115.05" y="0.0" name="bottom"/>
  <anchor x="127.04" y="290.65999999999997" name="center"/>
  <anchor x="180.49999999999997" y="658.0699999999999" name="top"/>
  <anchor x="302.01000000000005" y="760.9" name="topright"/>
  <outline>
    <contour>
      <point x="226.96" y="119.69999999999999" type="line"/>
      <point x="212.83" y="116.24"/>
      <point x="202.2" y="114.07"/>
      <point x="192.41" y="114.07" type="curve" smooth="yes"/>
      <point x="165.36" y="114.07"/>
      <point x="155.78" y="129.29"/>
      <point x="155.78" y="154.01999999999998" type="curve" smooth="yes"/>
      <point x="155.78" y="162.47"/>
      <point x="156.98" y="171.84999999999997"/>
      <point x="158.30999999999997" y="182.74" type="curve" smooth="yes"/>
      <point x="198.74" y="431.33" type="line"/>
      <point x="278.97" y="431.33" type="line"/>
      <point x="298.42" y="544.0" type="line"/>
      <point x="217.98" y="544.0" type="line"/>
      <point x="235.72" y="658.0699999999999" type="line"/>
      <point x="125.84000000000002" y="658.0699999999999" type="line"/>
      <point x="91.32000000000001" y="544.0" type="line"/>
      <point x="43.74" y="537.02" type="line"/>
      <point x="25.4" y="431.96" type="line"/>
      <point x="71.66" y="431.96" type="line"/>
      <point x="29.41" y="168.88" type="line" smooth="yes"/>
      <point x="25.01" y="142.12"/>
      <point x="21.390000000000004" y="107.60000000000001"/>
      <point x="21.390000000000004" y="87.32000000000001" type="curve" smooth="yes"/>
      <point x="21.390000000000004" y="11.99"/>
      <point x="67.5" y="-10.0"/>
      <point x="118.59" y="-10.0" type="curve" smooth="yes"/>
      <point x="154.04" y="-10.0"/>
      <point x="186.23999999999998" y="-3.1800000000000006"/>
      <point x="215.4" y="11.11" type="curve"/>
    </contour>
  </outline>
</glyph>
<glyph name="u" format="2">
  <advance width="400.8"/>
  <unicode hex="0075"/>
  <note>
15
</note>
  <anchor x="160.06" y="0.0" name="bottom"/>
  <anchor x="361.05" y="11.27" name="ogonek"/>
  <anchor x="241.13028" y="544.0" name="top"/>
  <anchor x="387.23" y="544.0" name="topright"/>
  <outline>
    <contour>
      <point x="98.71000000000001" y="-10.0" type="curve" smooth="yes"/>
      <point x="140.16000000000003" y="-10.0"/>
      <point x="173.03" y="6.45"/>
      <point x="212.62" y="41.81" type="curve"/>
      <point x="222.10999999999999" y="11.51"/>
      <point x="250.85000000000002" y="-10.0"/>
      <point x="289.12" y="-10.0" type="curve" smooth="yes"/>
      <point x="313.08000000000004" y="-10.0"/>
      <point x="342.90000000000003" y="-1.4100000000000008"/>
      <point x="361.05" y="12.04" type="curve"/>
      <point x="373.33" y="117.19999999999999" type="line"/>
      <point x="366.87" y="114.78999999999999"/>
      <point x="360.18" y="113.88999999999999"/>
      <point x="356.61" y="113.88999999999999" type="curve" smooth="yes"/>
      <point x="345.77" y="113.88999999999999"/>
      <point x="341.46999999999997" y="120.72999999999999"/>
      <point x="341.46999999999997" y="133.56" type="curve" smooth="yes"/>
      <point x="341.46999999999997" y="140.38"/>
      <point x="343.01" y="152.54999999999998"/>
      <point x="406.13" y="544.0" type="curve"/>
      <point x="280.28" y="544.0" type="line"/>
      <point x="213.64" y="129.27999999999997" type="line"/>
      <point x="197.0" y="117.72999999999999"/>
      <point x="181.82999999999998" y="111.77999999999999"/>
      <point x="165.29" y="111.77999999999999" type="curve" smooth="yes"/>
      <point x="146.66" y="111.77999999999999"/>
      <point x="136.79" y="124.49999999999999"/>
      <point x="138.04999999999998" y="143.15" type="curve" smooth="yes"/>
      <point x="149.39000000000001" y="222.39"/>
      <point x="164.6" y="317.03999999999996"/>
      <point x="200.61" y="544.0" type="curve"/>
      <point x="74.16" y="544.0" type="line"/>
      <point x="27.0" y="247.26"/>
      <point x="4.040000000000001" y="134.85999999999999"/>
      <point x="4.040000000000001" y="81.3" type="curve" smooth="yes"/>
      <point x="4.040000000000001" y="28.04"/>
      <point x="36.49" y="-10.0"/>
    </contour>
  </outline>
</glyph>
<glyph name="v" format="2">
  <advance width="374.54"/>
  <unicode hex="0076"/>
  <outline>
    <contour>
      <point x="218.48" y="-0.9800000000000002" type="line"/>
      <point x="321.03999999999996" y="235.18"/>
      <point x="394.66" y="384.95000000000005"/>
      <point x="400.37" y="544.0" type="curve"/>
      <point x="268.5" y="544.0" type="line"/>
      <point x="266.54" y="418.51"/>
      <point x="230.58" y="323.19"/>
      <point x="157.52" y="126.44999999999999" type="curve"/>
      <point x="174.95999999999998" y="544.3" type="line"/>
      <point x="39.94" y="544.04" type="line"/>
      <point x="56.45" y="-0.9800000000000002" type="line"/>
    </contour>
  </outline>
</glyph>
<glyph name="w" format="2">
  <advance width="584.03"/>
  <unicode hex="0077"/>
  <note>
15
</note>
  <anchor x="251.39" y="0.0" name="bottom"/>
  <anchor x="319.5" y="544.0" name="top"/>
  <outline>
    <contour>
      <point x="439.27" y="0.0" type="line"/>
      <point x="544.83" y="262.01"/>
      <point x="603.9" y="395.64"/>
      <point x="606.86" y="544.0" type="curve"/>
      <point x="480.62" y="544.0" type="line"/>
      <point x="474.12" y="419.48"/>
      <point x="446.53999999999996" y="323.3"/>
      <point x="381.92999999999995" y="131.79" type="curve"/>
      <point x="400.46000000000004" y="528.17" type="line"/>
      <point x="257.47" y="528.17" type="line"/>
      <point x="221.82" y="392.67"/>
      <point x="186.34" y="263.28000000000003"/>
      <point x="149.89000000000001" y="130.76" type="curve"/>
      <point x="171.76" y="544.3" type="line"/>
      <point x="39.63" y="544.0699999999999" type="line"/>
      <point x="47.160000000000004" y="0.0" type="line"/>
      <point x="206.08" y="0.0" type="line"/>
      <point x="237.10999999999999" y="112.65"/>
      <point x="268.80999999999995" y="229.78"/>
      <point x="298.08000000000004" y="341.07" type="curve"/>
      <point x="288.65" y="0.0" type="line"/>
    </contour>
  </outline>
</glyph>
<glyph name="x" format="2">
  <advance width="402.61"/>
  <unicode hex="0078"/>
  <outline>
    <contour>
      <point x="290.33500000000004" y="544.0" type="line"/>
      <point x="287.125" y="474.225"/>
      <point x="264.95500000000004" y="421.96999999999997"/>
      <point x="214.61" y="341.74500000000006" type="curve"/>
      <point x="195.815" y="545.82" type="line"/>
      <point x="54.54" y="543.93" type="line"/>
      <point x="102.705" y="277.835" type="line"/>
      <point x="36.345000000000006" y="186.43499999999997"/>
      <point x="-12.225" y="96.56"/>
      <point x="-23.400000000000002" y="0.0" type="curve"/>
      <point x="115.1" y="0.0" type="line"/>
      <point x="123.57" y="74.35"/>
      <point x="152.51000000000002" y="140.295"/>
      <point x="193.5" y="206.0" type="curve"/>
      <point x="215.935" y="-0.8300000000000001" type="line"/>
      <point x="359.22499999999997" y="0.44500000000000006" type="line"/>
      <point x="304.89500000000004" y="271.07500000000005" type="line"/>
      <point x="385.41" y="380.435"/>
      <point x="420.135" y="489.47999999999996"/>
      <point x="425.245" y="544.0" type="curve"/>
    </contour>
  </outline>
</glyph>
<glyph name="y" format="2">
  <advance width="377.94999999999993"/>
  <unicode hex="0079"/>
  <anchor x="214.14999999999998" y="-126.00000000000001" name="bottom"/>
  <anchor x="222.95" y="544.0" name="top"/>
  <outline>
    <contour>
      <point x="280.49999999999994" y="546.3" type="line"/>
      <point x="270.65000000000003" y="398.40000000000003"/>
      <point x="223.64999999999998" y="266.6"/>
      <point x="167.0" y="122.24999999999999" type="curve"/>
      <point x="164.79999999999998" y="547.0" type="line"/>
      <point x="37.800000000000004" y="546.05" type="line"/>
      <point x="62.89999999999999" y="-0.7" type="line"/>
      <point x="105.75" y="-0.7" type="line"/>
      <point x="78.7" y="-65.05"/>
      <point x="44.2" y="-129.0"/>
      <point x="-2.8000000000000003" y="-209.65" type="curve"/>
      <point x="122.69999999999999" y="-213.0" type="line"/>
      <point x="269.90000000000003" y="82.74999999999999"/>
      <point x="382.45" y="312.45"/>
      <point x="406.54999999999995" y="545.45" type="curve"/>
    </contour>
  </outline>
</glyph>
<glyph name="z" format="2">
  <advance width="358.22"/>
  <unicode hex="007A"/>
  <anchor x="146.10999999999999" y="0.0" name="bottom"/>
  <anchor x="177.47" y="275.0" name="center"/>
  <anchor x="223.46" y="544.0" name="top"/>
  <outline>
    <contour>
      <point x="-19.2" y="0.0" type="line"/>
      <point x="303.11" y="0.0" type="line"/>
      <point x="321.23" y="116.39999999999999" type="line"/>
      <point x="141.02999999999997" y="116.39999999999999" type="line"/>
      <point x="355.24" y="431.57" type="line"/>
      <point x="377.37" y="544.0" type="line"/>
      <point x="69.38" y="544.0" type="line"/>
      <point x="50.56" y="426.34" type="line"/>
      <point x="215.88000000000002" y="426.34" type="line"/>
      <point x="-3.06" y="104.44999999999999" type="line"/>
    </contour>
  </outline>
</glyph>
<glyph name="braceleft" format="2">
  <advance width="249.32000000000002"/>
  <unicode hex="007B"/>
  <outline>
    <contour>
      <point x="-0.4999999999999982" y="-96.25" type="curve" smooth="yes"/>
      <point x="-0.4999999999999982" y="-174.6"/>
      <point x="38.16" y="-210.0"/>
      <point x="92.08" y="-210.0" type="curve" smooth="yes"/>
      <point x="152.18" y="-210.0" type="line"/>
      <point x="171.21" y="-99.7" type="line"/>
      <point x="145.97" y="-99.7" type="line" smooth="yes"/>
      <point x="123.65999999999998" y="-99.7"/>
      <point x="114.09" y="-83.25"/>
      <point x="114.09" y="-56.24000000000001" type="curve" smooth="yes"/>
      <point x="114.09" y="27.04"/>
      <point x="171.85" y="96.88"/>
      <point x="171.85" y="177.84" type="curve" smooth="yes"/>
      <point x="171.85" y="212.70000000000002"/>
      <point x="162.81" y="244.94"/>
      <point x="135.56" y="267.4" type="curve"/>
      <point x="188.31" y="299.44"/>
      <point x="212.95" y="365.71999999999997"/>
      <point x="212.95" y="428.4" type="curve" smooth="yes"/>
      <point x="212.95" y="462.15000000000003"/>
      <point x="209.07" y="487.56"/>
      <point x="209.07" y="526.65" type="curve" smooth="yes"/>
      <point x="209.07" y="571.6800000000001"/>
      <point x="221.14999999999998" y="629.6999999999999"/>
      <point x="265.75" y="629.6999999999999" type="curve" smooth="yes"/>
      <point x="288.65000000000003" y="629.6999999999999" type="line"/>
      <point x="306.42" y="740.0" type="line"/>
      <point x="247.67000000000002" y="740.0" type="line" smooth="yes"/>
      <point x="137.15" y="740.0"/>
      <point x="99.0" y="627.33"/>
      <point x="99.0" y="518.13" type="curve" smooth="yes"/>
      <point x="99.0" y="475.68"/>
      <point x="104.7" y="448.35999999999996"/>
      <point x="104.7" y="415.11" type="curve" smooth="yes"/>
      <point x="104.7" y="375.2"/>
      <point x="97.57000000000001" y="325.27"/>
      <point x="61.86000000000001" y="325.27" type="curve" smooth="yes"/>
      <point x="47.87" y="325.27" type="line"/>
      <point x="29.47" y="209.74" type="line"/>
      <point x="42.95" y="209.74" type="line" smooth="yes"/>
      <point x="61.540000000000006" y="209.74"/>
      <point x="67.08000000000001" y="197.12"/>
      <point x="67.08000000000001" y="177.10000000000002" type="curve" smooth="yes"/>
      <point x="67.08000000000001" y="100.67"/>
      <point x="-0.4999999999999982" y="12.299999999999999"/>
    </contour>
  </outline>
</glyph>
<glyph name="braceright" format="2">
  <advance width="249.32000000000002"/>
  <unicode hex="007D"/>
  <outline>
    <contour>
      <point x="246.79" y="626.25" type="curve" smooth="yes"/>
      <point x="246.79" y="705.23"/>
      <point x="207.5" y="740.63"/>
      <point x="153.58" y="740.63" type="curve" smooth="yes"/>
      <point x="93.48" y="740.63" type="line"/>
      <point x="74.45" y="630.33" type="line"/>
      <point x="93.39" y="630.33" type="line" smooth="yes"/>
      <point x="116.33" y="630.33"/>
      <point x="126.53" y="613.25"/>
      <point x="126.53" y="586.2400000000001" type="curve" smooth="yes"/>
      <point x="126.53" y="501.7"/>
      <point x="68.77000000000001" y="446.89000000000004"/>
      <point x="68.77000000000001" y="352.7" type="curve" smooth="yes"/>
      <point x="68.77000000000001" y="319.73"/>
      <point x="77.18" y="287.49"/>
      <point x="105.69" y="265.66" type="curve"/>
      <point x="52.940000000000005" y="232.99"/>
      <point x="27.67" y="167.96999999999997"/>
      <point x="27.67" y="104.66000000000001" type="curve" smooth="yes"/>
      <point x="27.67" y="70.91"/>
      <point x="31.55" y="43.07"/>
      <point x="31.55" y="5.239999999999995" type="curve" smooth="yes"/>
      <point x="31.55" y="-39.790000000000006"/>
      <point x="20.1" y="-99.07000000000001"/>
      <point x="-24.5" y="-99.07000000000001" type="curve" smooth="yes"/>
      <point x="-42.36000000000001" y="-99.07000000000001" type="line"/>
      <point x="-60.13" y="-210.0" type="line"/>
      <point x="-2.010000000000002" y="-210.0" type="line" smooth="yes"/>
      <point x="108.50999999999999" y="-210.0"/>
      <point x="146.65999999999997" y="-89.14000000000001"/>
      <point x="146.65999999999997" y="-0.10000000000000142" type="curve" smooth="yes"/>
      <point x="146.65999999999997" y="59.36"/>
      <point x="140.96" y="91.63000000000001"/>
      <point x="140.96" y="120.47" type="curve" smooth="yes"/>
      <point x="140.96" y="159.12"/>
      <point x="149.35" y="207.79"/>
      <point x="183.8" y="207.79" type="curve" smooth="yes"/>
      <point x="197.79" y="207.79" type="line"/>
      <point x="216.19" y="322.69" type="line"/>
      <point x="202.71" y="322.69" type="line" smooth="yes"/>
      <point x="184.11999999999998" y="322.69"/>
      <point x="178.57999999999998" y="335.30999999999995"/>
      <point x="178.57999999999998" y="355.33000000000004" type="curve" smooth="yes"/>
      <point x="178.57999999999998" y="432.38999999999993"/>
      <point x="246.79" y="508.88"/>
    </contour>
  </outline>
</glyph>
<glyph name="asciitilde" format="2">
  <advance width="405.89"/>
  <unicode hex="007E"/>
  <outline>
    <contour>
      <point x="346.58" y="240.6" type="curve"/>
      <point x="365.0" y="360.77" type="line"/>
      <point x="339.56" y="336.0"/>
      <point x="316.57" y="326.41"/>
      <point x="290.63" y="326.41" type="curve" smooth="yes"/>
      <point x="225.9" y="326.41"/>
      <point x="211.07" y="408.2"/>
      <point x="148.09999999999997" y="408.2" type="curve" smooth="yes"/>
      <point x="112.7" y="408.2"/>
      <point x="80.24" y="387.33000000000004"/>
      <point x="70.57" y="375.65000000000003" type="curve"/>
      <point x="51.8" y="255.45000000000002" type="line"/>
      <point x="63.980000000000004" y="269.00000000000006"/>
      <point x="95.37" y="289.22"/>
      <point x="129.15" y="289.22" type="curve" smooth="yes"/>
      <point x="192.42" y="289.22"/>
      <point x="207.07" y="207.43"/>
      <point x="273.21" y="207.43" type="curve" smooth="yes"/>
      <point x="298.73" y="207.43"/>
      <point x="322.23" y="216.92"/>
    </contour>
  </outline>
</glyph>
<glyph name="cent" format="2">
  <advance width="436.62"/>
  <unicode hex="00A2"/>
  <outline>
    <contour>
      <point x="129.99" y="-105.56" type="line"/>
      <point x="239.82999999999998" y="-105.56" type="line"/>
      <point x="255.53" y="-4.86" type="line"/>
      <point x="284.28000000000003" y="-1.7800000000000007"/>
      <point x="310.69" y="3.7199999999999998"/>
      <point x="329.26" y="11.940000000000001" type="curve"/>
      <point x="328.3" y="140.31" type="line"/>
      <point x="304.3" y="134.79000000000002"/>
      <point x="280.03999999999996" y="129.56"/>
      <point x="260.65" y="129.56" type="curve" smooth="yes"/>
      <point x="218.58" y="129.56"/>
      <point x="204.09" y="160.89999999999998"/>
      <point x="204.09" y="205.39999999999998" type="curve" smooth="yes"/>
      <point x="204.09" y="307.21"/>
      <point x="237.72" y="412.92"/>
      <point x="305.18" y="412.92" type="curve" smooth="yes"/>
      <point x="325.38" y="412.92"/>
      <point x="343.32" y="409.83"/>
      <point x="363.69" y="403.52" type="curve"/>
      <point x="405.38" y="537.71" type="line"/>
      <point x="387.80000000000007" y="543.59"/>
      <point x="368.84" y="548.28"/>
      <point x="345.13" y="550.58" type="curve"/>
      <point x="361.17" y="648.37" type="line"/>
      <point x="251.33" y="648.37" type="line"/>
      <point x="233.82000000000002" y="540.4" type="line"/>
      <point x="119.84" y="491.64000000000004"/>
      <point x="67.77000000000001" y="309.19"/>
      <point x="67.77000000000001" y="153.0" type="curve" smooth="yes"/>
      <point x="67.77000000000001" y="64.00999999999999"/>
      <point x="98.38" y="19.429999999999996"/>
      <point x="146.16" y="1.7099999999999993" type="curve"/>
    </contour>
  </outline>
</glyph>
<glyph name="sterling" format="2">
  <advance width="436.79999999999995"/>
  <unicode hex="00A3"/>
  <outline>
    <contour>
      <point x="23.560000000000002" y="0.0" type="line"/>
      <point x="334.26000000000005" y="0.0" type="line"/>
      <point x="353.01" y="120.25000000000001" type="line"/>
      <point x="191.96000000000004" y="120.25000000000001" type="line"/>
      <point x="233.32000000000002" y="170.92"/>
      <point x="261.96" y="223.14000000000001"/>
      <point x="261.96" y="298.3500000000001" type="curve" smooth="yes"/>
      <point x="261.96" y="346.44"/>
      <point x="246.98000000000002" y="401.1000000000001"/>
      <point x="246.98000000000002" y="448.87000000000006" type="curve" smooth="yes"/>
      <point x="246.98000000000002" y="538.84"/>
      <point x="288.46" y="577.45"/>
      <point x="339.03999999999996" y="577.45" type="curve" smooth="yes"/>
      <point x="361.59999999999997" y="577.45"/>
      <point x="381.12" y="574.44"/>
      <point x="403.9699999999999" y="564.24" type="curve"/>
      <point x="442.2099999999999" y="680.0400000000002" type="line"/>
      <point x="410.46999999999997" y="699.8499999999999"/>
      <point x="369.84" y="710.0"/>
      <point x="329.16999999999996" y="710.0" type="curve" smooth="yes"/>
      <point x="197.03" y="710.0"/>
      <point x="122.94" y="596.5800000000002"/>
      <point x="122.94" y="467.62999999999994" type="curve" smooth="yes"/>
      <point x="122.94" y="395.46999999999997"/>
      <point x="143.65" y="344.23"/>
      <point x="143.65" y="284.14000000000004" type="curve" smooth="yes"/>
      <point x="143.65" y="202.09"/>
      <point x="93.65" y="140.41000000000003"/>
      <point x="36.74" y="91.55" type="curve"/>
    </contour>
    <contour>
      <point x="66.82" y="317.32" type="line"/>
      <point x="352.33" y="317.32000000000005" type="line"/>
      <point x="364.09" y="396.81999999999994" type="line"/>
      <point x="78.99000000000001" y="396.81999999999994" type="line"/>
    </contour>
  </outline>
</glyph>
<glyph name="currency" format="2">
  <advance width="395.33"/>
  <unicode hex="00A4"/>
  <outline>
    <contour>
      <point x="74.94999999999999" y="101.17" type="line"/>
      <point x="138.93" y="161.96" type="line"/>
      <point x="149.86999999999998" y="154.56"/>
      <point x="163.92" y="151.19"/>
      <point x="180.13" y="151.19" type="curve" smooth="yes"/>
      <point x="195.19" y="151.19"/>
      <point x="209.91" y="154.59"/>
      <point x="223.13" y="161.39999999999998" type="curve"/>
      <point x="268.84000000000003" y="101.17" type="line"/>
      <point x="356.67" y="184.68" type="line"/>
      <point x="317.3" y="236.86" type="line"/>
      <point x="330.12999999999994" y="256.07"/>
      <point x="338.61" y="279.03000000000003"/>
      <point x="339.87" y="303.23" type="curve" smooth="yes"/>
      <point x="341.12999999999994" y="318.59000000000003"/>
      <point x="339.26" y="333.74"/>
      <point x="335.26" y="347.86" type="curve"/>
      <point x="391.08" y="400.04" type="line"/>
      <point x="329.5" y="483.55" type="line"/>
      <point x="266.60999999999996" y="425.21" type="line"/>
      <point x="255.29" y="432.04999999999995"/>
      <point x="241.10999999999999" y="436.34999999999997"/>
      <point x="225.35" y="436.34999999999997" type="curve" smooth="yes"/>
      <point x="208.51" y="436.34999999999997"/>
      <point x="192.63" y="431.42"/>
      <point x="178.28999999999996" y="424.65" type="curve"/>
      <point x="135.53999999999996" y="483.55" type="line"/>
      <point x="46.99" y="400.04" type="line"/>
      <point x="87.06000000000002" y="345.33" type="line"/>
      <point x="75.32000000000001" y="327.77"/>
      <point x="67.77000000000001" y="306.83"/>
      <point x="66.51" y="284.54999999999995" type="curve" smooth="yes"/>
      <point x="65.25" y="268.65"/>
      <point x="66.49000000000001" y="253.02"/>
      <point x="70.56" y="239.36" type="curve"/>
      <point x="12.509999999999998" y="184.68" type="line"/>
    </contour>
    <contour>
      <point x="194.7" y="238.73999999999998" type="curve" smooth="yes"/>
      <point x="167.86999999999998" y="238.73999999999998"/>
      <point x="151.32" y="257.81"/>
      <point x="153.21000000000004" y="286.56" type="curve" smooth="yes"/>
      <point x="155.10000000000002" y="320.45000000000005"/>
      <point x="181.26" y="348.17"/>
      <point x="211.64000000000001" y="348.17" type="curve" smooth="yes"/>
      <point x="238.81" y="348.17"/>
      <point x="254.46" y="327.1"/>
      <point x="252.57000000000002" y="299.44000000000005" type="curve" smooth="yes"/>
      <point x="250.68" y="264.35"/>
      <point x="225.26999999999998" y="238.73999999999998"/>
    </contour>
  </outline>
</glyph>
<glyph name="yen" format="2">
  <advance width="443.0"/>
  <unicode hex="00A5"/>
  <outline>
    <contour>
      <point x="67.45" y="303.6" type="line"/>
      <point x="164.8" y="303.6" type="line"/>
      <point x="157.4" y="256.65000000000003" type="line"/>
      <point x="60.55" y="256.65000000000003" type="line"/>
      <point x="48.35" y="180.8" type="line"/>
      <point x="145.64999999999998" y="180.8" type="line"/>
      <point x="116.8" y="0.0" type="line"/>
      <point x="240.25" y="0.0" type="line"/>
      <point x="269.65" y="180.8" type="line"/>
      <point x="367.84999999999997" y="180.8" type="line"/>
      <point x="379.44999999999993" y="256.65000000000003" type="line"/>
      <point x="280.85" y="256.65000000000003" type="line"/>
      <point x="288.24999999999994" y="303.6" type="line"/>
      <point x="387.25" y="303.6" type="line"/>
      <point x="399.0" y="379.25000000000006" type="line"/>
      <point x="300.9" y="379.25000000000006" type="line"/>
      <point x="478.79999999999995" y="700.3" type="line"/>
      <point x="346.55" y="702.4" type="line"/>
      <point x="253.2" y="469.19999999999993" type="line"/>
      <point x="231.64999999999998" y="700.95" type="line"/>
      <point x="98.95" y="699.55" type="line"/>
      <point x="176.95" y="379.25000000000006" type="line"/>
      <point x="79.35000000000001" y="379.25000000000006" type="line"/>
    </contour>
  </outline>
</glyph>
<glyph name="brokenbar" format="2">
  <advance width="167.24"/>
  <unicode hex="00A6"/>
  <outline>
    <contour>
      <point x="156.65" y="391.0" type="line"/>
      <point x="221.98000000000002" y="790.63" type="line"/>
      <point x="112.98" y="790.63" type="line"/>
      <point x="47.65" y="391.0" type="line"/>
    </contour>
    <contour>
      <point x="14.690000000000003" y="190.63" type="line"/>
      <point x="-49.739999999999995" y="-210.0" type="line"/>
      <point x="59.19" y="-210.0" type="line"/>
      <point x="124.24999999999999" y="190.63" type="line"/>
    </contour>
  </outline>
</glyph>
<glyph name="section" format="2">
  <advance width="412.24"/>
  <unicode hex="00A7"/>
  <outline>
    <contour>
      <point x="9.68" y="-48.480000000000004" type="curve"/>
      <point x="-39.13" y="-183.83" type="line"/>
      <point x="-4.739999999999999" y="-206.82"/>
      <point x="53.43000000000001" y="-220.0"/>
      <point x="88.10000000000001" y="-220.0" type="curve" smooth="yes"/>
      <point x="265.3" y="-220.0"/>
      <point x="365.22999999999996" y="-23.210000000000004"/>
      <point x="365.22999999999996" y="153.79" type="curve" smooth="yes"/>
      <point x="365.22999999999996" y="290.98"/>
      <point x="290.76" y="394.0"/>
      <point x="290.76" y="512.0600000000001" type="curve" smooth="yes"/>
      <point x="290.76" y="561.84"/>
      <point x="312.26000000000005" y="602.9200000000001"/>
      <point x="350.41" y="602.9200000000001" type="curve" smooth="yes"/>
      <point x="362.27000000000004" y="602.9200000000001"/>
      <point x="370.34000000000003" y="598.4300000000001"/>
      <point x="383.52" y="591.35" type="curve"/>
      <point x="433.15000000000003" y="726.99" type="line"/>
      <point x="408.82" y="742.52"/>
      <point x="359.31" y="749.63"/>
      <point x="331.42999999999995" y="749.63" type="curve" smooth="yes"/>
      <point x="139.88" y="749.63"/>
      <point x="47.120000000000005" y="568.69"/>
      <point x="47.120000000000005" y="385.05" type="curve" smooth="yes"/>
      <point x="47.120000000000005" y="228.2"/>
      <point x="121.52" y="101.05999999999999"/>
      <point x="121.52" y="-4.460000000000009" type="curve" smooth="yes"/>
      <point x="121.52" y="-40.78"/>
      <point x="103.1" y="-74.41000000000001"/>
      <point x="69.61" y="-74.41000000000001" type="curve" smooth="yes"/>
      <point x="49.290000000000006" y="-74.41000000000001"/>
      <point x="27.99" y="-66.45000000000002"/>
    </contour>
    <contour>
      <point x="275.10999999999996" y="663.51" type="curve"/>
      <point x="221.77" y="620.43"/>
      <point x="202.22" y="552.49"/>
      <point x="202.22" y="493.09000000000003" type="curve" smooth="yes"/>
      <point x="202.22" y="365.83000000000004"/>
      <point x="271.56" y="256.65000000000003"/>
      <point x="271.56" y="128.94" type="curve" smooth="yes"/>
      <point x="271.56" y="9.219999999999995"/>
      <point x="209.01" y="-127.32"/>
      <point x="107.59" y="-139.13000000000002" type="curve"/>
      <point x="183.82" y="-107.6"/>
      <point x="211.69" y="-33.34"/>
      <point x="211.69" y="35.41999999999999" type="curve" smooth="yes"/>
      <point x="211.69" y="156.10999999999999"/>
      <point x="141.45999999999998" y="271.95"/>
      <point x="141.45999999999998" y="398.75" type="curve" smooth="yes"/>
      <point x="141.45999999999998" y="511.31999999999994"/>
      <point x="183.37" y="624.55"/>
    </contour>
  </outline>
</glyph>
<glyph name="copyright" format="2">
  <advance width="592.39"/>
  <unicode hex="00A9"/>
  <outline>
    <contour>
      <point x="271.63000000000005" y="-10.1" type="curve" smooth="yes"/>
      <point x="477.02" y="-10.34"/>
      <point x="574.12" y="210.97000000000003"/>
      <point x="574.12" y="449.56" type="curve" smooth="yes"/>
      <point x="574.12" y="618.81"/>
      <point x="493.52000000000004" y="710.22"/>
      <point x="345.07" y="710.4599999999999" type="curve" smooth="yes"/>
      <point x="139.79999999999998" y="710.6999999999999"/>
      <point x="41.64" y="490.11"/>
      <point x="41.64" y="250.9" type="curve" smooth="yes"/>
      <point x="41.64" y="81.87000000000002"/>
      <point x="122.19999999999999" y="-9.86"/>
    </contour>
    <contour>
      <point x="292.62" y="132.68" type="curve" smooth="yes"/>
      <point x="317.22999999999996" y="132.68"/>
      <point x="347.05999999999995" y="138.64000000000001"/>
      <point x="364.92999999999995" y="148.06" type="curve"/>
      <point x="363.68999999999994" y="221.74" type="line"/>
      <point x="351.01" y="217.13"/>
      <point x="333.33" y="214.01"/>
      <point x="320.03" y="214.01" type="curve" smooth="yes"/>
      <point x="290.15" y="214.01"/>
      <point x="272.19" y="241.19"/>
      <point x="272.19" y="288.03000000000003" type="curve" smooth="yes"/>
      <point x="272.19" y="383.09"/>
      <point x="305.22999999999996" y="474.35999999999996"/>
      <point x="355.42" y="474.35999999999996" type="curve" smooth="yes"/>
      <point x="368.57" y="474.35999999999996"/>
      <point x="380.45000000000005" y="472.63"/>
      <point x="392.39" y="467.59999999999997" type="curve"/>
      <point x="417.59" y="552.09" type="line"/>
      <point x="404.26000000000005" y="558.62"/>
      <point x="384.5" y="563.9200000000001"/>
      <point x="355.72999999999996" y="563.9200000000001" type="curve" smooth="yes"/>
      <point x="266.92" y="563.9200000000001"/>
      <point x="184.67" y="448.85"/>
      <point x="184.67" y="287.21999999999997" type="curve" smooth="yes"/>
      <point x="184.67" y="183.42000000000002"/>
      <point x="224.52" y="132.68"/>
    </contour>
    <contour>
      <point x="276.04" y="35.19" type="curve" smooth="yes"/>
      <point x="154.9" y="35.19"/>
      <point x="90.08000000000001" y="108.1"/>
      <point x="90.08000000000001" y="252.20000000000002" type="curve" smooth="yes"/>
      <point x="90.08000000000001" y="459.69"/>
      <point x="165.92000000000002" y="665.23"/>
      <point x="340.50000000000006" y="665.23" type="curve" smooth="yes"/>
      <point x="460.44" y="665.23"/>
      <point x="525.68" y="592.26"/>
      <point x="525.68" y="448.40000000000003" type="curve" smooth="yes"/>
      <point x="525.68" y="241.11"/>
      <point x="450.41999999999996" y="35.19"/>
    </contour>
  </outline>
</glyph>
<glyph name="ordfeminine" format="2">
  <advance width="282.08"/>
  <unicode hex="00AA"/>
  <outline>
    <contour>
      <point x="25.69" y="253.52" type="line"/>
      <point x="252.1" y="253.52" type="line"/>
      <point x="262.65999999999997" y="322.01" type="line"/>
      <point x="36.25" y="322.01" type="line"/>
    </contour>
    <component base="a.superior" xOffset="8.84"/>
  </outline>
</glyph>
<glyph name="logicalnot" format="2">
  <advance width="402.6"/>
  <unicode hex="00AC"/>
  <outline>
    <contour>
      <point x="51.22" y="322.52" type="line"/>
      <point x="250.10000000000002" y="322.52" type="line"/>
      <point x="228.12" y="176.51000000000002" type="line"/>
      <point x="343.06" y="176.51000000000002" type="line"/>
      <point x="384.07" y="436.77000000000004" type="line"/>
      <point x="70.25" y="436.77000000000004" type="line"/>
    </contour>
  </outline>
</glyph>
<glyph name="registered" format="2">
  <advance width="545.34"/>
  <unicode hex="00AE"/>
  <outline>
    <contour>
      <point x="274.46999999999997" y="208.26" type="curve" smooth="yes"/>
      <point x="444.43000000000006" y="208.26"/>
      <point x="559.59" y="394.89000000000004"/>
      <point x="559.59" y="646.5899999999999" type="curve" smooth="yes"/>
      <point x="559.59" y="802.5799999999999"/>
      <point x="490.32" y="893.48"/>
      <point x="357.78000000000003" y="893.48" type="curve" smooth="yes"/>
      <point x="187.82" y="893.48"/>
      <point x="73.22" y="706.6"/>
      <point x="73.22" y="455.15000000000003" type="curve" smooth="yes"/>
      <point x="73.22" y="299.21999999999997"/>
      <point x="141.87" y="208.26"/>
    </contour>
    <contour>
      <point x="277.90999999999997" y="250.67" type="curve" smooth="yes"/>
      <point x="172.42000000000002" y="250.67"/>
      <point x="117.16" y="327.46"/>
      <point x="117.16" y="453.85" type="curve" smooth="yes"/>
      <point x="117.16" y="681.4000000000001"/>
      <point x="210.79" y="850.88"/>
      <point x="354.40000000000003" y="850.88" type="curve" smooth="yes"/>
      <point x="459.88999999999993" y="850.88"/>
      <point x="515.6500000000001" y="774.28"/>
      <point x="515.6500000000001" y="647.64" type="curve" smooth="yes"/>
      <point x="515.6500000000001" y="420.09"/>
      <point x="421.46000000000004" y="250.67"/>
    </contour>
    <contour>
      <point x="189.57999999999998" y="364.2" type="line"/>
      <point x="268.0" y="364.2" type="line"/>
      <point x="288.08" y="490.27000000000004" type="line"/>
      <point x="294.14" y="489.63"/>
      <point x="300.18" y="488.93"/>
      <point x="308.33" y="489.25999999999993" type="curve"/>
      <point x="319.50999999999993" y="498.0" type="line"/>
      <point x="392.58" y="502.66"/>
      <point x="442.21" y="561.28"/>
      <point x="442.21" y="651.08" type="curve" smooth="yes"/>
      <point x="442.21" y="721.28"/>
      <point x="407.37999999999994" y="756.71"/>
      <point x="341.78999999999996" y="756.71" type="curve" smooth="yes"/>
      <point x="309.45" y="756.71"/>
      <point x="282.3" y="754.29"/>
      <point x="250.94000000000003" y="750.15" type="curve"/>
    </contour>
    <contour>
      <point x="314.18" y="553.3" type="curve" smooth="yes"/>
      <point x="308.87" y="553.3"/>
      <point x="304.09999999999997" y="554.4200000000001"/>
      <point x="297.98" y="555.32" type="curve"/>
      <point x="318.67" y="682.9899999999999" type="line"/>
      <point x="327.61999999999995" y="684.33"/>
      <point x="332.53000000000003" y="685.33"/>
      <point x="340.1" y="685.33" type="curve" smooth="yes"/>
      <point x="357.18999999999994" y="685.33"/>
      <point x="364.45000000000005" y="672.23"/>
      <point x="364.45000000000005" y="649.48" type="curve" smooth="yes"/>
      <point x="364.45000000000005" y="597.2499999999999"/>
      <point x="344.01000000000005" y="553.3"/>
    </contour>
    <contour>
      <point x="381.78999999999996" y="359.28000000000003" type="curve" smooth="yes"/>
      <point x="387.47999999999996" y="359.28000000000003"/>
      <point x="400.56" y="361.29"/>
      <point x="406.65" y="364.18000000000006" type="curve"/>
      <point x="415.99" y="447.94" type="line"/>
      <point x="413.83" y="447.45"/>
      <point x="411.79" y="447.45"/>
      <point x="410.02" y="447.45" type="curve" smooth="yes"/>
      <point x="390.84" y="447.45"/>
      <point x="376.15" y="469.91"/>
      <point x="367.05" y="526.1600000000001" type="curve"/>
      <point x="299.73" y="507.13" type="line"/>
      <point x="323.17" y="373.03999999999996"/>
      <point x="346.79" y="359.28000000000003"/>
    </contour>
  </outline>
</glyph>
<glyph name="degree" format="2">
  <advance width="279.75"/>
  <unicode hex="00B0"/>
  <outline>
    <contour>
      <point x="162.5" y="412.06" type="curve" smooth="yes"/>
      <point x="258.91999999999996" y="412.06"/>
      <point x="303.88" y="518.23"/>
      <point x="303.88" y="603.99" type="curve" smooth="yes"/>
      <point x="303.88" y="666.2199999999999"/>
      <point x="277.59999999999997" y="715.26"/>
      <point x="208.98" y="715.26" type="curve" smooth="yes"/>
      <point x="112.71" y="715.26"/>
      <point x="67.03" y="609.4200000000001"/>
      <point x="67.03" y="523.72" type="curve" smooth="yes"/>
      <point x="67.03" y="459.56999999999994"/>
      <point x="96.13" y="412.06"/>
    </contour>
    <contour>
      <point x="176.57999999999998" y="508.24" type="curve" smooth="yes"/>
      <point x="158.85000000000002" y="508.24"/>
      <point x="150.29" y="522.88"/>
      <point x="150.29" y="545.0600000000001" type="curve" smooth="yes"/>
      <point x="150.29" y="578.69"/>
      <point x="164.93" y="616.5600000000001"/>
      <point x="193.70000000000002" y="616.5600000000001" type="curve" smooth="yes"/>
      <point x="212.11999999999998" y="616.5600000000001"/>
      <point x="220.61999999999998" y="601.3800000000001"/>
      <point x="220.61999999999998" y="579.77" type="curve" smooth="yes"/>
      <point x="220.61999999999998" y="546.62"/>
      <point x="205.29000000000002" y="508.24"/>
    </contour>
  </outline>
</glyph>
<glyph name="plusminus" format="2">
  <advance width="403.28"/>
  <unicode hex="00B1"/>
  <outline>
    <contour>
      <point x="319.59" y="22.130000000000003" type="line"/>
      <point x="338.62" y="142.95000000000002" type="line"/>
      <point x="236.67" y="142.95000000000002" type="line"/>
      <point x="255.92" y="263.15999999999997" type="line"/>
      <point x="357.6" y="263.15999999999997" type="line"/>
      <point x="376.63" y="383.98" type="line"/>
      <point x="274.95000000000005" y="383.98" type="line"/>
      <point x="295.07" y="504.3" type="line"/>
      <point x="182.65" y="504.3" type="line"/>
      <point x="162.66" y="383.98" type="line"/>
      <point x="60.65" y="383.98" type="line"/>
      <point x="41.62" y="263.15999999999997" type="line"/>
      <point x="143.49999999999997" y="263.15999999999997" type="line"/>
      <point x="124.11" y="142.95000000000002" type="line"/>
      <point x="22.64" y="142.95000000000002" type="line"/>
      <point x="3.6100000000000008" y="22.130000000000003" type="line"/>
    </contour>
  </outline>
</glyph>
<glyph name="uni00B2" format="2">
  <advance width="263.70000000000005"/>
  <unicode hex="00B2"/>
  <outline>
    <contour>
      <point x="42.75" y="369.14000000000004" type="line"/>
      <point x="245.98" y="369.14000000000004" type="line"/>
      <point x="257.39" y="433.39" type="line"/>
      <point x="149.48000000000002" y="433.39" type="line"/>
      <point x="220.44" y="516.01"/>
      <point x="286.68" y="597.73"/>
      <point x="286.68" y="690.71" type="curve" smooth="yes"/>
      <point x="286.68" y="741.99"/>
      <point x="253.97" y="773.59"/>
      <point x="201.94" y="773.59" type="curve" smooth="yes"/>
      <point x="162.65" y="773.59"/>
      <point x="123.57000000000001" y="759.97"/>
      <point x="93.85" y="738.41" type="curve"/>
      <point x="109.93" y="660.83" type="line"/>
      <point x="129.83" y="674.29"/>
      <point x="145.73" y="680.89"/>
      <point x="164.35000000000002" y="680.89" type="curve" smooth="yes"/>
      <point x="183.48999999999998" y="680.89"/>
      <point x="192.42000000000002" y="667.13"/>
      <point x="192.42000000000002" y="647.09" type="curve" smooth="yes"/>
      <point x="192.04999999999998" y="588.85"/>
      <point x="110.03" y="480.5"/>
      <point x="51.730000000000004" y="426.26000000000005" type="curve"/>
    </contour>
  </outline>
</glyph>
<glyph name="uni00B3" format="2">
  <advance width="277.825"/>
  <unicode hex="00B3"/>
  <outline>
    <contour>
      <point x="40.8" y="393.525" type="line"/>
      <point x="65.325" y="375.325"/>
      <point x="93.875" y="365.04999999999995"/>
      <point x="134.5" y="365.04999999999995" type="curve" smooth="yes"/>
      <point x="207.625" y="365.04999999999995"/>
      <point x="277.075" y="415.72499999999997"/>
      <point x="277.075" y="506.02500000000003" type="curve" smooth="yes"/>
      <point x="277.075" y="546.4749999999999"/>
      <point x="258.425" y="568.0"/>
      <point x="237.05" y="579.275" type="curve"/>
      <point x="275.20000000000005" y="602.075"/>
      <point x="302.34999999999997" y="638.25"/>
      <point x="302.34999999999997" y="692.1500000000001" type="curve" smooth="yes"/>
      <point x="302.34999999999997" y="744.625"/>
      <point x="263.375" y="775.0749999999999"/>
      <point x="205.375" y="775.0749999999999" type="curve" smooth="yes"/>
      <point x="168.4" y="775.0749999999999"/>
      <point x="131.325" y="764.625"/>
      <point x="103.39999999999999" y="746.125" type="curve"/>
      <point x="116.55" y="683.225" type="line"/>
      <point x="132.175" y="691.0"/>
      <point x="154.525" y="695.85"/>
      <point x="173.275" y="695.85" type="curve" smooth="yes"/>
      <point x="201.4" y="695.85"/>
      <point x="215.7" y="681.525"/>
      <point x="215.7" y="658.625" type="curve" smooth="yes"/>
      <point x="215.7" y="628.8000000000001"/>
      <point x="193.75" y="603.85"/>
      <point x="165.0" y="603.85" type="curve" smooth="yes"/>
      <point x="132.05" y="603.85" type="line"/>
      <point x="121.30000000000001" y="544.4" type="line"/>
      <point x="156.67499999999998" y="544.4" type="line" smooth="yes"/>
      <point x="185.35" y="544.4"/>
      <point x="198.25" y="529.3249999999999"/>
      <point x="198.25" y="506.475" type="curve" smooth="yes"/>
      <point x="198.25" y="472.4"/>
      <point x="176.375" y="440.6"/>
      <point x="134.05" y="440.6" type="curve" smooth="yes"/>
      <point x="112.925" y="440.6"/>
      <point x="95.85" y="445.875"/>
      <point x="78.75" y="458.05" type="curve"/>
    </contour>
  </outline>
</glyph>
<glyph name="uni00B5" format="2">
  <advance width="402.51"/>
  <unicode hex="00B5"/>
  <outline>
    <contour>
      <point x="-43.89" y="-210.0" type="line"/>
      <point x="82.14999999999999" y="-210.0" type="line"/>
      <point x="115.75" y="0.5200000000000022" type="line"/>
      <point x="120.02" y="-6.6"/>
      <point x="127.30000000000001" y="-10.0"/>
      <point x="137.52" y="-10.0" type="curve" smooth="yes"/>
      <point x="162.93999999999997" y="-10.0"/>
      <point x="191.4" y="2.04"/>
      <point x="220.00000000000003" y="34.24999999999999" type="curve"/>
      <point x="229.49" y="10.25"/>
      <point x="255.71000000000004" y="-10.0"/>
      <point x="290.83000000000004" y="-10.0" type="curve" smooth="yes"/>
      <point x="314.79" y="-10.0"/>
      <point x="344.61" y="-1.4100000000000008"/>
      <point x="362.76000000000005" y="12.04" type="curve"/>
      <point x="375.04" y="117.19999999999999" type="line"/>
      <point x="368.58" y="114.78999999999999"/>
      <point x="361.89" y="113.88999999999999"/>
      <point x="358.32" y="113.88999999999999" type="curve" smooth="yes"/>
      <point x="347.48" y="113.88999999999999"/>
      <point x="343.18" y="120.72999999999999"/>
      <point x="343.18" y="133.56" type="curve" smooth="yes"/>
      <point x="343.18" y="140.38"/>
      <point x="344.71999999999997" y="152.54999999999998"/>
      <point x="407.84" y="544.0" type="curve"/>
      <point x="281.98999999999995" y="544.0" type="line"/>
      <point x="215.35" y="129.27999999999997" type="line"/>
      <point x="198.71" y="117.72999999999999"/>
      <point x="181.38000000000002" y="111.77999999999999"/>
      <point x="166.45999999999998" y="111.77999999999999" type="curve" smooth="yes"/>
      <point x="147.82999999999998" y="111.77999999999999"/>
      <point x="138.23" y="123.14999999999998"/>
      <point x="139.48999999999998" y="141.8" type="curve" smooth="yes"/>
      <point x="153.98000000000002" y="222.11999999999998"/>
      <point x="171.98" y="353.76000000000005"/>
      <point x="202.32" y="544.0" type="curve"/>
      <point x="75.87" y="544.0" type="line"/>
    </contour>
  </outline>
</glyph>
<glyph name="paragraph" format="2">
  <advance width="501.13"/>
  <unicode hex="00B6"/>
  <outline>
    <contour>
      <point x="289.62" y="-210.0" type="line"/>
      <point x="387.62999999999994" y="-210.0" type="line"/>
      <point x="539.5899999999999" y="740.0" type="line"/>
      <point x="441.58" y="740.0" type="line"/>
    </contour>
    <contour>
      <point x="212.85000000000002" y="319.86999999999995" type="line"/>
      <point x="185.77" y="326.96"/>
      <point x="166.37" y="363.29"/>
      <point x="166.37" y="420.28999999999996" type="curve" smooth="yes"/>
      <point x="166.37" y="509.66999999999996"/>
      <point x="200.47" y="615.3100000000001"/>
      <point x="279.11" y="618.28" type="curve"/>
      <point x="147.37" y="-210.0" type="line"/>
      <point x="245.38" y="-210.0" type="line"/>
      <point x="397.34000000000003" y="740.0" type="line"/>
      <point x="334.64" y="740.0" type="line" smooth="yes"/>
      <point x="154.20000000000002" y="740.0"/>
      <point x="54.72" y="590.23"/>
      <point x="54.72" y="411.71" type="curve" smooth="yes"/>
      <point x="54.72" y="317.74"/>
      <point x="95.72" y="249.87"/>
      <point x="184.39999999999998" y="229.08999999999997" type="curve"/>
    </contour>
  </outline>
</glyph>
<glyph name="periodcentered" format="2">
  <advance width="177.51000000000002"/>
  <unicode hex="00B7"/>
  <outline>
    <contour>
      <point x="22.435000000000002" y="288.175" type="curve" smooth="yes"/>
      <point x="21.835" y="247.06500000000003"/>
      <point x="39.05" y="227.965"/>
      <point x="81.225" y="227.965" type="curve" smooth="yes"/>
      <point x="145.79000000000002" y="227.965"/>
      <point x="166.11499999999995" y="291.10499999999996"/>
      <point x="166.715" y="343.38" type="curve" smooth="yes"/>
      <point x="167.31499999999997" y="383.175"/>
      <point x="150.17499999999998" y="402.49999999999994"/>
      <point x="108.77499999999999" y="402.49999999999994" type="curve" smooth="yes"/>
      <point x="45.135" y="402.49999999999994"/>
      <point x="23.035" y="340.14"/>
    </contour>
  </outline>
</glyph>
<glyph name="uni00B9" format="2">
  <advance width="248.14000000000001"/>
  <unicode hex="00B9"/>
  <outline>
    <contour>
      <point x="39.769999999999996" y="370.0" type="line"/>
      <point x="243.86" y="370.0" type="line"/>
      <point x="256.57" y="440.45" type="line"/>
      <point x="199.89" y="440.45" type="line"/>
      <point x="255.95000000000002" y="768.26" type="line"/>
      <point x="212.29000000000002" y="768.26" type="line"/>
      <point x="91.67" y="722.0799999999999" type="line"/>
      <point x="95.42999999999999" y="642.6400000000001" type="line"/>
      <point x="155.07999999999998" y="668.4599999999999" type="line"/>
      <point x="116.18" y="440.45" type="line"/>
      <point x="51.46" y="440.45" type="line"/>
    </contour>
  </outline>
</glyph>
<glyph name="ordmasculine" format="2">
  <advance width="262.15999999999997"/>
  <unicode hex="00BA"/>
  <outline>
    <contour>
      <point x="25.740000000000002" y="253.52" type="line"/>
      <point x="230.92999999999998" y="253.52" type="line"/>
      <point x="241.22000000000003" y="322.01" type="line"/>
      <point x="36.03" y="322.01" type="line"/>
    </contour>
    <component base="o.superior" xOffset="10.7"/>
  </outline>
</glyph>
<glyph name="AE" format="2">
  <advance width="593.925"/>
  <unicode hex="00C6"/>
  <anchor x="261.02974" y="0.0" name="bottom"/>
  <anchor x="381.855" y="700.0" name="top"/>
  <outline>
    <contour>
      <point x="220.40499999999997" y="0.0" type="line"/>
      <point x="535.91" y="0.0" type="line"/>
      <point x="554.9700000000001" y="120.355" type="line"/>
      <point x="365.99" y="120.355" type="line"/>
      <point x="392.705" y="291.18" type="line"/>
      <point x="549.7199999999999" y="291.18" type="line"/>
      <point x="568.77" y="404.68500000000006" type="line"/>
      <point x="411.16999999999996" y="404.68500000000006" type="line"/>
      <point x="438.25999999999993" y="576.72" type="line"/>
      <point x="616.43" y="576.72" type="line"/>
      <point x="637.035" y="700.0" type="line"/>
      <point x="239.85500000000002" y="700.0" type="line"/>
      <point x="-41.75" y="0.0" type="line"/>
      <point x="92.79499999999999" y="0.0" type="line"/>
      <point x="162.70499999999998" y="171.4" type="line"/>
      <point x="247.09" y="171.4" type="line"/>
    </contour>
    <contour>
      <point x="203.24" y="290.61500000000007" type="line"/>
      <point x="314.255" y="598.4899999999999" type="line"/>
      <point x="265.71999999999997" y="290.61500000000007" type="line"/>
    </contour>
  </outline>
</glyph>
<glyph name="multiply" format="2">
  <advance width="387.2"/>
  <unicode hex="00D7"/>
  <outline>
    <contour>
      <point x="94.62" y="130.375" type="line"/>
      <point x="188.255" y="237.09" type="line"/>
      <point x="248.11" y="129.73499999999999" type="line"/>
      <point x="338.445" y="215.02499999999998" type="line"/>
      <point x="279.05" y="323.395" type="line"/>
      <point x="374.13999999999993" y="433.075" type="line"/>
      <point x="308.74999999999994" y="517.625" type="line"/>
      <point x="215.225" y="410.53000000000003" type="line"/>
      <point x="154.73" y="518.105" type="line"/>
      <point x="63.93" y="433.475" type="line"/>
      <point x="124.215" y="324.18999999999994" type="line"/>
      <point x="28.605" y="214.575" type="line"/>
    </contour>
  </outline>
</glyph>
<glyph name="Oslash" format="2">
  <advance width="452.8999999999999"/>
  <unicode hex="00D8"/>
  <anchor x="288.09999999999997" y="700.0" name="top"/>
  <outline>
    <contour>
      <point x="490.75" y="711.0" type="line"/>
      <point x="415.15" y="711.0" type="line"/>
      <point x="357.54999999999995" y="619.25" type="line"/>
      <point x="352.90000000000003" y="620.55" type="line"/>
      <point x="86.30000000000001" y="157.35" type="line"/>
      <point x="82.7" y="159.2" type="line"/>
      <point x="-17.499999999999996" y="-4.4" type="line"/>
      <point x="57.949999999999996" y="-4.4" type="line"/>
      <point x="116.15" y="87.7" type="line"/>
      <point x="120.8" y="86.4" type="line"/>
      <point x="386.25" y="547.8500000000001" type="line"/>
      <point x="389.75" y="546.0" type="line"/>
    </contour>
    <contour>
      <point x="194.70000000000002" y="-9.299999999999999" type="curve" smooth="yes"/>
      <point x="381.45" y="-9.299999999999999"/>
      <point x="451.94999999999993" y="280.5"/>
      <point x="453.04999999999995" y="496.25000000000006" type="curve" smooth="yes"/>
      <point x="453.84999999999997" y="640.2500000000001"/>
      <point x="399.15" y="709.3000000000001"/>
      <point x="278.4" y="709.3000000000001" type="curve" smooth="yes"/>
      <point x="96.0" y="709.3000000000001"/>
      <point x="21.15" y="419.65"/>
      <point x="20.049999999999997" y="204.05" type="curve" smooth="yes"/>
      <point x="19.25" y="59.6"/>
      <point x="73.94999999999999" y="-9.299999999999999"/>
    </contour>
    <contour>
      <point x="204.0" y="111.69999999999997" type="curve" smooth="yes"/>
      <point x="165.64999999999998" y="111.69999999999997"/>
      <point x="144.75" y="135.24999999999997"/>
      <point x="144.75" y="196.95000000000002" type="curve" smooth="yes"/>
      <point x="144.75" y="319.55000000000007"/>
      <point x="195.89999999999998" y="588.3"/>
      <point x="272.1" y="588.3" type="curve" smooth="yes"/>
      <point x="308.85" y="588.3"/>
      <point x="329.4" y="565.2"/>
      <point x="329.4" y="504.75000000000006" type="curve" smooth="yes"/>
      <point x="329.4" y="389.35"/>
      <point x="277.2" y="111.69999999999997"/>
    </contour>
  </outline>
</glyph>
<glyph name="Thorn" format="2">
  <advance width="426.70000000000005"/>
  <unicode hex="00DE"/>
  <outline>
    <contour>
      <point x="-9.35" y="0.0" type="line"/>
      <point x="119.37499999999999" y="0.0" type="line"/>
      <point x="137.05" y="110.7" type="line"/>
      <point x="166.575" y="107.525"/>
      <point x="178.92499999999998" y="107.35000000000001"/>
      <point x="202.475" y="107.35000000000001" type="curve" smooth="yes"/>
      <point x="341.875" y="107.35000000000001"/>
      <point x="432.425" y="244.89999999999998"/>
      <point x="432.425" y="440.95" type="curve" smooth="yes"/>
      <point x="432.425" y="558.6"/>
      <point x="384.07500000000005" y="622.95"/>
      <point x="258.20000000000005" y="622.95" type="curve" smooth="yes"/>
      <point x="248.17499999999998" y="622.95"/>
      <point x="235.325" y="622.4749999999999"/>
      <point x="218.70000000000002" y="621.6500000000001" type="curve"/>
      <point x="231.125" y="700.0" type="line"/>
      <point x="102.4" y="700.0" type="line"/>
    </contour>
    <contour>
      <point x="196.27499999999998" y="225.15" type="curve" smooth="yes"/>
      <point x="181.14999999999998" y="225.15"/>
      <point x="172.17499999999998" y="225.45000000000002"/>
      <point x="157.72500000000002" y="227.475" type="curve"/>
      <point x="199.375" y="501.625" type="line"/>
      <point x="220.15" y="504.25"/>
      <point x="230.45000000000002" y="505.25"/>
      <point x="244.0" y="505.25" type="curve" smooth="yes"/>
      <point x="286.3" y="505.25"/>
      <point x="305.275" y="482.575"/>
      <point x="305.275" y="430.70000000000005" type="curve" smooth="yes"/>
      <point x="305.275" y="310.8"/>
      <point x="264.02500000000003" y="225.15"/>
    </contour>
  </outline>
</glyph>
<glyph name="germandbls" format="2">
  <advance width="526.725"/>
  <unicode hex="00DF"/>
  <outline>
    <contour>
      <point x="10.74" y="-15.530000000000005" type="line" smooth="yes"/>
      <point x="1.9600000000000002" y="-69.02000000000001"/>
      <point x="-14.785" y="-94.97500000000001"/>
      <point x="-45.97" y="-94.97500000000001" type="curve" smooth="yes"/>
      <point x="-56.305" y="-94.97500000000001"/>
      <point x="-66.03" y="-94.14500000000001"/>
      <point x="-81.20500000000001" y="-89.26500000000001" type="curve"/>
      <point x="-115.22" y="-204.455" type="line"/>
      <point x="-88.155" y="-215.01"/>
      <point x="-61.30500000000001" y="-220.0"/>
      <point x="-33.260000000000005" y="-220.0" type="curve" smooth="yes"/>
      <point x="66.50500000000001" y="-220.0"/>
      <point x="115.39" y="-154.75"/>
      <point x="136.49499999999998" y="-21.225000000000005" type="curve" smooth="yes"/>
      <point x="219.915" y="511.185" type="line" smooth="yes"/>
      <point x="231.625" y="584.915"/>
      <point x="268.81500000000005" y="628.3149999999999"/>
      <point x="332.675" y="628.3149999999999" type="curve" smooth="yes"/>
      <point x="374.36" y="628.3149999999999"/>
      <point x="393.005" y="614.84"/>
      <point x="393.005" y="590.005" type="curve" smooth="yes"/>
      <point x="393.005" y="563.77"/>
      <point x="381.385" y="547.815"/>
      <point x="329.92499999999995" y="518.985" type="curve" smooth="yes"/>
      <point x="269.84" y="485.05"/>
      <point x="233.815" y="440.745"/>
      <point x="233.815" y="360.94" type="curve" smooth="yes"/>
      <point x="233.815" y="289.22"/>
      <point x="271.7" y="252.66500000000002"/>
      <point x="325.01" y="222.20000000000002" type="curve" smooth="yes"/>
      <point x="368.36" y="197.25"/>
      <point x="378.59499999999997" y="184.58499999999998"/>
      <point x="378.59499999999997" y="162.64" type="curve" smooth="yes"/>
      <point x="378.59499999999997" y="132.25"/>
      <point x="350.2" y="108.24499999999999"/>
      <point x="306.135" y="108.24499999999999" type="curve" smooth="yes"/>
      <point x="271.99" y="108.24499999999999"/>
      <point x="234.165" y="115.535"/>
      <point x="203.62" y="126.16999999999999" type="curve"/>
      <point x="173.66499999999996" y="16.915000000000003" type="line"/>
      <point x="206.285" y="1.6299999999999994"/>
      <point x="250.42000000000002" y="-9.959999999999999"/>
      <point x="306.01" y="-9.959999999999999" type="curve" smooth="yes"/>
      <point x="438.55999999999995" y="-9.959999999999999"/>
      <point x="508.89500000000004" y="59.595"/>
      <point x="508.89500000000004" y="176.215" type="curve" smooth="yes"/>
      <point x="508.89500000000004" y="247.54999999999998"/>
      <point x="476.24" y="284.94"/>
      <point x="422.29499999999996" y="314.87999999999994" type="curve" smooth="yes"/>
      <point x="370.16999999999996" y="344.47999999999996"/>
      <point x="356.83" y="356.045"/>
      <point x="356.83" y="379.1" type="curve" smooth="yes"/>
      <point x="356.83" y="403.045"/>
      <point x="369.99" y="418.32"/>
      <point x="426.88500000000005" y="446.52" type="curve" smooth="yes"/>
      <point x="489.535" y="477.41"/>
      <point x="526.1" y="518.7550000000001"/>
      <point x="526.1" y="602.19" type="curve" smooth="yes"/>
      <point x="526.1" y="695.79"/>
      <point x="458.0" y="750.0"/>
      <point x="341.59" y="750.0" type="curve" smooth="yes"/>
      <point x="192.84500000000003" y="750.0"/>
      <point x="119.015" y="672.065"/>
      <point x="97.15" y="531.495" type="curve" smooth="yes"/>
      <point x="94.26" y="512.4250000000001" type="line"/>
      <point x="43.705000000000005" y="504.7" type="line"/>
      <point x="25.865000000000002" y="399.38" type="line"/>
      <point x="75.77000000000001" y="399.38" type="line"/>
    </contour>
  </outline>
</glyph>
<glyph name="ae" format="2">
  <advance width="600.9"/>
  <unicode hex="00E6"/>
  <anchor x="266.75" y="0.0" name="bottom"/>
  <anchor x="348.65" y="544.0" name="top"/>
  <outline>
    <contour>
      <point x="121.6" y="-10.0" type="curve" smooth="yes"/>
      <point x="153.0" y="-10.0"/>
      <point x="179.29999999999998" y="-0.6499999999999999"/>
      <point x="207.7" y="30.950000000000003" type="curve"/>
      <point x="201.8" y="-2.6999999999999997" type="line"/>
      <point x="316.85" y="-2.6999999999999997" type="line"/>
      <point x="325.5" y="52.05" type="line"/>
      <point x="347.90000000000003" y="15.399999999999999"/>
      <point x="387.34999999999997" y="-8.700000000000001"/>
      <point x="435.79999999999995" y="-8.700000000000001" type="curve" smooth="yes"/>
      <point x="475.5" y="-8.700000000000001"/>
      <point x="517.7499999999999" y="0.7999999999999998"/>
      <point x="553.0" y="23.349999999999994" type="curve"/>
      <point x="537.5" y="137.1" type="line"/>
      <point x="499.55" y="120.1"/>
      <point x="466.34999999999997" y="112.7"/>
      <point x="437.09999999999997" y="112.7" type="curve" smooth="yes"/>
      <point x="391.65" y="112.7"/>
      <point x="358.99999999999994" y="142.7"/>
      <point x="358.99999999999994" y="211.84999999999997" type="curve" smooth="yes"/>
      <point x="358.99999999999994" y="325.44999999999993"/>
      <point x="395.55" y="442.04999999999995"/>
      <point x="456.05" y="442.04999999999995" type="curve" smooth="yes"/>
      <point x="475.69999999999993" y="442.04999999999995"/>
      <point x="486.25000000000006" y="432.25"/>
      <point x="486.25000000000006" y="407.5" type="curve" smooth="yes"/>
      <point x="486.25000000000006" y="363.55"/>
      <point x="456.3" y="320.05"/>
      <point x="403.95000000000005" y="298.3" type="curve" smooth="yes"/>
      <point x="382.3" y="289.1"/>
      <point x="358.84999999999997" y="284.1"/>
      <point x="332.19999999999993" y="284.29999999999995" type="curve"/>
      <point x="314.84999999999997" y="200.25" type="line"/>
      <point x="354.05" y="199.45000000000002"/>
      <point x="394.85" y="205.65"/>
      <point x="433.04999999999995" y="218.6" type="curve" smooth="yes"/>
      <point x="537.4499999999999" y="252.7"/>
      <point x="605.6" y="335.5"/>
      <point x="605.6" y="438.65" type="curve" smooth="yes"/>
      <point x="605.6" y="508.55000000000007"/>
      <point x="570.35" y="554.0"/>
      <point x="502.3" y="554.0" type="curve" smooth="yes"/>
      <point x="459.95" y="554.0"/>
      <point x="423.9" y="534.55"/>
      <point x="394.45" y="500.59999999999997" type="curve"/>
      <point x="403.20000000000005" y="553.0" type="line"/>
      <point x="289.65000000000003" y="553.0" type="line"/>
      <point x="286.3" y="532.8" type="line"/>
      <point x="269.20000000000005" y="547.6999999999999"/>
      <point x="246.79999999999998" y="554.0"/>
      <point x="221.95" y="554.0" type="curve" smooth="yes"/>
      <point x="97.25" y="554.0"/>
      <point x="11.200000000000001" y="389.3"/>
      <point x="11.200000000000001" y="154.35" type="curve" smooth="yes"/>
      <point x="11.200000000000001" y="50.00000000000001"/>
      <point x="52.75" y="-10.0"/>
    </contour>
    <contour>
      <point x="180.24999999999997" y="97.1" type="curve" smooth="yes"/>
      <point x="158.4" y="97.1"/>
      <point x="143.05" y="117.7"/>
      <point x="143.05" y="167.75" type="curve" smooth="yes"/>
      <point x="143.05" y="301.00000000000006"/>
      <point x="188.4" y="439.2"/>
      <point x="240.60000000000002" y="439.2" type="curve" smooth="yes"/>
      <point x="251.64999999999998" y="439.2"/>
      <point x="261.4" y="437.2"/>
      <point x="269.29999999999995" y="431.1" type="curve"/>
      <point x="219.9" y="110.1" type="line"/>
      <point x="207.95" y="101.85"/>
      <point x="193.85" y="97.1"/>
    </contour>
  </outline>
</glyph>
<glyph name="eth" format="2">
  <advance width="397.75"/>
  <unicode hex="00F0"/>
  <outline>
    <contour>
      <point x="287.24999999999994" y="414.4" type="curve"/>
      <point x="308.79999999999995" y="510.90000000000003" type="line"/>
      <point x="284.6" y="526.8499999999999"/>
      <point x="249.95" y="534.7"/>
      <point x="219.45" y="534.7" type="curve" smooth="yes"/>
      <point x="73.6" y="534.7"/>
      <point x="8.15" y="338.8"/>
      <point x="8.15" y="168.2" type="curve" smooth="yes"/>
      <point x="8.15" y="44.45"/>
      <point x="68.69999999999999" y="-9.549999999999999"/>
      <point x="161.89999999999998" y="-9.549999999999999" type="curve" smooth="yes"/>
      <point x="294.3" y="-9.549999999999999"/>
      <point x="348.84999999999997" y="71.2"/>
      <point x="389.1" y="324.29999999999995" type="curve" smooth="yes"/>
      <point x="398.95000000000005" y="386.85"/>
      <point x="404.79999999999995" y="440.34999999999997"/>
      <point x="404.79999999999995" y="485.54999999999995" type="curve" smooth="yes"/>
      <point x="404.79999999999995" y="651.0"/>
      <point x="330.69999999999993" y="741.4500000000002"/>
      <point x="183.8" y="741.4500000000002" type="curve" smooth="yes"/>
      <point x="140.59999999999997" y="741.4500000000002"/>
      <point x="105.2" y="732.35"/>
      <point x="75.25000000000001" y="723.9000000000001" type="curve"/>
      <point x="80.00000000000001" y="632.6499999999999" type="line"/>
      <point x="100.9" y="636.8"/>
      <point x="123.04999999999997" y="641.95"/>
      <point x="152.8" y="641.95" type="curve" smooth="yes"/>
      <point x="242.3" y="641.95"/>
      <point x="278.34999999999997" y="605.8499999999999"/>
      <point x="278.34999999999997" y="512.9499999999999" type="curve" smooth="yes"/>
      <point x="278.34999999999997" y="473.15000000000003"/>
      <point x="274.15000000000003" y="421.15"/>
      <point x="263.30000000000007" y="354.2" type="curve" smooth="yes"/>
      <point x="227.95000000000005" y="130.79999999999998"/>
      <point x="205.15" y="89.65"/>
      <point x="169.9" y="89.65" type="curve" smooth="yes"/>
      <point x="145.54999999999998" y="89.65"/>
      <point x="132.1" y="106.94999999999999"/>
      <point x="132.1" y="145.0" type="curve" smooth="yes"/>
      <point x="132.1" y="240.55"/>
      <point x="169.95" y="432.55"/>
      <point x="238.15000000000003" y="432.55" type="curve" smooth="yes"/>
      <point x="253.69999999999996" y="432.55"/>
      <point x="271.45000000000005" y="427.15000000000003"/>
    </contour>
    <contour>
      <point x="169.89999999999998" y="555.1999999999999" type="line"/>
      <point x="299.55" y="635.8" type="line"/>
      <point x="297.0" y="639.9" type="line"/>
      <point x="459.3" y="741.1500000000001" type="line"/>
      <point x="355.65" y="741.5500000000001" type="line"/>
      <point x="258.04999999999995" y="680.9999999999999" type="line"/>
      <point x="260.2" y="676.35" type="line"/>
      <point x="66.55000000000001" y="555.5" type="line"/>
    </contour>
  </outline>
</glyph>
<glyph name="divide" format="2">
  <advance width="403.48999999999995"/>
  <unicode hex="00F7"/>
  <outline>
    <contour>
      <point x="112.83000000000003" y="112.25000000000001" type="curve" smooth="yes"/>
      <point x="112.23000000000002" y="80.18"/>
      <point x="129.07999999999998" y="64.10000000000002"/>
      <point x="167.88000000000002" y="64.10000000000002" type="curve" smooth="yes"/>
      <point x="215.88" y="64.10000000000002"/>
      <point x="242.26000000000002" y="90.96000000000002"/>
      <point x="243.46" y="150.71" type="curve" smooth="yes"/>
      <point x="244.06" y="183.23"/>
      <point x="226.65" y="198.46"/>
      <point x="189.62000000000003" y="198.46" type="curve" smooth="yes"/>
      <point x="138.17000000000002" y="198.46"/>
      <point x="114.03000000000003" y="161.45"/>
    </contour>
    <contour>
      <point x="172.56" y="483.25000000000006" type="curve" smooth="yes"/>
      <point x="171.96" y="451.36999999999995"/>
      <point x="188.22" y="435.95000000000005"/>
      <point x="226.76" y="435.95000000000005" type="curve" smooth="yes"/>
      <point x="274.79999999999995" y="435.95000000000005"/>
      <point x="301.76" y="463.0400000000001"/>
      <point x="302.96000000000004" y="521.79" type="curve" smooth="yes"/>
      <point x="303.56" y="554.8200000000002"/>
      <point x="285.98" y="570.0100000000001"/>
      <point x="248.76000000000002" y="570.0100000000001" type="curve" smooth="yes"/>
      <point x="195.10000000000002" y="570.0100000000001"/>
      <point x="173.76" y="530.0"/>
    </contour>
    <contour>
      <point x="41.13" y="256.9500000000001" type="line"/>
      <point x="357.2" y="256.9500000000001" type="line"/>
      <point x="376.44999999999993" y="378.25" type="line"/>
      <point x="60.230000000000004" y="378.25" type="line"/>
    </contour>
  </outline>
</glyph>
<glyph name="oslash" format="2">
  <advance width="395.3"/>
  <unicode hex="00F8"/>
  <anchor x="232.85000000000002" y="544.0" name="top"/>
  <outline>
    <contour>
      <point x="356.4" y="554.55" type="line"/>
      <point x="298.75" y="471.25" type="line"/>
      <point x="294.50000000000006" y="472.9" type="line"/>
      <point x="81.10000000000001" y="148.49999999999997" type="line"/>
      <point x="78.1" y="150.85" type="line"/>
      <point x="-33.099999999999994" y="-10.0" type="line"/>
      <point x="38.05" y="-10.0" type="line"/>
      <point x="98.25" y="77.15" type="line"/>
      <point x="102.64999999999999" y="75.5" type="line"/>
      <point x="318.9" y="402.09999999999997" type="line"/>
      <point x="321.75" y="399.75" type="line"/>
      <point x="428.05" y="554.55" type="line"/>
    </contour>
    <contour>
      <point x="171.3" y="-10.0" type="curve" smooth="yes"/>
      <point x="326.7" y="-10.0"/>
      <point x="381.8" y="202.45000000000002"/>
      <point x="381.8" y="387.7" type="curve" smooth="yes"/>
      <point x="381.8" y="502.40000000000003"/>
      <point x="333.95" y="554.55"/>
      <point x="225.14999999999998" y="554.55" type="curve" smooth="yes"/>
      <point x="68.05" y="554.55"/>
      <point x="13.15" y="340.1"/>
      <point x="13.15" y="157.0" type="curve" smooth="yes"/>
      <point x="13.15" y="42.6"/>
      <point x="60.85" y="-10.0"/>
    </contour>
    <contour>
      <point x="173.54999999999998" y="102.54999999999998" type="curve" smooth="yes"/>
      <point x="145.5" y="102.29999999999998"/>
      <point x="131.5" y="118.15"/>
      <point x="131.15" y="154.75" type="curve" smooth="yes"/>
      <point x="130.15" y="221.24999999999997"/>
      <point x="161.45000000000002" y="441.5"/>
      <point x="221.85" y="442.0" type="curve" smooth="yes"/>
      <point x="249.5" y="442.24999999999994"/>
      <point x="263.6" y="425.95"/>
      <point x="263.95" y="389.94999999999993" type="curve" smooth="yes"/>
      <point x="264.95" y="320.44999999999993"/>
      <point x="233.20000000000002" y="102.94999999999999"/>
    </contour>
  </outline>
</glyph>
<glyph name="thorn" format="2">
  <advance width="401.82500000000005"/>
  <unicode hex="00FE"/>
  <outline>
    <contour>
      <point x="-43.48999999999999" y="-210.0" type="line"/>
      <point x="83.215" y="-210.0" type="line"/>
      <point x="116.30499999999999" y="-2.0799999999999996" type="line"/>
      <point x="130.80499999999998" y="-5.54"/>
      <point x="149.335" y="-8.775"/>
      <point x="174.89500000000004" y="-8.775" type="curve" smooth="yes"/>
      <point x="317.95" y="-8.775"/>
      <point x="390.53" y="178.7"/>
      <point x="390.53" y="377.615" type="curve" smooth="yes"/>
      <point x="390.53" y="501.28000000000003"/>
      <point x="362.46" y="554.0"/>
      <point x="291.59000000000003" y="554.0" type="curve" smooth="yes"/>
      <point x="247.315" y="554.0"/>
      <point x="220.05999999999997" y="534.2149999999999"/>
      <point x="198.67499999999998" y="516.375" type="curve"/>
      <point x="233.83499999999998" y="740.0" type="line"/>
      <point x="106.51" y="740.0" type="line"/>
    </contour>
    <contour>
      <point x="161.43499999999995" y="103.92999999999998" type="curve" smooth="yes"/>
      <point x="151.92999999999998" y="103.92999999999998"/>
      <point x="142.5" y="105.32999999999998"/>
      <point x="134.35499999999996" y="108.505" type="curve"/>
      <point x="183.04500000000002" y="415.95" type="line"/>
      <point x="194.225" y="422.895"/>
      <point x="210.095" y="428.52"/>
      <point x="223.465" y="428.52" type="curve" smooth="yes"/>
      <point x="247.45" y="428.52"/>
      <point x="259.70500000000004" y="410.5"/>
      <point x="259.70500000000004" y="359.885" type="curve" smooth="yes"/>
      <point x="259.70500000000004" y="239.1"/>
      <point x="219.9" y="103.92999999999998"/>
    </contour>
  </outline>
</glyph>
<glyph name="Dcroat" format="2">
  <advance width="454.25999999999993"/>
  <unicode hex="0110"/>
  <outline>
    <contour>
      <point x="10.49" y="293.075" type="line"/>
      <point x="239.36999999999998" y="293.075" type="line"/>
      <point x="259.71000000000004" y="413.905" type="line"/>
      <point x="30.71" y="413.905" type="line"/>
    </contour>
    <component base="D" xOffset="10.195"/>
  </outline>
</glyph>
<glyph name="dcroat" format="2">
  <advance width="411.49499999999995"/>
  <unicode hex="0111"/>
  <outline>
    <contour>
      <point x="195.85" y="613.7950000000001" type="line"/>
      <point x="464.1700000000001" y="613.7950000000001" type="line"/>
      <point x="475.91" y="687.02" type="line"/>
      <point x="208.17500000000004" y="687.02" type="line"/>
    </contour>
    <component base="d"/>
  </outline>
</glyph>
<glyph name="Hbar" format="2">
  <advance width="451.56"/>
  <unicode hex="0126"/>
  <outline>
    <contour>
      <point x="36.31" y="500.89" type="line"/>
      <point x="487.17999999999995" y="500.89" type="line"/>
      <point x="504.82" y="610.1199999999999" type="line"/>
      <point x="53.949999999999996" y="610.1199999999999" type="line"/>
    </contour>
    <component base="H" xOffset="3.52"/>
  </outline>
</glyph>
<glyph name="hbar" format="2">
  <advance width="407.68999999999994"/>
  <unicode hex="0127"/>
  <outline>
    <contour>
      <point x="53.2" y="613.7950000000001" type="line"/>
      <point x="295.55500000000006" y="613.7950000000001" type="line"/>
      <point x="307.145" y="687.02" type="line"/>
      <point x="64.79" y="687.02" type="line"/>
    </contour>
    <component base="h" xOffset="4.59"/>
  </outline>
</glyph>
<glyph name="Idotaccent" format="2">
  <advance width="199.09"/>
  <unicode hex="0130"/>
  <outline>
    <contour>
      <point x="201.47" y="911.1999999999999" type="curve" smooth="yes"/>
      <point x="138.01000000000002" y="911.1999999999999"/>
      <point x="113.99000000000001" y="861.8000000000001"/>
      <point x="113.15" y="805.0500000000001" type="curve" smooth="yes"/>
      <point x="112.88" y="765.23"/>
      <point x="133.94" y="746.37"/>
      <point x="174.07" y="746.37" type="curve" smooth="yes"/>
      <point x="236.35" y="746.37"/>
      <point x="261.51" y="796.05"/>
      <point x="262.38" y="853.25" type="curve" smooth="yes"/>
      <point x="262.65" y="892.9699999999999"/>
      <point x="241.04999999999998" y="911.1999999999999"/>
    </contour>
    <component base="I"/>
  </outline>
</glyph>
<glyph name="dotlessi" format="2">
  <advance width="193.29"/>
  <unicode hex="0131"/>
  <anchor x="52.841080000000005" y="0.0" name="bottom"/>
  <anchor x="116.85" y="0.0" name="ogonek"/>
  <anchor x="138.97892000000002" y="544.0" name="top"/>
  <outline>
    <contour>
      <point x="116.85" y="0.0" type="line"/>
      <point x="202.88" y="544.0" type="line"/>
      <point x="75.31" y="544.0" type="line"/>
      <point x="-10.589999999999996" y="0.06999999999999999" type="line"/>
    </contour>
  </outline>
</glyph>
<glyph name="Ldot" format="2">
  <advance width="342.08"/>
  <unicode hex="013F"/>
  <outline>
    <contour>
      <point x="234.97874" y="370.56606" type="curve" smooth="yes"/>
      <point x="234.40873999999997" y="340.41026"/>
      <point x="247.04706" y="326.62257"/>
      <point x="278.37265" y="326.62257" type="curve" smooth="yes"/>
      <point x="324.91592999999995" y="326.62257"/>
      <point x="340.12404" y="369.68417"/>
      <point x="340.75404" y="408.28891999999996" type="curve" smooth="yes"/>
      <point x="341.32404" y="437.47493"/>
      <point x="328.95572000000004" y="451.53262"/>
      <point x="298.11971" y="451.53262" type="curve" smooth="yes"/>
      <point x="252.06663999999998" y="451.53262"/>
      <point x="235.60874" y="408.89081"/>
    </contour>
    <component base="L"/>
  </outline>
</glyph>
<glyph name="ldot" format="2">
  <advance width="292.96"/>
  <unicode hex="0140"/>
  <outline>
    <contour>
      <point x="212.40030000000002" y="356.03435" type="curve" smooth="yes"/>
      <point x="211.8303" y="327.55134"/>
      <point x="222.97608" y="314.69584000000003"/>
      <point x="251.10267000000002" y="314.69584000000003" type="curve" smooth="yes"/>
      <point x="293.82941" y="314.69584000000003"/>
      <point x="306.74845000000005" y="356.29577"/>
      <point x="307.37845" y="392.49868" type="curve" smooth="yes"/>
      <point x="307.94845000000004" y="419.97809"/>
      <point x="297.07266999999996" y="433.10359000000005"/>
      <point x="269.39695" y="433.10359000000005" type="curve" smooth="yes"/>
      <point x="227.12038" y="433.10359000000005"/>
      <point x="213.03029999999998" y="392.04777"/>
    </contour>
    <component base="l"/>
  </outline>
</glyph>
<glyph name="Lslash" format="2">
  <advance width="359.03"/>
  <unicode hex="0141"/>
  <outline>
    <contour>
      <point x="7.300000000000001" y="0.0" type="line"/>
      <point x="304.08" y="0.0" type="line"/>
      <point x="323.53" y="120.99" type="line"/>
      <point x="154.74" y="120.99" type="line"/>
      <point x="184.78" y="310.93" type="line"/>
      <point x="300.56" y="379.61" type="line"/>
      <point x="322.62" y="510.34999999999997" type="line"/>
      <point x="205.58" y="441.04" type="line"/>
      <point x="247.34" y="700.0" type="line"/>
      <point x="119.21000000000001" y="700.0" type="line"/>
      <point x="66.78000000000002" y="373.89" type="line"/>
      <point x="18.94" y="345.64" type="line"/>
      <point x="-1.3599999999999994" y="214.98" type="line"/>
      <point x="45.71" y="243.16" type="line"/>
    </contour>
  </outline>
</glyph>
<glyph name="lslash" format="2">
  <advance width="231.49999999999997"/>
  <unicode hex="0142"/>
  <outline>
    <contour>
      <point x="-3.59" y="210.53" type="line"/>
      <point x="242.74999999999997" y="382.87" type="line"/>
      <point x="261.16999999999996" y="498.78999999999996" type="line"/>
      <point x="14.13" y="326.45" type="line"/>
    </contour>
    <component base="l" xOffset="12.6"/>
  </outline>
</glyph>
<glyph name="Eng" format="2">
  <advance width="448.925"/>
  <unicode hex="014A"/>
  <outline>
    <contour>
      <point x="-9.424999999999999" y="0.0" type="line"/>
      <point x="107.32499999999999" y="0.0" type="line"/>
      <point x="171.65" y="400.55" type="line"/>
      <point x="243.99999999999997" y="-4.399999999999999" type="line"/>
      <point x="237.87499999999997" y="-45.35"/>
      <point x="218.8" y="-58.65"/>
      <point x="192.25" y="-58.65" type="curve" smooth="yes"/>
      <point x="181.57500000000002" y="-58.95"/>
      <point x="171.3" y="-58.07500000000001"/>
      <point x="160.775" y="-55.300000000000004" type="curve"/>
      <point x="138.65" y="-189.45" type="line"/>
      <point x="155.075" y="-193.725"/>
      <point x="174.675" y="-194.625"/>
      <point x="191.625" y="-194.625" type="curve" smooth="yes"/>
      <point x="288.77500000000003" y="-191.175"/>
      <point x="349.55" y="-132.74999999999997"/>
      <point x="368.825" y="-9.55" type="curve" smooth="yes"/>
      <point x="481.575" y="700.0" type="line"/>
      <point x="364.625" y="700.0" type="line"/>
      <point x="296.475" y="278.92499999999995" type="line"/>
      <point x="229.025" y="700.3" type="line"/>
      <point x="101.7" y="700.3" type="line"/>
    </contour>
  </outline>
</glyph>
<glyph name="eng" format="2">
  <advance width="399.03999999999996"/>
  <unicode hex="014B"/>
  <outline>
    <contour>
      <point x="318.79" y="-4.260000000000007" type="curve" smooth="yes"/>
      <point x="342.71999999999997" y="150.3"/>
      <point x="394.89" y="446.04999999999995"/>
      <point x="394.89" y="466.42" type="curve" smooth="yes"/>
      <point x="394.89" y="521.0"/>
      <point x="363.87" y="554.0"/>
      <point x="306.02" y="554.0" type="curve" smooth="yes"/>
      <point x="267.84999999999997" y="554.0"/>
      <point x="228.82999999999998" y="542.0600000000001"/>
      <point x="184.82" y="509.87999999999994" type="curve"/>
      <point x="189.92999999999998" y="544.0" type="line"/>
      <point x="75.24000000000001" y="544.0" type="line"/>
      <point x="-10.829999999999998" y="0.0" type="line"/>
      <point x="116.11999999999999" y="0.0" type="line"/>
      <point x="183.01" y="414.34999999999997" type="line"/>
      <point x="199.0" y="424.40999999999997"/>
      <point x="215.91000000000003" y="430.89"/>
      <point x="230.83" y="430.89" type="curve" smooth="yes"/>
      <point x="250.68" y="430.89"/>
      <point x="259.98" y="421.52000000000004"/>
      <point x="259.42" y="404.02" type="curve" smooth="yes"/>
      <point x="258.58" y="394.24"/>
      <point x="254.38000000000002" y="368.26"/>
      <point x="194.32000000000002" y="-6.050000000000003" type="curve" smooth="yes"/>
      <point x="187.66000000000003" y="-47.84000000000001"/>
      <point x="174.76" y="-77.46"/>
      <point x="147.96" y="-77.46" type="curve" smooth="yes"/>
      <point x="143.82999999999998" y="-77.46"/>
      <point x="138.41" y="-77.13000000000001"/>
      <point x="132.69" y="-75.0" type="curve"/>
      <point x="102.98" y="-214.21999999999997" type="line"/>
      <point x="117.66000000000001" y="-217.72"/>
      <point x="136.71" y="-220.18"/>
      <point x="159.59" y="-220.18" type="curve" smooth="yes"/>
      <point x="231.29999999999998" y="-220.18"/>
      <point x="296.37000000000006" y="-170.85"/>
    </contour>
  </outline>
</glyph>
<glyph name="OE" format="2">
  <advance width="609.875"/>
  <unicode hex="0152"/>
  <outline>
    <contour>
      <point x="551.8000000000001" y="0.0" type="line"/>
      <point x="571.05" y="120.375" type="line"/>
      <point x="381.67499999999995" y="120.375" type="line"/>
      <point x="409.20000000000005" y="296.3" type="line"/>
      <point x="567.1750000000001" y="296.3" type="line"/>
      <point x="586.175" y="409.82500000000005" type="line"/>
      <point x="428.05" y="409.82500000000005" type="line"/>
      <point x="454.35" y="576.7" type="line"/>
      <point x="632.4000000000001" y="576.7" type="line"/>
      <point x="652.9250000000001" y="700.0" type="line"/>
      <point x="471.6" y="700.0" type="line"/>
      <point x="426.475" y="704.8249999999999"/>
      <point x="365.19999999999993" y="710.0"/>
      <point x="319.175" y="710.0" type="curve" smooth="yes"/>
      <point x="97.65" y="710.0"/>
      <point x="20.075" y="412.6000000000001"/>
      <point x="20.075" y="195.57500000000002" type="curve" smooth="yes"/>
      <point x="20.075" y="58.64999999999999"/>
      <point x="73.75" y="-10.0"/>
      <point x="213.17499999999998" y="-10.0" type="curve" smooth="yes"/>
      <point x="249.14999999999998" y="-10.0"/>
      <point x="293.72499999999997" y="-7.324999999999999"/>
      <point x="352.32500000000005" y="0.0" type="curve"/>
    </contour>
    <contour>
      <point x="252.2" y="113.35" type="line"/>
      <point x="239.25" y="110.52499999999999"/>
      <point x="225.95000000000002" y="109.37499999999997"/>
      <point x="211.675" y="109.37499999999997" type="curve" smooth="yes"/>
      <point x="166.49999999999997" y="109.37499999999997"/>
      <point x="147.975" y="145.5"/>
      <point x="147.975" y="205.20000000000002" type="curve" smooth="yes"/>
      <point x="147.975" y="366.99999999999994"/>
      <point x="210.62499999999997" y="586.4749999999999"/>
      <point x="290.07500000000005" y="586.4749999999999" type="curve" smooth="yes"/>
      <point x="303.95" y="586.4749999999999"/>
      <point x="319.07499999999993" y="584.175"/>
      <point x="327.32499999999993" y="583.3249999999999" type="curve"/>
    </contour>
  </outline>
</glyph>
<glyph name="oe" format="2">
  <advance width="610.9"/>
  <unicode hex="0153"/>
  <outline>
    <contour>
      <point x="169.35" y="-10.0" type="curve" smooth="yes"/>
      <point x="223.05" y="-10.0"/>
      <point x="264.05" y="20.900000000000002"/>
      <point x="290.79999999999995" y="60.5" type="curve"/>
      <point x="317.9" y="15.05"/>
      <point x="360.34999999999997" y="-10.0"/>
      <point x="419.65000000000003" y="-10.0" type="curve" smooth="yes"/>
      <point x="466.99999999999994" y="-10.0"/>
      <point x="520.3499999999999" y="0.7999999999999998"/>
      <point x="563.0" y="23.349999999999994" type="curve"/>
      <point x="541.8000000000001" y="138.45" type="line"/>
      <point x="502.35" y="121.14999999999999"/>
      <point x="465.84999999999997" y="113.45"/>
      <point x="438.85" y="113.45" type="curve" smooth="yes"/>
      <point x="394.6" y="113.45"/>
      <point x="369.5" y="137.79999999999998"/>
      <point x="369.5" y="213.10000000000002" type="curve" smooth="yes"/>
      <point x="369.5" y="351.4"/>
      <point x="414.2" y="441.44999999999993"/>
      <point x="464.95" y="441.44999999999993" type="curve" smooth="yes"/>
      <point x="484.34999999999997" y="441.44999999999993"/>
      <point x="496.2999999999999" y="431.84999999999997"/>
      <point x="496.2999999999999" y="406.4" type="curve" smooth="yes"/>
      <point x="496.2999999999999" y="363.1"/>
      <point x="465.55" y="321.50000000000006"/>
      <point x="414.35" y="300.0" type="curve" smooth="yes"/>
      <point x="394.05" y="291.40000000000003"/>
      <point x="370.5" y="286.3"/>
      <point x="345.75000000000006" y="286.5" type="curve"/>
      <point x="326.95000000000005" y="199.45" type="line"/>
      <point x="365.7" y="198.9"/>
      <point x="405.34999999999997" y="205.55"/>
      <point x="442.90000000000003" y="217.75000000000003" type="curve" smooth="yes"/>
      <point x="547.3" y="251.25000000000003"/>
      <point x="615.6" y="331.6"/>
      <point x="615.6" y="431.05" type="curve" smooth="yes"/>
      <point x="615.6" y="504.55"/>
      <point x="570.85" y="554.0"/>
      <point x="483.40000000000003" y="554.0" type="curve" smooth="yes"/>
      <point x="427.35" y="554.0"/>
      <point x="382.45" y="529.5"/>
      <point x="348.45" y="491.7999999999999" type="curve"/>
      <point x="327.75000000000006" y="533.3"/>
      <point x="287.9" y="554.55"/>
      <point x="224.95" y="554.55" type="curve" smooth="yes"/>
      <point x="67.85000000000001" y="554.55"/>
      <point x="12.65" y="339.95"/>
      <point x="12.65" y="157.75" type="curve" smooth="yes"/>
      <point x="12.65" y="43.5"/>
      <point x="59.9" y="-10.0"/>
    </contour>
    <contour>
      <point x="173.04999999999998" y="106.55" type="curve" smooth="yes"/>
      <point x="150.50000000000003" y="106.44999999999999"/>
      <point x="137.25" y="116.89999999999999"/>
      <point x="136.89999999999998" y="152.15" type="curve" smooth="yes"/>
      <point x="136.2" y="218.35"/>
      <point x="167.35" y="437.65000000000003"/>
      <point x="221.35" y="438.0" type="curve" smooth="yes"/>
      <point x="243.5" y="438.1"/>
      <point x="256.7" y="427.65000000000003"/>
      <point x="257.04999999999995" y="393.15" type="curve" smooth="yes"/>
      <point x="257.75" y="322.15"/>
      <point x="226.0" y="106.89999999999999"/>
    </contour>
  </outline>
</glyph>
<glyph name="uni0162" format="2">
  <advance width="377.76"/>
  <unicode hex="0162"/>
  <anchor x="145.18806999999998" y="0.0" name="_bottom"/>
  <anchor x="88.32" y="-220.0" name="bottom"/>
  <outline>
    <contour>
      <point x="29.61" y="-208.33" type="line"/>
      <point x="47.74" y="-216.29999999999998"/>
      <point x="65.80000000000001" y="-220.0"/>
      <point x="88.59" y="-220.0" type="curve" smooth="yes"/>
      <point x="160.86" y="-220.0"/>
      <point x="208.5" y="-161.48999999999998"/>
      <point x="208.5" y="-79.94" type="curve" smooth="yes"/>
      <point x="208.5" y="-48.870000000000005"/>
      <point x="203.81" y="-18.790000000000003"/>
      <point x="194.08999999999997" y="5.89" type="curve"/>
      <point x="112.72" y="5.109999999999999" type="line"/>
      <point x="120.81000000000002" y="-17.689999999999998"/>
      <point x="125.20000000000002" y="-36.11"/>
      <point x="125.20000000000002" y="-61.88" type="curve" smooth="yes"/>
      <point x="125.20000000000002" y="-105.37"/>
      <point x="103.64" y="-125.41000000000003"/>
      <point x="75.2" y="-125.41000000000003" type="curve" smooth="yes"/>
      <point x="64.43" y="-125.41000000000003"/>
      <point x="56.400000000000006" y="-123.48"/>
      <point x="46.739999999999995" y="-119.42" type="curve"/>
    </contour>
    <component base="T"/>
  </outline>
</glyph>
